<svg xmlns="http://www.w3.org/2000/svg" id="_Anxiety_stress_small" width="71.562" height="71.562" viewBox="0 0 71.562 71.562">
    <defs>
        <style>
            .cls-3,.cls-5{fill:#5e1313}.cls-3{opacity:.1}.cls-5{opacity:.2}
        </style>
    </defs>
    <g id="Group_5358">
        <g id="Group_5218">
            <g id="Group_5217">
                <g id="Group_5194">
                    <g id="Group_5192">
                        <g id="Group_5185">
                            <g id="Group_5174">
                                <g id="Group_2519">
                                    <path id="AdobeStock_230057853" fill="#bbe8ff" d="M35.781 0A35.781 35.781 0 1 1 0 35.781 35.781 35.781 0 0 1 35.781 0z"/>
                                </g>
                            </g>
                        </g>
                    </g>
                </g>
            </g>
        </g>
    </g>
    <g id="Group_127" transform="translate(13.517 15.82)">
        <g id="Group_124" transform="translate(20.741 21.665)">
            <g id="Group_123" transform="translate(3.218 6.606)">
                <path id="Path_390" fill="#c47676" d="M174.206 727a1.168 1.168 0 0 1-.568.074.277.277 0 0 1-.05 0 2.95 2.95 0 0 1-1.2-.2.8.8 0 0 1-.3-.211 1.726 1.726 0 0 1-.161-.488 12.361 12.361 0 0 0-1.1-2.314c-.823-1.46-1.8-2.823-2.712-4.23-.289-.444-.572-.895-.836-1.354l-.2-.336c-.246-.435-.885-1.274-.885-1.78a.78.78 0 0 1 .171-.5c.513-.633 2.031-.63 2.684-.466a8.667 8.667 0 0 1 2.833 1.528 1.691 1.691 0 0 1 .631.659 1.667 1.667 0 0 1 .068.746c0 .021 0 .046-.006.068a14.944 14.944 0 0 0 .447 4.752 15.263 15.263 0 0 0 .811 2.314c.177.388.994 1.413.373 1.738z" transform="translate(-166.198 -715.101)"/>
                <path id="Path_391" d="M174.206 728.738a1.171 1.171 0 0 1-.568.075.277.277 0 0 1-.05 0 7.089 7.089 0 0 1-.339-.833 14.407 14.407 0 0 1-.612-2.389 16.19 16.19 0 0 0-.4-2.121 3.151 3.151 0 0 0-1.193-1.752 5.932 5.932 0 0 0-1.395-.556 10.853 10.853 0 0 1-2.373-1.143l-.2-.336c-.246-.435-.885-1.274-.885-1.78a.78.78 0 0 1 .171-.5 2.474 2.474 0 0 1 1.168-.127 10.09 10.09 0 0 1 5.047 2.594c0 .022 0 .047-.006.068a14.945 14.945 0 0 0 .447 4.752 15.256 15.256 0 0 0 .811 2.314c.181.386.998 1.411.377 1.734z" class="cls-3" transform="translate(-166.198 -716.842)"/>
            </g>
            <path id="Path_392" fill="#aa6161" d="M164.145 686.379a6.186 6.186 0 0 1-.416 1.873 5.093 5.093 0 0 1-1.578 2.429 4.76 4.76 0 0 1-3.64.615.012.012 0 0 1-.009 0c-.233-.037-.463-.084-.689-.137a15.769 15.769 0 0 1-5.333-2.342 5.268 5.268 0 0 1-1.32-1.18 4.4 4.4 0 0 1-.3-.457c-.394-.7-.63-1.5-.978-2.217-.105-.221-.236-.426-.345-.631a1.378 1.378 0 0 1-.183-1.161c.488-1.476 2.715-2.323 4.072-2.594a11.741 11.741 0 0 1 4.115.012 13.147 13.147 0 0 1 2.258.55 7.861 7.861 0 0 1 2.201 1.142 5.094 5.094 0 0 1 2.145 4.098z" transform="translate(-149.294 -680.396)"/>
            <path id="Path_393" d="M165.187 688.648a6.185 6.185 0 0 1-.416 1.873 5.1 5.1 0 0 1-1.578 2.429 4.762 4.762 0 0 1-3.641.615 2.69 2.69 0 0 0 1.177-.165 1.688 1.688 0 0 0 .957-1.8c-.161-.888-.926-1.193-1.671-1.463a13.868 13.868 0 0 0-2.979-.74 20.441 20.441 0 0 0-4.712.025 3.248 3.248 0 0 1-.419.019c-.394-.7-.63-1.5-.978-2.218-.105-.22-.236-.425-.345-.63a2.556 2.556 0 0 1 .211-.593 4.671 4.671 0 0 1 2.364-1.823 9.6 9.6 0 0 1 2.519-.91 22.786 22.786 0 0 1 4.078.161c.36.006.724-.012 1.09-.028a7.864 7.864 0 0 1 2.193 1.146 5.1 5.1 0 0 1 2.15 4.102z" class="cls-5" transform="translate(-150.337 -682.667)"/>
        </g>
        <g id="Group_126">
            <path id="Path_394" fill="#d37f7f" d="M83.876 587.96a13.917 13.917 0 0 1-.581 1.864c-.13.339-.264.677-.4 1.013-.084.2-.165.4-.252.606a5.88 5.88 0 0 1-.947 1.6 6.526 6.526 0 0 1-1.916 1.364 9.847 9.847 0 0 1-4.252 1.317c-1.842.043-3.588-.745-5.389-1.146-.081-.018-.161-.037-.242-.052a11.293 11.293 0 0 0-1.3-.186c-2.6-.249-5.262.239-7.893.363-.553.025-1.115.031-1.68.012-.168-.006-.339-.015-.506-.031a12.948 12.948 0 0 1-2.252-.338 7.918 7.918 0 0 1-3.789-1.988c-.1-.1-.189-.193-.283-.295a3.055 3.055 0 0 0-.919-.836 1.611 1.611 0 0 0-.658-.13 8.616 8.616 0 0 0-.978.09 5.976 5.976 0 0 1-2.1-.152 7.468 7.468 0 0 1-2.662-1.36 12.711 12.711 0 0 1-1.3-1.156c-.065-.068-.131-.134-.2-.2a11.558 11.558 0 0 1-2.472-3.607 7.8 7.8 0 0 1-.565-2.736 8.617 8.617 0 0 1 .3-2.532 8.5 8.5 0 0 1 1.224-2.622c.193-.276.37-.515.534-.742.245-.338.466-.643.671-.984a8.4 8.4 0 0 0 .528-1.069 4.2 4.2 0 0 1 2.6-2.472c.528-.162 1.084-.214 1.6-.407.05-.019.1-.037.149-.059a4.2 4.2 0 0 0 1.18-.839c.37-.348.718-.727 1.106-1.047a8.235 8.235 0 0 1 4.936-1.55c1.755-.072 3.516.115 5.262-.066 2.472-.252 4.892-1.224 7.362-.957a13.064 13.064 0 0 1 3.243.891c.289.112.578.224.866.342.64.258 1.267.534 1.885.839.1.044.19.09.283.137a.015.015 0 0 1 .012.006 15.894 15.894 0 0 1 3.967 2.727 14.918 14.918 0 0 1 2.4 3.1c.261.435.5.876.733 1.326.4.77.755 1.559 1.09 2.351l.168.394c.158.388.314.78.457 1.177.261.7.5 1.42.689 2.14.075.282.143.562.2.845a11.708 11.708 0 0 1 .091 5.055z" transform="translate(-40.333 -566.581)"/>
            <g id="Group_125" transform="translate(0 .933)">
                <path id="Path_395" d="M107.635 626.605a8.1 8.1 0 0 0-4.644-.171 12.677 12.677 0 0 1-2.83.693c-1.171.034-2.289-.506-3.46-.547a8.188 8.188 0 0 0-2.712.534c-.817.258-1.637.519-2.457.777a10.01 10.01 0 0 0-2.165.879 3.34 3.34 0 0 0-1.5 1.733 4.948 4.948 0 0 0 .379 3.175c.2.553.407 1.131.643 1.705-.1-.1-.189-.193-.283-.3a3.055 3.055 0 0 0-.919-.836 1.606 1.606 0 0 0-.658-.13c-.09-.581-.106-1.159-.165-1.746-.047-.438.093-1.575-.342-1.808a.786.786 0 0 0-.32-.059 1.315 1.315 0 0 1-.891-.4c.239-.357 1.373-.453 1.8-.662a2.966 2.966 0 0 0 1.435-1.314 1.8 1.8 0 0 0 .174-.631 2.927 2.927 0 0 0-.074-.715 10.469 10.469 0 0 0-.534-2 3.594 3.594 0 0 0-1.23-1.631c-.379-.261-1.435-.177-.776-.671a3.965 3.965 0 0 1 1.643-.155 5.119 5.119 0 0 0-.416-2.609c.739.04 1.121.9 1.239 1.637a25.118 25.118 0 0 0 .491 3.494 2.41 2.41 0 0 0 2.184 1.963 6.9 6.9 0 0 0 1.674-.41 20.1 20.1 0 0 1 2.988-.531 1.425 1.425 0 0 0 .8-.292 1.356 1.356 0 0 0 .308-.574c.276-.864.41-1.774.758-2.612a3.04 3.04 0 0 1 1.848-1.87 7.8 7.8 0 0 0-.892 2.69c-.168 1.684.509 3.488 2.435 3.159a4.758 4.758 0 0 0 3.746-3.128 9.748 9.748 0 0 1 .621-2.125 4.187 4.187 0 0 1-.286 3.178c-.14.267-.3.634-.078.839a.664.664 0 0 0 .283.124c.878.223 1.956.477 2.183 1.347z" class="cls-5" transform="translate(-76.749 -610.542)"/>
                <path id="Path_396" d="M116.809 633.09a8.4 8.4 0 0 1 2.991-.44 7.669 7.669 0 0 1 2.356.213 2.777 2.777 0 0 1 1.791 1.446 5.335 5.335 0 0 1 1.9-2.129 6.6 6.6 0 0 1 2.73-.627c.938-.078 2.107-.031 2.516.816.122-1.187 1.2-2.014 2.211-2.652s2.127-1.356 2.418-2.513a17.862 17.862 0 0 0 .087-2.219 5.838 5.838 0 0 1 1.148-2.483 3.639 3.639 0 0 0 .578-1.1 1.2 1.2 0 0 0-.255-1.161c.133 1.355-1.608 2.159-1.958 3.474a3.027 3.027 0 0 0-4.3-1 5.371 5.371 0 0 1 1.055.048 2.56 2.56 0 0 0-.78 2.34c.342-.912 1.2-1.81 2.148-1.589a1.956 1.956 0 0 1 1.265 1.357 3.926 3.926 0 0 1-1.512 4.42 1.358 1.358 0 0 0-.271-1.4 3.4 3.4 0 0 0-1.237-.832 3.421 3.421 0 0 1 .472 2.147 1.989 1.989 0 0 1-1.347 1.633 3.349 3.349 0 0 1-1.44-.05 5.56 5.56 0 0 0-2.974.059c-.872.34-1.543 1.076-2.41 1.431a5 5 0 0 1-4.167-.6 2.322 2.322 0 0 0 1.067-1.977 7.519 7.519 0 0 1-8.232 2.482 2.7 2.7 0 0 0 1.993 1.448 1.989 1.989 0 0 0-.046 1.288c.45-.052.63-.659.916-.968a3.566 3.566 0 0 1 1.287-.862z" class="cls-5" transform="translate(-98.892 -610.962)"/>
                <path id="Path_397" d="M130.537 694.971a8.644 8.644 0 0 0-2.727 1.637 11.236 11.236 0 0 1-1.019.575 13.837 13.837 0 0 1-2.758-.37q.755-.191 1.51-.388a5.438 5.438 0 0 0 2.423-1.072 2.749 2.749 0 0 0 .86-2.215 1.3 1.3 0 0 1 .45 1.106 3.772 3.772 0 0 1-.326 1.193 2.1 2.1 0 0 1 1.587-.466z" class="cls-5" transform="translate(-108.1 -669.981)"/>
                <path id="Path_398" d="M190 701.648c-.081-.019-.161-.037-.242-.053a11.387 11.387 0 0 0-1.3-.186 1.758 1.758 0 0 1 .031-1.156 2.985 2.985 0 0 1 1.065-1.3c.127-.093.311-.183.435-.081a1.657 1.657 0 0 0-.606 1.513c.047.415.5.872.617 1.263z" class="cls-5" transform="translate(-160.197 -674.583)"/>
                <path id="Path_399" d="M208.084 661.57a2.751 2.751 0 0 0 4.055-.682 1.3 1.3 0 0 1-1.56-.631 5.236 5.236 0 0 0 5.542-6.688 7.043 7.043 0 0 1 1 2.483 3.926 3.926 0 0 1-.991 3.047 4.94 4.94 0 0 1-2.857 1.531 3.462 3.462 0 0 1-1.785 2.133c-1.129.554-3.435.595-3.404-1.193z" class="cls-5" transform="translate(-176.152 -637.944)"/>
                <path id="Path_400" d="M259.331 683.491c-.13.339-.264.677-.4 1.013-.084.2-.165.4-.252.605a1.059 1.059 0 0 0 .013-.193 4.607 4.607 0 0 0-.264-1.416c-.093-.264-.382-1.124-.671-1.23a3.123 3.123 0 0 1 1.574 1.221z" class="cls-5" transform="translate(-216.369 -661.182)"/>
                <path id="Path_401" d="M262.933 648.751c-.093.031-.2.047-.286.084a1.039 1.039 0 0 0-.422.373 3.476 3.476 0 0 0-.531 1.056 1.245 1.245 0 0 1-.053-.857 2.27 2.27 0 0 1 .8-1.177c.09-.09.186-.208.289-.323.076.282.144.561.203.844z" class="cls-5" transform="translate(-219.474 -633.359)"/>
                <path id="Path_402" d="M212.563 581.293a2.842 2.842 0 0 0-1.823-2.945c-.317 1.031.357 2.208-.059 3.206a1.988 1.988 0 0 0-.27-.957.678.678 0 0 0-.873-.248 5.176 5.176 0 0 0-.565-4.072 1.877 1.877 0 0 0-.864-.823.854.854 0 0 0-1.056.333c.36-.733-.441-1.984-.9-2.479l-.006-.006c.736.3 1.46.618 2.168.975a.016.016 0 0 1 .012.006c.121.081.239.161.354.248a3.563 3.563 0 0 1 1.339 1.615 5.287 5.287 0 0 0 .264.786c.261.484.8.73 1.236 1.072a3.159 3.159 0 0 1 1.043 3.289z" class="cls-5" transform="translate(-174.581 -572.955)"/>
                <path id="Path_403" d="M251.26 610.4a3.338 3.338 0 0 1-.863 1.205c.3-.264.258-1.336.242-1.7a4.735 4.735 0 0 0-.112-.835c.261.43.504.876.733 1.33z" class="cls-5" transform="translate(-210.411 -601.915)"/>
                <path id="Path_404" d="M251.574 629.559a4.27 4.27 0 0 0-.308-.36 1.345 1.345 0 0 0-.888-.376 1.291 1.291 0 0 0-.969.562 3.736 3.736 0 0 0-.484 1.053 3.119 3.119 0 0 1 .407-1.885 2.769 2.769 0 0 0-.665-.6c.121-.019.242-.037.367-.047a3.477 3.477 0 0 1 2.084.475c.158.389.313.781.456 1.178z" class="cls-5" transform="translate(-209.01 -617.155)"/>
                <path id="Path_405" d="M170.978 573.781a4.289 4.289 0 0 0-1.108 3.052 4.154 4.154 0 0 1-.58-1.434l-1.257 1.52a1.545 1.545 0 0 1 .286-1.313 10.272 10.272 0 0 1 1.861-2.274.331.331 0 0 0 .137-.216c0-.1-.094-.182-.182-.237a3.859 3.859 0 0 0-3.321-.363 2.074 2.074 0 0 1 3.337-.346c.171.191.329.428.58.483a.95.95 0 0 0 .362-.016c1.061-.185 2.019-.458 2.943.258a3.7 3.7 0 0 0-3.058.886z" class="cls-5" transform="translate(-142.736 -571.482)"/>
                <path id="Path_406" d="M128.92 593.967a3.223 3.223 0 0 0-1.62-1.267c-.195-.073-1.268-.378-1.269-.635a5.465 5.465 0 0 1 .194-1.748 1.849 1.849 0 0 1 1.168-1.232 1.476 1.476 0 0 0-1.4.076.331.331 0 0 1-.247.081c-.079-.021-.124-.1-.164-.171a2.174 2.174 0 0 0-1.376-1.017 4.2 4.2 0 0 1 1.068 3.736l-1.477.692a4.385 4.385 0 0 1-2.522.607 7.988 7.988 0 0 1-2.051-.968 4.823 4.823 0 0 0-3.044-.4 23.766 23.766 0 0 1 1.992-2.746 5.509 5.509 0 0 0-1.667 1.21c-.28.3-.526.626-.807.924a10.824 10.824 0 0 1-1.27 1.095l-2.91 2.257a.64.64 0 0 1-.261.144c-.254.048-.452-.2-.615-.4a2.8 2.8 0 0 0-2.735-.939 4.055 4.055 0 0 1 2.812 1.974 6.515 6.515 0 0 1 .832 3.407 1.442 1.442 0 0 1 1.738-1.129 1.648 1.648 0 0 0-.734-.506.729.729 0 0 1-.285-.135c-.152-.146-.109-.392-.1-.6a1.652 1.652 0 0 0-.445-1.228l1.954-1.741a3.8 3.8 0 0 0-.354 2.525 7.127 7.127 0 0 1 1.345-2.581 2.353 2.353 0 0 1 .642-.585 2.175 2.175 0 0 1 .988-.232 9.541 9.541 0 0 1 4.456 1.353 3.8 3.8 0 0 0-1.024 3.078 2.789 2.789 0 0 1 .885-1.55 11.447 11.447 0 0 1 2.171-1.616 5.326 5.326 0 0 1 2.661-.713 6.972 6.972 0 0 1 3.49.983c-.242-.14-.462-.608-.69-.809a1.855 1.855 0 0 0-.693-.358l-.136-.05z" class="cls-5" transform="translate(-95.042 -584.901)"/>
                <path id="Path_407" d="M125.04 579.509a3.97 3.97 0 0 1-.554 1.59 2.43 2.43 0 0 1-1.015 1.146c-.584.266-1.345.094-1.832.513a.929.929 0 0 1 1.079.9c-.009.269-.09.633.161.728a1.413 1.413 0 0 1 .5-1.424 15.526 15.526 0 0 0 1.221-1.033c.571-.664.723-1.648 1.4-2.2a2.38 2.38 0 0 1 .689-.376 4.053 4.053 0 0 1 3.618.432 2.607 2.607 0 0 0-2.14-1.439 3.973 3.973 0 0 0-2.547.734 2.4 2.4 0 0 0-1.1-.916 1.629 1.629 0 0 1 .52 1.345z" class="cls-5" transform="translate(-106.162 -576.884)"/>
                <path id="Path_408" d="M57.665 604.892a8.141 8.141 0 0 0-1.068 6.58 2.619 2.619 0 0 0 1.111 1.808 2.235 2.235 0 0 1-2.01-1.642 2.783 2.783 0 0 1-1.971 2.6 1.452 1.452 0 0 1-1.768-.62 1.76 1.76 0 0 0 2.034-.478 3.581 3.581 0 0 0 .792-2.064 1.174 1.174 0 0 1-1.136-.487.915.915 0 0 0 1.149-.236 2.266 2.266 0 0 0 .444-1.184 16.737 16.737 0 0 1 .348-2.234c.127-.435.317-.849.456-1.28a5.681 5.681 0 0 0-.618-4.74 2.782 2.782 0 0 1 1.469 3.193 3.854 3.854 0 0 1 4.18-1.2c.121.043.185.1.139.222a3.838 3.838 0 0 0-3.551 1.762z" class="cls-5" transform="translate(-49.745 -595.31)"/>
                <path id="Path_409" d="M52.835 611.578a1.89 1.89 0 0 0-.8 1.336c-.1.525-.1 1.068-.242 1.584a4.485 4.485 0 0 1-.746 1.391c-.034.05-.065.1-.1.143a3.991 3.991 0 0 0-.6 1.587 3.236 3.236 0 0 0 .034 1.494 2.079 2.079 0 0 1-.857-1.792c.053-.838.612-1.568.714-2.4a10.4 10.4 0 0 0-.391-2.538c-.006-.037-.009-.072-.012-.109.245-.338.466-.643.671-.984 0 .047.006.093.009.133a8.991 8.991 0 0 0 .541 2.33 4.075 4.075 0 0 1 .68-1.339 2.382 2.382 0 0 1 .422-.606.79.79 0 0 1 .677-.23z" class="cls-5" transform="translate(-47.774 -603.712)"/>
                <path id="Path_410" d="M42.089 638.485a1.778 1.778 0 0 1-1.022-.724 6.4 6.4 0 0 1-.73-1.1 8.617 8.617 0 0 1 .3-2.532 9.642 9.642 0 0 0 .019 1.556 4.208 4.208 0 0 0 1.433 2.8z" class="cls-5" transform="translate(-40.333 -622.207)"/>
                <path id="Path_411" d="M84.649 581.388a3.969 3.969 0 0 0 3.013.581 2.871 2.871 0 0 0-1.862 2.541 3.03 3.03 0 0 0-1.373-2.128 5.259 5.259 0 0 0-2.01-.624 20.466 20.466 0 0 0-2.224-.208c-.214-.009-.444-.009-.671-.037.05-.019.1-.037.149-.059a4.2 4.2 0 0 0 1.18-.839c.137.022.239.044.3.056a5.414 5.414 0 0 0 1.947.261 7.031 7.031 0 0 0 2.382-1.016 3.1 3.1 0 0 1 2.5-.4 2.155 2.155 0 0 0-1.671.9 2.358 2.358 0 0 1-1.66.972z" class="cls-5" transform="translate(-72.059 -577.883)"/>
                <path id="Path_412" d="M61.278 675.564a3.445 3.445 0 0 1-1.907 2.171 3.392 3.392 0 0 1-.727.174 12.754 12.754 0 0 1-1.3-1.156 5.452 5.452 0 0 0 1.084.248 4.128 4.128 0 0 0 2.85-1.437z" class="cls-5" transform="translate(-54.105 -655.752)"/>
            </g>
            <path id="Path_413" d="M161.221 596.968a13.924 13.924 0 0 1-.581 1.864c-.13.338-.264.677-.4 1.012-.084.2-.165.4-.252.606a5.872 5.872 0 0 1-.947 1.6 6.525 6.525 0 0 1-1.916 1.363 9.844 9.844 0 0 1-4.252 1.317c-1.842.043-3.588-.745-5.389-1.146-.081-.018-.161-.037-.242-.052a11.307 11.307 0 0 0-1.3-.187c-2.6-.249-5.262.239-7.893.363-.553.025-1.115.031-1.68.012-.168-.006-.339-.015-.506-.031a4.908 4.908 0 0 1 1.826-1.227 4.214 4.214 0 0 1 1.044-.108 10.016 10.016 0 0 0 7.228-3.091 6.32 6.32 0 0 0 1.093-2.448 3.433 3.433 0 0 0 3.209-.659 5.038 5.038 0 0 0 1.379-3.261 11.282 11.282 0 0 0-.034-2.609c-.115-.9-.739-1.7-.1-2.432a6.948 6.948 0 0 0 1.746-2.494 6.522 6.522 0 0 0 .065-3.588 10.88 10.88 0 0 0-2.2-4.069c.1.043.19.09.283.137a.015.015 0 0 1 .012.006 15.893 15.893 0 0 1 3.967 2.727 14.924 14.924 0 0 1 2.4 3.1c.261.435.5.876.733 1.326.4.771.755 1.559 1.09 2.352l.168.394c.158.388.314.78.457 1.177.261.7.5 1.42.689 2.14.075.282.143.562.2.845a11.708 11.708 0 0 1 .103 5.061z" class="cls-3" transform="translate(-117.679 -575.589)"/>
        </g>
    </g>
</svg>
