<svg width="18" height="22" viewBox="0 0 18 22" fill="none" xmlns="http://www.w3.org/2000/svg">
<path d="M7.5 12H5V9H7.5V6.5H10.5V9H13V12H10.5V14.5H7.5V12ZM9 1L1 4V10.09C1 15.14 4.41 19.85 9 21C13.59 19.85 17 15.14 17 10.09V4L9 1ZM15 10.09C15.0225 11.9987 14.4594 13.8684 13.3866 15.4472C12.3138 17.026 10.7828 18.2381 9 18.92C7.21634 18.2393 5.68456 17.0275 4.61156 15.4484C3.53857 13.8694 2.97605 11.999 3 10.09V5.39L9 3.14L15 5.39V10.09Z" fill="#07A18E" stroke="#07A18E" stroke-width="0.3"/>
</svg>
