<svg width="18" height="18" viewBox="0 0 18 18" fill="none" xmlns="http://www.w3.org/2000/svg">
<path d="M1.55399 5.25907C2.24723 3.87848 3.31075 2.71787 4.62567 1.90694C5.94059 1.09602 7.45512 0.666738 8.99999 0.66707C11.0692 0.642472 13.0674 1.42061 14.575 2.83807L12.186 5.22807C11.3296 4.40915 10.1847 3.96106 8.99999 3.98107C8.21288 3.99415 7.43995 4.19268 6.74397 4.56054C6.04799 4.92839 5.44857 5.4552 4.99438 6.09819C4.5402 6.74117 4.24406 7.48221 4.13001 8.26112C4.01596 9.04003 4.08722 9.83486 4.33799 10.5811C4.58004 11.3074 4.98481 11.9688 5.5214 12.5148C6.058 13.0608 6.71225 13.4771 7.43421 13.7318C8.15618 13.9864 8.92678 14.0728 9.68721 13.9843C10.4476 13.8958 11.1778 13.6347 11.822 13.2211C12.2548 12.9361 12.6253 12.5662 12.9112 12.134C13.197 11.7017 13.3922 11.2159 13.485 10.7061H8.99999V7.48507H16.848C16.9491 8.04609 17 8.61501 17 9.18507C17.0383 10.3232 16.8369 11.4566 16.4088 12.5118C15.9806 13.567 15.3354 14.5204 14.515 15.3101C13.0016 16.6621 11.0286 17.3844 8.99999 17.3291C7.57887 17.3284 6.18152 16.9644 4.94072 16.2716C3.69992 15.5788 2.6569 14.5802 1.91076 13.3707C1.16463 12.1612 0.740173 10.781 0.677728 9.36127C0.615284 7.94153 0.916926 6.5294 1.55399 5.25907Z" fill="#FE5F55"/>
</svg>
