<svg xmlns="http://www.w3.org/2000/svg" width="72" height="72" viewBox="0 0 72 72">
    <defs>
        <style>
            .cls-4,.cls-7{fill:#891f1f}.cls-4,.cls-9{opacity:.05}.cls-5{fill:#eaacac}.cls-6{fill:#d37f7f}.cls-7{opacity:.1}.cls-9{fill:#562222}
        </style>
    </defs>
    <g id="Digestion_small" transform="translate(-.129)">
        <g id="Group_22775">
            <g id="Digestion">
                <g id="Group_5378">
                    <g id="Group_5358">
                        <g id="Group_5218">
                            <g id="Group_5217">
                                <g id="Group_5194">
                                    <g id="Group_5192">
                                        <g id="Group_5185">
                                            <g id="Group_5174">
                                                <g id="Group_2519">
                                                    <rect id="AdobeStock_230057853" width="72" height="72" fill="#bbe8ff" rx="36" transform="translate(.129)"/>
                                                </g>
                                            </g>
                                        </g>
                                    </g>
                                </g>
                            </g>
                        </g>
                    </g>
                </g>
            </g>
            <g id="Group_5383" transform="translate(13.77 14.258)">
                <path id="Path_464" fill="#d89898" d="M462.569 416.612a9.232 9.232 0 0 0 1.455 1.31 2.6 2.6 0 0 0 2.336.135 8.094 8.094 0 0 0 1.771-1.368 7.054 7.054 0 0 1 4.548-1.63c.861.008 1.714.174 2.574.181a8.415 8.415 0 0 0 6.957-4.166 4.54 4.54 0 0 0 .641-1.5 5.84 5.84 0 0 0-.934-3.634 4.574 4.574 0 0 0-1.366-1.82 7.542 7.542 0 0 0-2.052-.713c-.622-.192-1.212-.487-1.849-.619a7.32 7.32 0 0 0-2.251 0 16.182 16.182 0 0 0-4.092.813c-1.467.56-2.764 1.521-4.26 2-1.922.612-4.028.38-5.967.936a2.035 2.035 0 0 0-.924.476 2.345 2.345 0 0 0-.431.745 13.557 13.557 0 0 0-1 2.987 4.564 4.564 0 0 0 .442 3.06 5.443 5.443 0 0 0 2.125 1.9c.412.22.647.122 1.084.211a2.628 2.628 0 0 1 1.193.696z" transform="translate(-448.294 -393.783)"/>
                <g id="Group_133" transform="translate(8.76 7.015)">
                    <g id="Group_132">
                        <path id="Path_465" fill="#e0a2a2" d="M479.481 391.112a5.1 5.1 0 0 0-1.053-2.324 34.7 34.7 0 0 0-4.589-5.209 8.851 8.851 0 0 0-2.008-1.493 9.736 9.736 0 0 0-2.3-.756 9.948 9.948 0 0 0-6.732.1l-.444.138a7.461 7.461 0 0 0-4.692 3.432 6.378 6.378 0 0 1-1.568 1.654 1.035 1.035 0 0 1-.913.142.969.969 0 0 1-.263-.61 6.458 6.458 0 0 1 .088-1.6l-3.417-.452a9.159 9.159 0 0 0-.084 2.529 4.252 4.252 0 0 0 1.663 2.934 3.65 3.65 0 0 0 .885.465 7.131 7.131 0 0 0-3.238 2.721l2.152 2.723c.812-1.293 3.309-2.871 4.787-2.495a9.56 9.56 0 0 1 3.348 2.077c.344.282.7.573 1.07.853a5.054 5.054 0 0 0 3.326 1.243 3.478 3.478 0 0 0 .437-.056 4.12 4.12 0 0 0 1.969-1.045c.105-.095.207-.192.3-.293a6.224 6.224 0 0 0 1.351-2.124 6.943 6.943 0 0 0 .144.76 4.52 4.52 0 0 0 1.213 2.236l.039.035a4.16 4.16 0 0 0 2.885 1.058 5.873 5.873 0 0 0 1.614-.237 5.138 5.138 0 0 0 1.947-1 6.337 6.337 0 0 0 1.786-3.154 5.229 5.229 0 0 0 .297-2.252zm-9.5-1.155a2.967 2.967 0 0 1 .155-.954.736.736 0 0 1 0 .121 4.18 4.18 0 0 1-.151.834zm-3.5 1.926a2.8 2.8 0 0 1-.308.9 2.749 2.749 0 0 1-.427.588 2.069 2.069 0 0 1-.155.153.9.9 0 0 1-.325.222s-.241.039-1.01-.545c-.323-.248-.644-.508-.984-.786a12.385 12.385 0 0 0-4.673-2.742 6.2 6.2 0 0 0-.629-.129 9.474 9.474 0 0 0 2.436-2.467 4.246 4.246 0 0 1 2.958-2.208l.461-.144a6.745 6.745 0 0 1 4.914-.035 6.966 6.966 0 0 1 1.516.47 2.617 2.617 0 0 1 .269.157 3.571 3.571 0 0 0-3.179 1.627 4.289 4.289 0 0 0-.468.933 6.407 6.407 0 0 0-.347 2.066c-.006.241 0 .487 0 .73v.7a3.844 3.844 0 0 1-.041.51zm9.4.47a3.591 3.591 0 0 1-.728 1.54 1.829 1.829 0 0 1-.666.31 1.5 1.5 0 0 1-1.2-.03 1.251 1.251 0 0 1-.252-.577 3.756 3.756 0 0 1-.1-.788 3.586 3.586 0 0 1 .065-.708c.045-.267.129-.562.215-.875a8.785 8.785 0 0 0 .371-1.919 4.469 4.469 0 0 0-.088-1.161q.8.885 1.514 1.829c.211.271.414.547.614.825a2.765 2.765 0 0 1 .44.765 2.817 2.817 0 0 1-.174.789z" transform="translate(-450.817 -380.809)"/>
                    </g>
                    <path id="Path_466" d="M611.04 532.062a2.4 2.4 0 0 0 .666-.114c-.1.1-.2.2-.3.293a4.119 4.119 0 0 1-1.969 1.045 3.474 3.474 0 0 1-.438.056l-.08-.049a2.174 2.174 0 0 1-.607-.545 2.844 2.844 0 0 1-.36-1.555c-.013-.342.09-1.532.732-1.237.469.216.547 1.441.6 1.881a.348.348 0 0 0 .045.162.335.335 0 0 0 .276.1q.714.015 1.435-.037z" class="cls-4" transform="translate(-594.312 -516.97)"/>
                    <path id="Path_467" d="M628.4 521.634a2.288 2.288 0 0 1-.244.295.518.518 0 0 1-.039-.035 4.518 4.518 0 0 1-1.213-2.236 6.907 6.907 0 0 1-.144-.76 6.151 6.151 0 0 1-.439.922c-.625-.149-1.269-.209-1.887-.379a3.04 3.04 0 0 1-1.48-.838 2.753 2.753 0 0 0 .427-.588 6.327 6.327 0 0 1 3.459.526 4.345 4.345 0 0 1 1.194.666 1.934 1.934 0 0 1 .7 1.146 1.805 1.805 0 0 1-.334 1.281z" class="cls-4" transform="translate(-608.015 -506.044)"/>
                    <path id="Path_468" d="M638.88 449.862a4.5 4.5 0 0 1 .088 1.161 8.785 8.785 0 0 1-.371 1.919c-.086.312-.17.608-.215.875a3.58 3.58 0 0 0-.052.711c-.035.013-.069.023-.1.034a8.034 8.034 0 0 1-2.551.2 6.567 6.567 0 0 1-1.234-.131 5.435 5.435 0 0 1-2.391-1.388c-.048-.049-.09-.1-.136-.155.009-.222.006-.457 0-.7s0-.489 0-.73a6.421 6.421 0 0 1 .347-2.066h.007c.185.08.079.34.06.5a1.851 1.851 0 0 0 .211 1.316 2.061 2.061 0 0 0 .327.345 3.488 3.488 0 0 0 1.391.864.227.227 0 0 0 .136.006.238.238 0 0 0 .11-.105 4.249 4.249 0 0 0 .7-2.488.246.246 0 0 1 .048-.192.234.234 0 0 1 .112-.045l.634-.136c.032.9-.435 1.8-.227 2.673a.544.544 0 0 0 .093.213.626.626 0 0 0 .278.17 1.431 1.431 0 0 0 1.329.058 1.177 1.177 0 0 0 .28-.321 3.362 3.362 0 0 0 .478-2.408 9.582 9.582 0 0 1-.228-1.144.6.6 0 0 1 .054-.321c.133-.23.476-.22.724-.123a2.332 2.332 0 0 1 1.218 1.212 4.508 4.508 0 0 1 .379 1.7c.006.108.011.213.011.323q-.717-.942-1.51-1.827z" class="cls-4" transform="translate(-616.2 -442.529)"/>
                    <path id="Path_469" d="M468.591 493.776a4.124 4.124 0 0 0-.936 2.467.862.862 0 0 0 .2.686c.265.239.686.111 1-.057a5.757 5.757 0 0 0 .971-.657 1.851 1.851 0 0 1 .433-.307.424.424 0 0 0 .135-.074.322.322 0 0 0 .07-.211 4.006 4.006 0 0 0-.074-1.119 3 3 0 0 0-.788-1.534 2.005 2.005 0 0 0-1.585-.6 1.583 1.583 0 0 0-.749.29c-.144.1-.518.415-.486.623.067.427 1.478.496 1.809.493z" class="cls-4" transform="translate(-465.397 -482.682)"/>
                    <path id="Path_470" d="M489.618 447.268a.778.778 0 0 0 .787.746 1.6 1.6 0 0 0 1.073-.5c.3-.275.547-.6.867-.849a.422.422 0 0 1 .212-.1.367.367 0 0 1 .281.135 1.081 1.081 0 0 1 .085 1.254 2.053 2.053 0 0 1-1.04.819 3.856 3.856 0 0 1-2.655.085 1.361 1.361 0 0 1-.742-.494 1.083 1.083 0 0 1-.152-.61 1.628 1.628 0 0 1 1.626-1.531c.3.011.631.275.312.5-.264.177-.618.072-.654.545z" class="cls-4" transform="translate(-485.078 -440.543)"/>
                </g>
                <g id="Group_136" transform="translate(9.058 9.192)">
                    <g id="Group_134">
                        <path id="Path_471" d="M479.923 410.4c-1-1.883-3.1-2.5-5.017-2.854a23.627 23.627 0 0 0-6.491-.506 10.141 10.141 0 0 0-6.467 2.863c-.228.239-.425.476-.617.707a3.818 3.818 0 0 1-.972.952 1.668 1.668 0 0 1-.6.14 5.713 5.713 0 0 1-.742 0 2.778 2.778 0 0 1-1.13-.241.678.678 0 0 1-.228-.672 1 1 0 0 1 .705-.631 4.865 4.865 0 0 1 .572-.078 5.858 5.858 0 0 0 1.553-.317 3.141 3.141 0 0 0 1.088-.7 2.855 2.855 0 0 0 .714-1.133 2.268 2.268 0 0 0-.291-2.03l-2.822 1.792a.854.854 0 0 1-.129-.728c.045-.138.1-.174.154-.2a3.833 3.833 0 0 1-.626.093 7.762 7.762 0 0 0-1.056.162 4.3 4.3 0 0 0-3.149 2.964 3.833 3.833 0 0 0 1.553 4.106 4.339 4.339 0 0 0 1.153.545 4.7 4.7 0 0 0 .468.123c.088.021.176.039.265.054a3.712 3.712 0 0 0-.24.291 5.163 5.163 0 0 0-.186 5.665 11.833 11.833 0 0 0 3.88 3.656l3.7 2.512 1.967-2.632-2-1.357-1.7-1.155a9.01 9.01 0 0 1-2.869-2.572 2.137 2.137 0 0 1-.032-2.24.724.724 0 0 1 .488-.278 1.04 1.04 0 0 1 .312.582 7.59 7.59 0 0 1 .161.946c.041.321.081.651.156 1a3.167 3.167 0 0 0 1.535 2.277 3.251 3.251 0 0 0 2.867.036 4.039 4.039 0 0 0 2.209-5.108 6.19 6.19 0 0 0-1.11-1.7 6.866 6.866 0 0 1-.45-.573 2.627 2.627 0 0 1-.3-.595 3.315 3.315 0 0 1 .651.743c.059.08.117.159.178.239a6.567 6.567 0 0 0 3.7 2.256 12.326 12.326 0 0 0 4.12.493 6.449 6.449 0 0 0 4.3-1.941 4.874 4.874 0 0 0 .543-.715 4.269 4.269 0 0 0 .232-4.241zm-3.324 2.835a3.087 3.087 0 0 1-2.026.845 9.03 9.03 0 0 1-2.926-.386 3.148 3.148 0 0 1-1.868-1.034l-.16-.213a5.079 5.079 0 0 0-2.288-1.95l.081-.019a9.059 9.059 0 0 1 1.332-.222 20.489 20.489 0 0 1 5.515.461 4.785 4.785 0 0 1 2.539.993.924.924 0 0 1 .1.151 1.308 1.308 0 0 1-.298 1.371zm-13.889.694c.027-.02.052-.039.077-.06l.027.134c0 .013.007.024.009.037s.011.049.018.073c-.066-.045-.131-.088-.2-.129zm2.019 4.44c-.027-.166-.05-.343-.072-.523-.032-.248-.066-.517-.115-.8a2.313 2.313 0 0 1 .341.53.872.872 0 0 1-.155.79z" class="cls-5" transform="translate(-454.247 -405.899)"/>
                    </g>
                    <path id="Path_472" d="M535.417 482.747a4.856 4.856 0 0 1-.543.715 6.449 6.449 0 0 1-4.3 1.941 12.326 12.326 0 0 1-4.12-.493 6.566 6.566 0 0 1-3.7-2.256l-.179-.239a3.323 3.323 0 0 0-.651-.743 2.643 2.643 0 0 0 .3.595 6.9 6.9 0 0 0 .45.573 6.2 6.2 0 0 1 1.11 1.7 4.039 4.039 0 0 1-2.209 5.108 3.248 3.248 0 0 1-2.867-.037 3.166 3.166 0 0 1-1.535-2.277c-.074-.351-.115-.681-.156-1a7.532 7.532 0 0 0-.161-.946 1.04 1.04 0 0 0-.312-.582.725.725 0 0 0-.489.278 2.137 2.137 0 0 0 .032 2.24 9.01 9.01 0 0 0 2.869 2.572l1.7 1.155a3.6 3.6 0 0 1-2.128-.913 25.038 25.038 0 0 1-2.116-1.986 3.371 3.371 0 0 1-1.128-2.757 1.836 1.836 0 0 1 .71-1.331 1.142 1.142 0 0 1 1.461.11 1.449 1.449 0 0 1 .208 1.112c-.063.566-.192 1.126-.2 1.7a2.318 2.318 0 0 0 .5 1.6 2.819 2.819 0 0 0 1.264.733 3.643 3.643 0 0 0 2.578.026 2.94 2.94 0 0 0 1.49-1.753 4.153 4.153 0 0 0-.6-3.811c-.662-.885-1.727-1.644-1.743-2.731a.545.545 0 0 1 .267-.539c.305-.125.59.2.764.47a9.105 9.105 0 0 0 5.829 3.951 8.608 8.608 0 0 0 6.907-1.616c.232-.194.458-.394.698-.569z" class="cls-4" transform="translate(-509.967 -474.005)"/>
                    <path id="Path_473" d="M506.561 447.42a4.786 4.786 0 0 0-2.539-.993 20.494 20.494 0 0 0-5.515-.461 9.067 9.067 0 0 0-1.332.222q-.132-.042-.264-.078a4.092 4.092 0 0 0-2.223.121 3.132 3.132 0 0 0-1.008.506 2.932 2.932 0 0 0-.961 1.887 10.319 10.319 0 0 0-.12 1.137l-.013-.013a1.384 1.384 0 0 0-.113-.11 1.932 1.932 0 0 0-.24-.187 2.932 2.932 0 0 0-1.519-.482 4.522 4.522 0 0 0-2.04.452 4.074 4.074 0 0 0-1.042.67c-.075.067-.2.237-.326.381a4.72 4.72 0 0 1-.468-.123 2.457 2.457 0 0 1 2.53-1.758c.678-.069 1.363-.026 2.046-.054a.955.955 0 0 0 .357-.062c.4-.177.362-.709.436-1.12a2.1 2.1 0 0 1 1.015-1.336 5.665 5.665 0 0 1 1.655-.608 11.754 11.754 0 0 1 3.642-.381c1.4.112 2.743.6 4.145.655.6.026 1.2-.028 1.8.022a2.723 2.723 0 0 1 1.639.616 1.41 1.41 0 0 1 .458 1.097z" class="cls-4" transform="translate(-484.01 -441.612)"/>
                    <g id="Group_135" transform="translate(8.223 7.012)">
                        <path id="Path_474" d="M549.359 487.829a1.294 1.294 0 0 0-.113-.11 1.927 1.927 0 0 0-.24-.187c.24.521.8 1.131.965 1.508a6.21 6.21 0 0 1 .538 2.3 2.766 2.766 0 0 0 .07.683.771.771 0 0 0 .437.517.73.73 0 0 0 .882-.459 1.179 1.179 0 0 0-.187-1.019 7.1 7.1 0 0 0-.717-.821 6 6 0 0 1-1.5-3.537 10.326 10.326 0 0 0-.12 1.137zm2.06 3.542a.871.871 0 0 1-.154.788c-.027-.166-.05-.342-.072-.523-.032-.248-.066-.517-.115-.8a2.307 2.307 0 0 1 .341.535z" class="cls-4" transform="translate(-549.007 -486.705)"/>
                    </g>
                    <path id="Path_475" d="M485.518 443.973a.677.677 0 0 0 .228.672 2.778 2.778 0 0 0 1.13.242 5.7 5.7 0 0 0 .742 0c-.02.013-.041.024-.061.034a3.221 3.221 0 0 1-1.965.1 1.225 1.225 0 0 1-.475-.142.887.887 0 0 1-.346-.666 1.068 1.068 0 0 1 .106-.685 1.249 1.249 0 0 1 .588-.452c1.23-.547 2.718-.306 3.959-.832h.011a3.143 3.143 0 0 1-1.088.7 5.846 5.846 0 0 1-1.553.316 4.968 4.968 0 0 0-.572.078 1 1 0 0 0-.704.635z" class="cls-4" transform="translate(-482.11 -439.089)"/>
                </g>
                <path id="Path_476" d="M362.033 343.832a2.224 2.224 0 0 1-1.112 1.909c-.591.346-1.338.443-1.887.836-.024.016-.047.034-.069.051a2.223 2.223 0 0 0-.194.175 2.56 2.56 0 0 0-.172.2 3.164 3.164 0 0 0-.207.291 4.863 4.863 0 0 1-.776 1.033 2.959 2.959 0 0 1-1.286.6 5.14 5.14 0 0 1-4.319-.9 3.613 3.613 0 0 1-1.258-3.825c.147-.455.392-.944.175-1.373a3.177 3.177 0 0 0-.6-.638 2.51 2.51 0 0 1-.039-2.829 1.055 1.055 0 0 0 .162-.575 1.307 1.307 0 0 0-.241-.484 2.215 2.215 0 0 1 .138-2.5 2.206 2.206 0 0 0 .56-.86c.065-.36-.159-.707-.207-1.069-.093-.72.508-1.336.894-1.969a1.03 1.03 0 0 0 .192-.551c-.009-.35-.321-.632-.431-.968-.2-.633.336-1.287.276-1.946a3.616 3.616 0 0 0-.187-.691 3.7 3.7 0 0 1 1.424-3.479 1.638 1.638 0 0 1 .22-.114 1.507 1.507 0 0 1 1.138-.033.483.483 0 0 1 .052.018c.756.289 1.051 1.2 1.463 1.885a2.608 2.608 0 0 0 .278.39 19.578 19.578 0 0 0 2.217 1.914 6.588 6.588 0 0 1 2.1 2.717 3.507 3.507 0 0 1 .2 1.082 3.231 3.231 0 0 1-.058.675 1.019 1.019 0 0 1-.024.114 2.775 2.775 0 0 1-.3.759 2.562 2.562 0 0 1-.407.535c-.2.2-.45.447-.336.695a.844.844 0 0 0 .2.23 1.318 1.318 0 0 1 .118 1.759c-.187.228-.47.447-.433.73a.8.8 0 0 0 .213.38 2.739 2.739 0 0 1 .8 2.646 1.281 1.281 0 0 0-.157.476c0 .366.429.58.756.789a2.383 2.383 0 0 1 1.124 1.915z" class="cls-6" transform="translate(-349.867 -321.935)"/>
                <path id="Path_477" d="M449.162 582.372a2.654 2.654 0 0 0-.825-.365 3.476 3.476 0 0 1-1.1-.4.511.511 0 0 0-.623-.068.2.2 0 0 0-.074.054.146.146 0 0 0-.022.1 1.443 1.443 0 0 1 .025.212.758.758 0 0 0-.026.229.476.476 0 0 0 .087.229.605.605 0 0 0 .151.117 2.661 2.661 0 0 0 .8.348 1.873 1.873 0 0 1 .752.285c.484.39.319 1.146.7 1.619a1.8 1.8 0 0 0 .62.431c.155.077.409.312.588.309.308 0-.02-.552-.113-.664a2.081 2.081 0 0 1-.47-.614c-.1-.307.07-.63.059-.949a1.171 1.171 0 0 0-.529-.873z" class="cls-5" transform="translate(-438.126 -557.038)"/>
                <path id="Path_478" d="M591.318 366.331a1.388 1.388 0 0 0-.356.608 1.182 1.182 0 0 0 .164.559 2.211 2.211 0 0 1-.543 2.446 1.024 1.024 0 0 1 .676.992 2.317 2.317 0 0 1-.424 1.175 1.084 1.084 0 0 0-.239.689 2.7 2.7 0 0 0 .189.474 1.59 1.59 0 0 1 .035.7q-.084.886-.173 1.769a5.21 5.21 0 0 1-.245 1.322 5.525 5.525 0 0 1-2.874 2.575c-.508.262-1.023.513-1.549.748a5.559 5.559 0 0 1-3.54.612 2.415 2.415 0 0 0-.674-.128 2.54 2.54 0 0 0-.78.246 5.055 5.055 0 0 1-3.4-.392 1.63 1.63 0 0 1-.442.533 2.028 2.028 0 0 1-.915.405 1.93 1.93 0 0 1-.62.008c.017 0 .036.055.054.138.024.1.045.244.067.4a6.313 6.313 0 0 1 .063.9c-.082.512-.575.891-.577 1.433a2.622 2.622 0 0 0 .25.872 4.618 4.618 0 0 1-.235 3.166c-.384 1.019-.924 1.987-1.213 3.032a21.574 21.574 0 0 0-.418 2.341.707.707 0 0 1-.187.441.61.61 0 0 1-.368.132 1.64 1.64 0 0 1-.218 0 5.883 5.883 0 0 1-1.435-.236 1.08 1.08 0 0 1-.274-.11.4.4 0 0 1-.134-.122.743.743 0 0 1-.039-.525c.192-1.444-.978-2.694-1.805-3.937a4.767 4.767 0 0 1-1.049-2.489c0-.984.411-2.019.136-2.989-.142-.5-.474-.935-.666-1.419a1.277 1.277 0 0 1 .2-1.446c.142-.122.332-.212.4-.38a.718.718 0 0 0-.073-.5 3.006 3.006 0 0 1 .05-2.1l.019-.049a4.093 4.093 0 0 1 .506-.919 4.34 4.34 0 0 1 .532-.608 4.017 4.017 0 0 1 .319-.277 7.15 7.15 0 0 1 2.689-1.252c.263-.067.53-.124.8-.173.319-.057.638-.1.957-.14l.276-.031a2.774 2.774 0 0 0 .407-.077 1.444 1.444 0 0 0 .2-.067 3.61 3.61 0 0 0 .5-.283c.03-.02.06-.037.09-.055a3.477 3.477 0 0 1 3.41 0 3.9 3.9 0 0 1 1.6-.809c.295-.122.357-.053.538-.291.1-.136-.086-.331.138-.466.185-.114.487-.037.616-.2a.761.761 0 0 1-.437-.826.885.885 0 0 1 .722-.62 1.344 1.344 0 0 1-.009-1.69c.043-.045.093-.1.086-.157s-.06-.1-.105-.14a.945.945 0 0 1-.108-.734c.067-.563.3-1.208.409-1.143a1.219 1.219 0 0 1-.539-.775 1.016 1.016 0 0 1-.024-.112 5.941 5.941 0 0 1 .373-2.865 3.943 3.943 0 0 1 .691-1.2c.38-.427.765-.858 1.17-1.267a9.271 9.271 0 0 1 2.471-1.877 5.439 5.439 0 0 1 1.107-.407 3.823 3.823 0 0 1 1.286-.1 2.942 2.942 0 0 1 .325.053 2.72 2.72 0 0 1 1 .433 1.912 1.912 0 0 1 .649.74 1.525 1.525 0 0 1-.644 1.991 1.508 1.508 0 0 1 .717 1.588.954.954 0 0 0-.052.488 1.025 1.025 0 0 0 .31.378 1.556 1.556 0 0 1 .186 1.996z" class="cls-6" transform="translate(-548.554 -353.557)"/>
                <path id="Path_479" d="M601.89 367.084a1.39 1.39 0 0 0-.355.608 1.182 1.182 0 0 0 .164.559 2.21 2.21 0 0 1-.543 2.446 1.024 1.024 0 0 1 .677.992 2.315 2.315 0 0 1-.424 1.175 1.083 1.083 0 0 0-.239.689 2.711 2.711 0 0 0 .19.474 1.59 1.59 0 0 1 .034.7q-.084.885-.172 1.769a5.217 5.217 0 0 1-.245 1.322 5.524 5.524 0 0 1-2.874 2.576c-.508.262-1.023.513-1.549.748a5.562 5.562 0 0 1-3.539.612 2.406 2.406 0 0 0-.674-.128 2.537 2.537 0 0 0-.78.246 5.056 5.056 0 0 1-3.4-.391 1.939 1.939 0 0 1-1.978.946c.017 0 .036.055.054.138-.282-.1-.569-.189-.862-.262a10.016 10.016 0 0 1-1.568-.421 1.619 1.619 0 0 1-1.029-1.088c-1.021-.043-2.15.193-2.988-.337a1.767 1.767 0 0 1-.551-2.392 4.482 4.482 0 0 1 .851-.886 7.145 7.145 0 0 1 2.688-1.251 4.548 4.548 0 0 0-1.129 1.43 1.669 1.669 0 0 0 .155 1.824c.659.736 1.907.616 2.93.427-.33.74.513 1.58 1.387 1.592a2.807 2.807 0 0 0 2.146-1.2 3.484 3.484 0 0 0 4.362.472 3.726 3.726 0 0 0 2.958.451 3.343 3.343 0 0 0 2.195-1.862c1.31-.157 2.03-1.468 2.329-2.642a4.129 4.129 0 0 0-.267-3.3 1.452 1.452 0 0 0 .761-1.517 1.578 1.578 0 0 0-1.3-1.175 1.73 1.73 0 0 0 1.5-1.192 1.556 1.556 0 0 0-.728-1.688 1.929 1.929 0 0 0 1.217-1.187.928.928 0 0 0-1-1.092c.653-.126.345-1.684.161-2-.166-.283-.592-.512-.636-.821s.349-.748.354-1.114a17.246 17.246 0 0 0-.439-1.85 2.721 2.721 0 0 1 .995.433 1.909 1.909 0 0 1 .648.74 1.525 1.525 0 0 1-.644 1.991 1.507 1.507 0 0 1 .717 1.588.957.957 0 0 0-.052.488 1.026 1.026 0 0 0 .31.378 1.556 1.556 0 0 1 .182 1.982z" class="cls-7" transform="translate(-559.125 -354.309)"/>
                <g id="Group_137" opacity="0.1" transform="translate(28.59 9.959)">
                    <path id="Path_480" d="M679.33 425.115a3.389 3.389 0 0 1 1.7.449 3.9 3.9 0 0 1 1.6-.809c.3-.122.358-.053.539-.291.1-.136-.086-.33.138-.466.185-.114.487-.037.616-.2a.761.761 0 0 1-.437-.827.884.884 0 0 1 .721-.62 1.344 1.344 0 0 1-.008-1.69c.043-.045.093-.1.086-.158s-.06-.1-.106-.14a.944.944 0 0 1-.108-.734c.067-.563.3-1.208.409-1.143a1.219 1.219 0 0 1-.538-.775 1.056 1.056 0 0 1-.024-.112 5.942 5.942 0 0 1 .373-2.865 3.06 3.06 0 0 1 .539.195 1.294 1.294 0 0 1 .838.97c.024.4-.28.755-.377 1.147a1.246 1.246 0 0 1-.233 2.33 1.127 1.127 0 0 1-.286 2.08 1.112 1.112 0 0 0 .573 1.09.711.711 0 1 0-.293 1.391 2.348 2.348 0 0 0-.935.321.665.665 0 0 0-.278.812 7.881 7.881 0 0 0-2.96 1.346 2.73 2.73 0 0 0-1.549-1.301z" class="cls-4" transform="translate(-679.33 -414.73)"/>
                </g>
                <path id="Path_481" d="M647.205 366.484a2.364 2.364 0 0 0-1.041.52.681.681 0 0 0-.028.986 2.555 2.555 0 0 0-1.689 1.484 2.232 2.232 0 0 0 .3 2.119 3.1 3.1 0 0 0-2.74-.275 2.668 2.668 0 0 0-1.681 2 4.7 4.7 0 0 0-1.932-1.1 2.089 2.089 0 0 0-2.075.566c-.1.13-.2.289-.366.325-.321.069-.489-.321-.631-.594a1.574 1.574 0 0 0-2.12-.5 2.711 2.711 0 0 0 .039-1.116 1.049 1.049 0 0 0-.771-.8c-.312-.061-.75-.01-.849-.289a.267.267 0 0 1-.013-.1c.319-.057.638-.1.956-.14l.276-.031a2.793 2.793 0 0 0 .407-.077 1.462 1.462 0 0 0 .2-.067 3.623 3.623 0 0 0 .5-.283 2.445 2.445 0 0 0 2.1 1.192c.489 0 .965-.142 1.452-.159.618-.024 1.234.15 1.853.1s1.288-.445 1.267-1.009a2.37 2.37 0 0 0 1.744-.539c.27-.232.405-.74.048-.836a1.632 1.632 0 0 0 1.187-.787c.177-.433-.254-1.035-.737-.89a2.7 2.7 0 0 0 .62-1.1.918.918 0 0 0-.532-1.049 2.276 2.276 0 0 0 .791-1.057 1.127 1.127 0 0 0-.325-1.2 1.623 1.623 0 0 0-.334-2.111 1.423 1.423 0 0 0 .353-1.348 7.316 7.316 0 0 0-.526-1.358 4.676 4.676 0 0 1-.338-1.2 2.789 2.789 0 0 1 .34-1.875 2.183 2.183 0 0 1 2.953-.7 1.5 1.5 0 0 1 .285.289 1.9 1.9 0 0 1 .317 1.472 3.751 3.751 0 0 1-.646 1.423 3.306 3.306 0 0 0-.192 1.55 1.631 1.631 0 0 0 1.48 1.389 1 1 0 1 0-.185 1.973 1.154 1.154 0 0 0-.836 1.181 3 3 0 0 0 .894 1.6.985.985 0 0 0-1.137 1.139 2.092 2.092 0 0 0 1.362 1.282z" class="cls-7" transform="translate(-607.161 -348.265)"/>
                <path id="Path_482" d="M658.548 399.432a.519.519 0 0 1 .134.3c-.006.126-.125.221-.2.329-.218.327-.013.777-.2 1.119a1.346 1.346 0 0 1-.427.4 6.178 6.178 0 0 0-1.926 2.259 4.28 4.28 0 0 0-3.029 1.082 2.962 2.962 0 0 0-2.135-.185 8.494 8.494 0 0 0-1.98.876 3.488 3.488 0 0 0-1.484-1.09.994.994 0 0 1-.429-.242 1.546 1.546 0 0 1-.162-.374c-.125-.285-.428-.464-.67-.681a1.2 1.2 0 0 1-.226-.273 2.777 2.777 0 0 0 .407-.077 5.49 5.49 0 0 0 1.48 1.153 2.59 2.59 0 0 0 2.5-.008 4.388 4.388 0 0 0 3.363-.138c.293-.14.6-.362.6-.663.674.057 1.5.047 1.842-.488.08-.124.121-.268.207-.388a2.245 2.245 0 0 1 .338-.335 1.843 1.843 0 0 0 .582-1.606 2.927 2.927 0 0 1-.073-.543 2.4 2.4 0 0 1 .216-.689 2.228 2.228 0 0 0-.11-1.745 1.387 1.387 0 0 0 .442-1.765 1.6 1.6 0 0 1-.246-.506 1.275 1.275 0 0 1 .1-.529 1.926 1.926 0 0 0-.271-1.6 2.5 2.5 0 0 0 .31-2.031c-.2-.441-.857-.738-.366-1.3a.81.81 0 0 1 1.152 0c.379.464-.073 1.1-.078 1.682 0 .535.388 1.068.2 1.574-.067.181-.2.346-.2.535.011.267.306.458.364.72a1.107 1.107 0 0 1-.123.594 2.015 2.015 0 0 0 .151 1.643.98.98 0 0 1 .17.4.817.817 0 0 1-.1.376 2.308 2.308 0 0 0-.123 2.214z" class="cls-5" transform="translate(-620.135 -381.677)"/>
                <path id="Path_483" d="M676.256 409.235a3.817 3.817 0 0 0-.473-.417 3.334 3.334 0 0 0 .617.059 2.783 2.783 0 0 0 .872-.135 10.546 10.546 0 0 0-1.016.493zm1.24-.579c.042-.019.084-.039.125-.06l.025.008zm7.339-3.158a2.109 2.109 0 0 0 .095-1.011c-.009-.06-.021-.124-.033-.187a1.25 1.25 0 0 1-.036-.284 1.307 1.307 0 0 1 .12-.4c.026-.061.051-.123.073-.185a2.589 2.589 0 0 0-.01-1.767 1.809 1.809 0 0 0 .5-1.012c.016.032.033.063.051.094l.034.059a.668.668 0 0 1 .089.184.659.659 0 0 1-.068.2 2.736 2.736 0 0 0-.1 2.59l.046.068-.016.02c-.033.04-.066.081-.095.123a1.319 1.319 0 0 0-.176.784.859.859 0 0 1-.043.367.918.918 0 0 1-.258.232l-.052.038zm.439-6.024a.79.79 0 0 1-.115-.23.749.749 0 0 1 .057-.27l.033-.106a2.228 2.228 0 0 0 .081-.76c.027.041.055.08.081.115a.745.745 0 0 1 .116.19.694.694 0 0 1-.072.291l-.039.1a2.359 2.359 0 0 0-.129.688zm-.1-2.056a2.443 2.443 0 0 0-.127-.269 3.894 3.894 0 0 0 .28-.763.946.946 0 0 1 .044.566 1.169 1.169 0 0 1-.064.136 1.418 1.418 0 0 0-.132.33zm.066-2.5a2.247 2.247 0 0 0-.284-.393c-.253-.3-.239-.315-.114-.459a.34.34 0 0 1 .251-.093.284.284 0 0 1 .219.08c.114.14.063.367-.034.724l-.037.145z" class="cls-4" transform="translate(-647.501 -385.819)"/>
                <path id="Path_484" d="M740.114 359.154c-.049 1-.48 1.871-1.7 1.93a1.418 1.418 0 0 0-.629.1 1.059 1.059 0 0 0-.37.509 3.7 3.7 0 0 1-1.7 1.678 2.7 2.7 0 0 0-.825.486 2.043 2.043 0 0 0-.31.515 4 4 0 0 1-1.463 1.682 3.146 3.146 0 0 1-1.4.439 1.143 1.143 0 0 1-.024-.112 5.688 5.688 0 0 1 1.064-4.065 12.463 12.463 0 0 1 3.641-3.144 4.455 4.455 0 0 1 2.394-.5 2.8 2.8 0 0 1 1.322.482z" class="cls-9" transform="translate(-698.517 -353.557)"/>
                <path id="Path_485" d="M420.177 404.5a2.223 2.223 0 0 1-1.112 1.909c-.59.346-1.338.443-1.887.836-.023.016-.047.033-.069.051a2.085 2.085 0 0 0-.366.376 5.752 5.752 0 0 1-1.155-1.407 15.281 15.281 0 0 1-1.779-4.024 5.012 5.012 0 0 1-.233-1.787c.045-.472.2-.932.237-1.4a5.97 5.97 0 0 0-.049-1.057 50.738 50.738 0 0 1-.224-5.665 2.406 2.406 0 0 1 .31-1.4 1.054 1.054 0 0 1 1.361-.336.666.666 0 0 1 .274.435 1.641 1.641 0 0 1-.328.923 2.729 2.729 0 0 0 .076 2.664 1.67 1.67 0 0 1 .235.462c.088.374-.17.732-.336 1.082a2.388 2.388 0 0 0 0 2.032 1.545 1.545 0 0 1 .2.541 1.194 1.194 0 0 1-.174.572c-.409.811-.79 1.795-.267 2.548.263.378.735.647.849 1.082a1.717 1.717 0 0 1 0 .62 3.086 3.086 0 0 0 .329 1.93 1.923 1.923 0 0 0 1.769.939 1.707 1.707 0 0 0 1.31-.911 1.981 1.981 0 0 0 .067-1.533 2.854 2.854 0 0 0-2.033-1.773 2.014 2.014 0 0 0 .431-1.95 6.681 6.681 0 0 0-.952-1.869.388.388 0 0 1-.071-.161c-.019-.159.149-.275.282-.38a1.5 1.5 0 0 0 .108-2.253c-.5-.458.3-.915.493-1.413.136-.356.046-.893.263-1.21a.6.6 0 0 1 .933-.177 3.225 3.225 0 0 1-.058.675.991.991 0 0 1-.024.114 2.777 2.777 0 0 1-.3.76 2.555 2.555 0 0 1-.407.535c-.2.2-.45.447-.336.695a.842.842 0 0 0 .2.23 1.318 1.318 0 0 1 .118 1.759c-.187.228-.47.447-.433.73a.8.8 0 0 0 .213.38 2.739 2.739 0 0 1 .8 2.646 1.286 1.286 0 0 0-.157.476c0 .366.429.58.756.789a2.381 2.381 0 0 1 1.136 1.915z" class="cls-7" transform="translate(-408.011 -382.609)"/>
                <path id="Path_486" d="M358.771 348.157a2.543 2.543 0 0 0-.172.2 3.188 3.188 0 0 0-.207.291 4.856 4.856 0 0 1-.776 1.033 2.957 2.957 0 0 1-1.286.6 5.139 5.139 0 0 1-4.319-.9 3.613 3.613 0 0 1-1.258-3.825c.147-.454.392-.944.175-1.373a3.185 3.185 0 0 0-.6-.638 2.51 2.51 0 0 1-.039-2.829 1.055 1.055 0 0 0 .162-.575 1.309 1.309 0 0 0-.241-.484 2.215 2.215 0 0 1 .138-2.5 2.205 2.205 0 0 0 .56-.86c.065-.36-.159-.706-.207-1.069-.093-.72.508-1.336.894-1.969a1.03 1.03 0 0 0 .192-.551c-.009-.35-.321-.631-.431-.968-.2-.634.336-1.287.276-1.946a3.619 3.619 0 0 0-.187-.691 3.7 3.7 0 0 1 1.424-3.479 1.634 1.634 0 0 1 .22-.114.462.462 0 0 1 .112.1.641.641 0 0 1-.148.826c-.22.226-.517.386-.719.624l.448-.583a1.879 1.879 0 0 0 .043 3.219 3.949 3.949 0 0 0-.782.832 1.216 1.216 0 0 0-.17 1.057c.127.339.446.589.609.913a.265.265 0 0 1 .039.159.327.327 0 0 1-.125.183c-.913.868-2.152 3.129 0 3.453-.155.374-.6.555-.95.8a1.683 1.683 0 0 0-.78 1.582 1.346 1.346 0 0 0 1.37 1.082 2.9 2.9 0 0 0-1.312 2.469 1.847 1.847 0 0 0 2.152 1.558 3.317 3.317 0 0 0-1.086 3.808 3.856 3.856 0 0 0 3.555 2.223c.846-.01 1.844-.488 1.8-1.261a1.641 1.641 0 0 0-.248-.681 13.4 13.4 0 0 0-3.559-4.083 2.7 2.7 0 0 0-.028-3.963 1.847 1.847 0 0 0 1.1-1.8 4.262 4.262 0 0 0-.773-2.048 4.048 4.048 0 0 0 .642-1.729 1.7 1.7 0 0 0-.784-1.6 1.993 1.993 0 0 0 1.2-2.633.569.569 0 0 1-.086-.289.364.364 0 0 1 .181-.254.9.9 0 0 1 1.066.179 1.42 1.42 0 0 1 .336 1.013 16.915 16.915 0 0 1-.7 2.839 8.189 8.189 0 0 0-.088 1.657q.029 2.361.062 4.724a16.148 16.148 0 0 0 .2 2.774 10.5 10.5 0 0 0 2.583 4.915c.169.188.351.383.522.582z" class="cls-7" transform="translate(-349.867 -323.289)"/>
                <path id="Path_487" d="M409.554 382.695c-.024.016-.048.033-.069.051a2.669 2.669 0 0 0-.573.667 3.275 3.275 0 0 1-1.286-1.3q-1.112-1.738-2.227-3.475a.519.519 0 0 1-.073-.145.582.582 0 0 1 .114-.413 3.4 3.4 0 0 0-.039-3.314 3.166 3.166 0 0 0 .116-3.252 1.416 1.416 0 0 1-.317-.925 2.591 2.591 0 0 1 .31-.579c.4-.763-.207-1.688.035-2.507a6.448 6.448 0 0 1 .558-1.027 2.156 2.156 0 0 0 .106-1.671c-.108-.315-.668-1.049-.019-1.218a.732.732 0 0 1 .786.4 1.747 1.747 0 0 1 .112.881l-.045 1.017a7.358 7.358 0 0 1-.3 2.1c-.228.665-.635 1.421-.217 2 .185.256.517.443.571.744s-.209.586-.383.86a1.708 1.708 0 0 0 .095 1.938 1.006 1.006 0 0 1 .278.482.88.88 0 0 1-.222.523 2.873 2.873 0 0 0 .14 3.321 1.808 1.808 0 0 1 .381.6 1.643 1.643 0 0 1 .022.447c-.023 1.469 1.047 2.726 2.146 3.795z" class="cls-5" transform="translate(-400.387 -358.054)"/>
                <path id="Path_488" d="M413.323 387.009a3.908 3.908 0 0 1-.789-.95q-.835-1.307-1.674-2.613l-.574-.895a1.089 1.089 0 0 1 .068-.138 3.768 3.768 0 0 0 .374-1 3.165 3.165 0 0 0 .464.822c.028.036.058.074.089.111a1.11 1.11 0 0 1 .224.347.977.977 0 0 1 .012.257v.094a5.537 5.537 0 0 0 1.974 3.772c-.062.066-.117.13-.168.193zm-2.7-7.608a3.725 3.725 0 0 0-.2-.48 3.522 3.522 0 0 0 .418-1.24 2.079 2.079 0 0 0 .153.228l.064.08a.734.734 0 0 1 .137.205.684.684 0 0 1-.124.235l-.037.056a3.121 3.121 0 0 0-.412.915zm.047-3.414a3.4 3.4 0 0 0-.232-.509c-.023-.042-.047-.082-.071-.122a.974.974 0 0 1-.206-.548.927.927 0 0 1 .136-.254 2.567 2.567 0 0 0 .14-.231 1.5 1.5 0 0 0 .107-.262 1.324 1.324 0 0 0 .16.295 2.427 2.427 0 0 0 .28.308c.11.107.213.208.227.284.018.1-.095.259-.2.414-.044.062-.087.123-.126.185a2.03 2.03 0 0 0-.216.44zm-.138-3.231a2.32 2.32 0 0 1-.034-1.006 2.287 2.287 0 0 1 .29-.552 4.778 4.778 0 0 0 .243-.412c.033-.065.063-.132.089-.2a5.469 5.469 0 0 1-.249 1.431c-.035.1-.075.208-.115.315-.068.18-.141.374-.2.574l-.025-.15zm.664-3.8c-.012-.042-.025-.084-.039-.125a2.453 2.453 0 0 0-.13-.287 1.958 1.958 0 0 1-.177-.435h.016a.353.353 0 0 1 .255.193 1.371 1.371 0 0 1 .079.656z" class="cls-4" transform="translate(-404.923 -362.195)"/>
                <path id="Path_489" fill="#562222" d="M384.105 326.877a6.59 6.59 0 0 0-2.1-2.717 19.552 19.552 0 0 1-2.217-1.914 2.587 2.587 0 0 1-.278-.39 5.576 5.576 0 0 1-1.484-1.834.7.7 0 0 1-.03-.069.846.846 0 0 0-.371-.454c-.334-.146-.687.163-.987.6a4.817 4.817 0 0 0-.735 1.7 2.125 2.125 0 0 0 .188 1.09 2.539 2.539 0 0 0 1.176.974 8.477 8.477 0 0 0 1.31.516 2.446 2.446 0 0 1 .674.265c1.252.836.114 2.94 2.027 3.457.756.2 1.37-.081 2 .488a4.5 4.5 0 0 1 .622.883l.026.035a2.778 2.778 0 0 0 .295-.76s-.017-.089.024-.114a3.37 3.37 0 0 0-.14-1.756z" opacity="0.1" transform="translate(-373.643 -317.771)"/>
                <path id="Path_490" fill="#e29393" d="M422.078 306.138a2.987 2.987 0 0 1-1.476.748 2.28 2.28 0 0 1-1.1.039.393.393 0 0 0-.177-.024c-.142.031-.164.2-.164.335a2.375 2.375 0 0 1-.732 1.655 2.828 2.828 0 0 1-1.768.761c-.457.028-.427.683-.554 1.007a2.943 2.943 0 0 1-.987 1.375 3.752 3.752 0 0 1-2.815.433.438.438 0 0 0-.226 0 .393.393 0 0 0-.2.234 3.263 3.263 0 0 1-.711 1.007 4.268 4.268 0 0 1-4.009.665c-.6-.171-.709-.022-1.15.246a3.587 3.587 0 0 1-1.609.352 4.6 4.6 0 0 1-1.586-.226 10.753 10.753 0 0 1-1.295-.714 4.07 4.07 0 0 1-2.807.5 3.8 3.8 0 0 1-2.365-1.47.649.649 0 0 0-.222-.226c-.351-.169-.888.307-1.273.319a3.41 3.41 0 0 1-1.42-.407 3.992 3.992 0 0 1-1.943-1.9c-.146-.323-.278-.7-.627-.844a1.782 1.782 0 0 0-.648-.071 2.843 2.843 0 0 1-2.835-3.262.279.279 0 0 0-.069-.272.34.34 0 0 0-.175-.043 3.652 3.652 0 0 1-2.977-1.519 2.8 2.8 0 0 1-.3-1.122 4.113 4.113 0 0 1-.009-.565 2.234 2.234 0 0 1 1.779-2.355c.032-.006.067-.01.1-.014a1.562 1.562 0 0 1 .373.008c.271.032.538.108.814.134a1.431 1.431 0 0 0 .577-.057.237.237 0 0 1 .032-.01 1.3 1.3 0 0 0 .233-.11.164.164 0 0 0 .026-.014c.284-.163.521-.4.8-.561l.026-.014a1.538 1.538 0 0 1 .289-.122 4.769 4.769 0 0 1 1.637.016 2.793 2.793 0 0 1 2.518 2.019.768.768 0 0 0 .136.437c.159.175.448.159.7.163a2.482 2.482 0 0 1 1.674.7 1.6 1.6 0 0 1 .418 1.653 5.152 5.152 0 0 1 1.174-.191 2.487 2.487 0 0 1 .827.077 2.868 2.868 0 0 1 1.456 1.381 4.35 4.35 0 0 1 1.278-.533 2.283 2.283 0 0 1 1.3.154 2.307 2.307 0 0 1 .6.376c.11.1.315.484.427.523.172.059 1.04-.49 1.325-.555a3.234 3.234 0 0 1 1.557.031 1.407 1.407 0 0 0 .9.09 2.056 2.056 0 0 0 .407-.307 1.667 1.667 0 0 1 1.536-.11.6.6 0 0 0 .388.057c.116-.041.179-.153.246-.25a1.639 1.639 0 0 1 1.055-.665 3.126 3.126 0 0 0 1.189-.228c.362-.236.426-.7.67-1.041a2.081 2.081 0 0 1 1.226-.7c.6-.148.605-.6.875-1.059a3.5 3.5 0 0 1 3.044-1.3 2.693 2.693 0 0 1 1.7.433 2.435 2.435 0 0 1 .605.832l.116.226.032.065a.077.077 0 0 1 .008.018c.024.039.043.079.065.116a2.27 2.27 0 0 0 .4.547 1.14 1.14 0 0 0 .159.136 1.312 1.312 0 0 0 .144.093c.069.039.14.077.213.11.114.055.231.108.343.165 1.043.534 1.769 1.653.832 2.625z" transform="translate(-380.897 -299.969)"/>
                <path id="Path_491" fill="#891f1f" d="M444.678 311.525c-.362.122-.765.183-1.137.281a4.576 4.576 0 0 0-1.411.643 1.966 1.966 0 0 0-.623.616.857.857 0 0 0-.052.815 2.947 2.947 0 0 0-1.749.592 3.4 3.4 0 0 0-.651.6c-.047.057-.429.679-.429.687a4.056 4.056 0 0 0-4.041 2.1 7.749 7.749 0 0 0-2.5.073 3.447 3.447 0 0 0-2.049 1.234 3.09 3.09 0 0 0-2.225-.828 3.143 3.143 0 0 0-1.995.828c-.379.34-.315.012-.463-.323a1.54 1.54 0 0 0-.677-.706 3.325 3.325 0 0 0-1.719-.291 4.315 4.315 0 0 0-2.9 1.09 2.3 2.3 0 0 0 .084-1.44 2.132 2.132 0 0 0-1.568-1.09 5.114 5.114 0 0 0-2.561.063 1.762 1.762 0 0 0 .6-1.381c-.1-.482-.6-.8-1.049-1.059a6.265 6.265 0 0 0-1.756-.793 4.5 4.5 0 0 0-1.407-.059 3.39 3.39 0 0 0-.239-2.023 4.07 4.07 0 0 0-1.125-1.486c-.312-.26-.8-.441-1.159-.694.271.031.538.108.814.134a1.432 1.432 0 0 0 .577-.057 1.221 1.221 0 0 0 .265-.12c.248.252.489.51.719.775.515.592.972 1.224 1.51 1.8a19.652 19.652 0 0 0 2.555 2.17 12.268 12.268 0 0 0 2.589 1.639c.539.226 1.109.38 1.656.588a9.881 9.881 0 0 0 2.191.909 13.486 13.486 0 0 1 2.389.327 7.978 7.978 0 0 0 1.857.12l2.206.083a11.172 11.172 0 0 0 3.733-.275 10.592 10.592 0 0 0 2.452-1.253c1.536-.962 3.072-1.926 4.5-3.015a8.639 8.639 0 0 1 2.12-1.342c.625-.234 1.426-.411 1.669-.948.026.045.049.091.073.134a2.274 2.274 0 0 0 .4.547 1.144 1.144 0 0 0 .159.136 1.344 1.344 0 0 0 .144.093c.079.035.145.073.223.106z" opacity="0.03" transform="translate(-404.673 -308.152)"/>
                <path id="Path_492" d="M458.681 304.333a33.96 33.96 0 0 0-4.767 2.871 14.73 14.73 0 0 1-2.355 1.647 15.416 15.416 0 0 0-1.7.8c-.3.195-.551.435-.853.618a5.516 5.516 0 0 1-2.251.586 25.959 25.959 0 0 1-8.091.063 21.087 21.087 0 0 1-7.24-3.367 16.7 16.7 0 0 1-5.035-4.535c-.034-.053-.069-.108-.1-.163a1.328 1.328 0 0 0 .233-.11.155.155 0 0 0 .026-.014c.284-.163.521-.4.8-.561l.026-.014a2.439 2.439 0 0 0 .106.7 57.3 57.3 0 0 1 6.57 4.831 4.71 4.71 0 0 0 3.686 1.663 2.978 2.978 0 0 0 3.789.52 2.123 2.123 0 0 0 2.432.549 2.338 2.338 0 0 1 .9-.342 2.44 2.44 0 0 1 .61.134 2.052 2.052 0 0 0 2.316-1.033 2.553 2.553 0 0 0 2.861-1.419 2.91 2.91 0 0 0 2.8-1.421 1.677 1.677 0 0 1 .261-.427 1.482 1.482 0 0 1 .612-.3l4.321-1.352.032.065a.069.069 0 0 1 .011.011z" class="cls-7" transform="translate(-419.658 -301.962)"/>
                <path id="Path_493" fill="#f7b9b7" d="M452.731 311.043a8.387 8.387 0 0 0-2.025.447 2.8 2.8 0 0 0-1.654 1.478 2.91 2.91 0 0 0-2.546 2.194 2.822 2.822 0 0 0-2.226.5 6.534 6.534 0 0 0-1.521 1.651 4.545 4.545 0 0 0-3.3.323 1.739 1.739 0 0 1-.763.279 1.811 1.811 0 0 1-.528-.12 4.67 4.67 0 0 0-3.4.238 5.207 5.207 0 0 0-4.175-1.066 1.076 1.076 0 0 1-.58.01.994.994 0 0 1-.336-.275 4.079 4.079 0 0 0-2.824-1.232 1.089 1.089 0 0 1-.549-.1.942.942 0 0 1-.289-.354c-.868-1.436-2.7-2.1-4.405-2.625a3.812 3.812 0 0 0-.978-2.448c-.3-.344-1-.634-1.366-.978a1.437 1.437 0 0 0 .577-.057 1.375 1.375 0 0 0 .291-.134 1.717 1.717 0 0 1 .179.144c.8.781 1.331 2.1 2.607 2.326a1.743 1.743 0 0 1 .692.179 1.163 1.163 0 0 1 .323.453 4.422 4.422 0 0 0 3.039 2.214 1.344 1.344 0 0 1 1.028.576 3.555 3.555 0 0 0 2.223 1.037 3.077 3.077 0 0 1 .661.088c.444.146.717.557 1.129.763.659.331 1.469.069 2.221.083a13.858 13.858 0 0 1 2.189.443 2.16 2.16 0 0 0 2.055-.5c-.185.23 1.452.415 1.594.386.72-.148 1.482-.539 1.618-1.2a1.7 1.7 0 0 0 1.487-.037c.883-.336 1.555-.653 1.648-1.586a4.163 4.163 0 0 0 .965 0c.584-.092.791-.458 1.159-.815.09-.088 1.09-1.192.95-1.251.17.073.34.145.513.216a5.041 5.041 0 0 1 3.035-1.8 2.257 2.257 0 0 1 .883 0 2.265 2.265 0 0 0 .399.55z" transform="translate(-413.243 -308.008)"/>
                <path id="Path_494" d="M461.98 343.292a5.232 5.232 0 0 0-.882-.525c.076 0 .151-.007.225-.007h.05a5.439 5.439 0 0 1 1.278.237l.147.039a4.981 4.981 0 0 0-.818.256zm3.863-.044a1.148 1.148 0 0 1-.3-.071l-.09-.028q-.115-.037-.233-.068a1.949 1.949 0 0 0 .431-.233 3.671 3.671 0 0 0 .735.176l-.086.046a1.187 1.187 0 0 1-.457.178zm3.876-.664a4.975 4.975 0 0 0-1.032-.11 1.786 1.786 0 0 0 .4-.458 1.753 1.753 0 0 0 .34.032 2.745 2.745 0 0 0 .831-.145c-.195.222-.372.452-.54.681zm-12.34-.237a.139.139 0 0 1-.049-.006.786.786 0 0 1-.156-.145l-.022-.024a4.03 4.03 0 0 0-.537-.477 4.079 4.079 0 0 0 .715.128l.152.012a1.874 1.874 0 0 1 .409.057 1.619 1.619 0 0 1 .489.329 5.492 5.492 0 0 0-.729.082l-.037.007a1.485 1.485 0 0 1-.236.037zm-2.176-1.353a4.624 4.624 0 0 0-1.189-.192h-.047a.863.863 0 0 1-.275-.029.7.7 0 0 1-.13-.181l-.021-.035a4.06 4.06 0 0 0-.5-.665 4.984 4.984 0 0 0 .992.311l.087.017a1.359 1.359 0 0 1 .339.092 1.288 1.288 0 0 1 .288.257l.083.088a3.6 3.6 0 0 0 .37.337zm17.024-.428a1.824 1.824 0 0 0 .1-.274h.208a3.059 3.059 0 0 0 .472-.034 1.782 1.782 0 0 0 .452-.132 2.854 2.854 0 0 0-.13.311c-.072-.006-.144-.009-.217-.009a3.172 3.172 0 0 0-.886.138zm-20.923-1.91a14.8 14.8 0 0 0-2.129-.821 3.92 3.92 0 0 0-.182-.885 2.521 2.521 0 0 0 .99.41c.063.012.128.021.193.029a.915.915 0 0 1 .323.078.826.826 0 0 1 .167.255l.027.053a4.24 4.24 0 0 0 .607.88zm23.758-.047c.072-.09.14-.183.2-.274l.121.05a.465.465 0 0 0 .176.035h.014a3.523 3.523 0 0 0-.512.188zm.707-.238a.416.416 0 0 0 .142-.116q.064-.082.132-.161a2.386 2.386 0 0 0-.15.252z" class="cls-4" transform="translate(-440.39 -333.74)"/>
                <path id="Path_495" d="M422.078 314.819a2.985 2.985 0 0 1-1.476.748 2.279 2.279 0 0 1-1.1.04.393.393 0 0 0-.177-.024c-.142.031-.164.2-.164.334a2.375 2.375 0 0 1-.732 1.655 2.828 2.828 0 0 1-1.768.761c-.457.028-.427.683-.554 1.008a2.942 2.942 0 0 1-.987 1.375 3.751 3.751 0 0 1-2.815.433.441.441 0 0 0-.226 0 .393.393 0 0 0-.2.234 3.264 3.264 0 0 1-.711 1.007 4.267 4.267 0 0 1-4.009.665c-.6-.171-.709-.022-1.15.246a3.587 3.587 0 0 1-1.609.352 4.6 4.6 0 0 1-1.586-.226 10.766 10.766 0 0 1-1.295-.714 4.067 4.067 0 0 1-2.807.5 3.8 3.8 0 0 1-2.365-1.47.651.651 0 0 0-.222-.226c-.351-.169-.888.307-1.273.319a3.413 3.413 0 0 1-1.42-.408 3.991 3.991 0 0 1-1.943-1.9c-.146-.323-.278-.7-.627-.844a1.784 1.784 0 0 0-.648-.071 2.843 2.843 0 0 1-2.835-3.263.279.279 0 0 0-.069-.271.338.338 0 0 0-.175-.043 3.652 3.652 0 0 1-2.977-1.519 2.8 2.8 0 0 1-.3-1.122 4.115 4.115 0 0 1-.009-.565 2.234 2.234 0 0 1 1.779-2.355 2.287 2.287 0 0 0-.286.222 2.517 2.517 0 0 0-.765 2.694 2.663 2.663 0 0 0 1.458 1.434 3.224 3.224 0 0 0 1.081.266c.355.026.857-.169 1.051.2.1.2-.011.317-.049.5a2.089 2.089 0 0 0 .039.722 2.48 2.48 0 0 0 .586 1.248 2.3 2.3 0 0 0 1.387.7 2.076 2.076 0 0 0 .832-.041c.254-.069.5-.252.694.035a8.434 8.434 0 0 1 .478 1.243 3.7 3.7 0 0 0 .872 1.251 2.65 2.65 0 0 0 1.527.645 2.209 2.209 0 0 0 .836-.075c.224-.067.433-.332.681-.325.267.01.3.283.433.451a3.131 3.131 0 0 0 1.579 1.06 2.655 2.655 0 0 0 1.4.008 1.968 1.968 0 0 0 .644-.287c.239-.177.364-.289.618-.084a7.043 7.043 0 0 0 .724.62 3.575 3.575 0 0 0 1.855.512 4.1 4.1 0 0 0 1.536-.317 4.469 4.469 0 0 0 .713-.378c.144-.093.388-.405.543-.4h.25c.23 0 .33.138.513.24a2.639 2.639 0 0 0 .786.264 3.138 3.138 0 0 0 1.545-.083 2.864 2.864 0 0 0 1.411-1.017c.222-.3.243-.956.734-.962.362 0 .737.214 1.146.185a3.065 3.065 0 0 0 1.323-.415 4.517 4.517 0 0 0 1-.83c.267-.287.5-.8.812-1.017.254-.179.73-.067 1.084-.173a2.5 2.5 0 0 0 1.049-.639 3.427 3.427 0 0 0 .685-1.051 3.408 3.408 0 0 1 .216-.63c.211-.311 1.187-.415 1.555-.474a2.365 2.365 0 0 0 1.118-.374 1.136 1.136 0 0 0 .4-1.08 1.67 1.67 0 0 0-.657-1 1.485 1.485 0 0 1-.3-.264.561.561 0 0 1-.08-.143c.177.1.373.181.556.275 1.048.536 1.774 1.656.837 2.628z" class="cls-7" transform="translate(-380.897 -308.65)"/>
                <path id="Path_496" d="M469.678 302.032c-.017.014-.037.028-.054.039a4.674 4.674 0 0 0-2.839-.683 2.632 2.632 0 0 0-2.23 1.6c-.073.221-.123.478-.338.6a1.169 1.169 0 0 1-.478.085 1.835 1.835 0 0 0-1.579 1.163.836.836 0 0 1-.226.435.791.791 0 0 1-.392.12c-.879.114-1.93.419-2.113 1.212a2.1 2.1 0 0 0-2.766.472 3.311 3.311 0 0 0-3.746.366c.243-.224-1.681-.834-1.855-.846a3.055 3.055 0 0 0-1.962.575 2.724 2.724 0 0 0-1.28-1.665c-.842-.376-1.872.031-2.781-.181-.127-.488.188-1.027-.026-1.49s-.838-.614-1.381-.706a2.527 2.527 0 0 0-1.463.045 1.793 1.793 0 0 0-.1-1.836 3.705 3.705 0 0 0-1.881-.966c-.366-.094-1.09-.075-1.685-.193a1.563 1.563 0 0 1 .315-.136 4.77 4.77 0 0 1 1.637.016 2.793 2.793 0 0 1 2.518 2.019.768.768 0 0 0 .136.437c.159.175.448.159.7.163a2.482 2.482 0 0 1 1.674.7 1.6 1.6 0 0 1 .418 1.653 5.151 5.151 0 0 1 1.174-.191 2.488 2.488 0 0 1 .827.077 2.868 2.868 0 0 1 1.456 1.381 4.352 4.352 0 0 1 1.277-.533 2.283 2.283 0 0 1 1.3.154 2.307 2.307 0 0 1 .6.376c.11.1.315.484.427.523.172.059 1.04-.49 1.325-.555a3.234 3.234 0 0 1 1.557.031 1.407 1.407 0 0 0 .9.09 2.059 2.059 0 0 0 .407-.307 1.667 1.667 0 0 1 1.536-.11.6.6 0 0 0 .388.057c.116-.041.179-.153.246-.25a1.639 1.639 0 0 1 1.056-.665 3.126 3.126 0 0 0 1.189-.228c.362-.236.427-.7.67-1.041a2.08 2.08 0 0 1 1.226-.7c.6-.148.605-.6.875-1.059a3.5 3.5 0 0 1 3.044-1.3 2.693 2.693 0 0 1 1.7.433 2.436 2.436 0 0 1 .597.819z" class="cls-7" transform="translate(-430.812 -299.969)"/>
                <path id="Path_497" d="M808.1 449.715a.82.82 0 0 1 .3-.014 1.05 1.05 0 0 1-.3.014z" class="cls-4" transform="translate(-768.333 -436.701)"/>
                <path id="Path_498" d="M582.858 578.578a2.074 2.074 0 0 1-.871-.028 6.5 6.5 0 0 1-2.613-.868 1.146 1.146 0 0 0-.351-.2 1.3 1.3 0 0 0-.728.15 2.322 2.322 0 0 1-1.95-.2 2.527 2.527 0 0 1-1.105-2.1 4 4 0 0 1 .045-.74 4.089 4.089 0 0 1 .506-.919 1.767 1.767 0 0 0 .552 2.393c.838.529 1.967.293 2.988.336a1.617 1.617 0 0 0 1.03 1.088 9.932 9.932 0 0 0 1.568.421c.293.073.579.162.862.262.024.106.046.25.067.405z" class="cls-9" transform="translate(-555.681 -549.927)"/>
                <path id="Path_499" d="M582.858 578.578a2.074 2.074 0 0 1-.871-.028 6.5 6.5 0 0 1-2.613-.868 1.146 1.146 0 0 0-.351-.2 1.3 1.3 0 0 0-.728.15 2.322 2.322 0 0 1-1.95-.2 2.527 2.527 0 0 1-1.105-2.1 4 4 0 0 1 .045-.74 4.089 4.089 0 0 1 .506-.919 1.767 1.767 0 0 0 .552 2.393c.838.529 1.967.293 2.988.336a1.617 1.617 0 0 0 1.03 1.088 9.932 9.932 0 0 0 1.568.421c.293.073.579.162.862.262.024.106.046.25.067.405z" class="cls-7" transform="translate(-555.681 -549.927)"/>
                <g id="Group_138" transform="translate(18.88 24.722)">
                    <path id="Path_500" d="M568.149 584.886l-.011-.029a3.006 3.006 0 0 0-.05 2.1.718.718 0 0 1 .073.5c-.065.167-.254.258-.4.38a1.277 1.277 0 0 0-.2 1.446c.192.484.523.921.666 1.419.276.97-.136 2.005-.136 2.989a4.768 4.768 0 0 0 1.049 2.489c.827 1.244 2 2.493 1.805 3.937a.744.744 0 0 0 .039.526.4.4 0 0 0 .134.122 6.308 6.308 0 0 0-.534-4 22.309 22.309 0 0 1-1.577-2.953 2.334 2.334 0 0 1 1.019-2.883 2.087 2.087 0 0 1-1.732-1.48.919.919 0 0 1 .039-.639 2.52 2.52 0 0 0 .552-1.428 2.646 2.646 0 0 1-.772-1.834 4.031 4.031 0 0 1 .036-.662z" class="cls-4" transform="translate(-567.433 -584.857)"/>
                    <path id="Path_501" d="M633.905 629.4l-.218-.04c-.049.325-.105.65-.176.971-.123.553-.452 1.224-1.068 1.2a1.687 1.687 0 0 1 .98 1.491 7.4 7.4 0 0 1-.312 3.443c-.2.606-.487 1.188-.661 1.8a18.634 18.634 0 0 0-.36 3.481.613.613 0 0 0 .369-.132.707.707 0 0 0 .187-.441 21.487 21.487 0 0 1 .418-2.341c.289-1.045.829-2.013 1.213-3.032a4.619 4.619 0 0 0 .235-3.166 2.624 2.624 0 0 1-.25-.871c0-.541.5-.921.578-1.433a6.32 6.32 0 0 0-.063-.9 2.068 2.068 0 0 1-.872-.03z" class="cls-4" transform="translate(-626.478 -625.498)"/>
                </g>
            </g>
        </g>
    </g>
</svg>
