<svg xmlns="http://www.w3.org/2000/svg" id="Lung_Problems_small" width="111.939" height="111.939" viewBox="0 0 111.939 111.939">
    <defs>
        <style>
            .cls-3{fill:#cc7a7a}.cls-4{fill:#ffc9c5}.cls-5{fill:#f9bebd}.cls-6{fill:#751039;opacity:.05}.cls-7{fill:#c99dae}.cls-8{fill:#b86e6e}.cls-10{fill:#680f37}.cls-11{fill:#d68080}
        </style>
    </defs>
    <g id="Group_5379">
        <g id="Group_5358">
            <g id="Group_5218">
                <g id="Group_5217">
                    <g id="Group_5194">
                        <g id="Group_5192">
                            <g id="Group_5185">
                                <g id="Group_5174">
                                    <g id="Group_2519">
                                        <g id="AdobeStock_230057853" fill="#bbe8ff" stroke="none">
                                            <path d="M55.97 111.439c-7.49 0-14.753-1.467-21.592-4.359-3.286-1.39-6.456-3.11-9.422-5.114-2.937-1.984-5.7-4.263-8.21-6.774-2.51-2.51-4.789-5.272-6.773-8.21-2.003-2.965-3.724-6.135-5.114-9.421C1.967 70.722.5 63.458.5 55.97c0-7.49 1.467-14.753 4.359-21.592 1.39-3.286 3.11-6.456 5.114-9.422 1.984-2.937 4.263-5.7 6.774-8.21 2.51-2.51 5.272-4.789 8.21-6.773 2.965-2.003 6.135-3.724 9.421-5.114C41.217 1.967 48.481.5 55.97.5c7.488 0 14.752 1.467 21.59 4.359 3.287 1.39 6.457 3.11 9.423 5.114 2.937 1.984 5.7 4.263 8.21 6.774 2.51 2.51 4.789 5.272 6.773 8.21 2.003 2.965 3.724 6.135 5.114 9.421 2.892 6.839 4.359 14.103 4.359 21.592 0 7.488-1.467 14.752-4.359 21.59-1.39 3.287-3.11 6.457-5.114 9.423-1.984 2.937-4.263 5.7-6.774 8.21-2.51 2.51-5.272 4.789-8.21 6.773-2.965 2.003-6.135 3.724-9.421 5.114-6.839 2.892-14.103 4.359-21.591 4.359z"/>
                                            <path fill="#dfe1e4" d="M55.97 1c-7.422 0-14.62 1.453-21.397 4.32-3.257 1.377-6.398 3.082-9.337 5.067-2.91 1.967-5.648 4.225-8.136 6.713-2.488 2.488-4.746 5.225-6.713 8.136-1.985 2.939-3.69 6.08-5.068 9.337C2.453 41.35 1 48.548 1 55.97c0 7.42 1.453 14.62 4.32 21.396 1.377 3.257 3.082 6.398 5.067 9.337 1.967 2.91 4.225 5.648 6.713 8.136 2.488 2.488 5.225 4.746 8.136 6.713 2.939 1.985 6.08 3.69 9.337 5.068 6.776 2.866 13.975 4.319 21.397 4.319 7.42 0 14.62-1.453 21.396-4.32 3.257-1.377 6.398-3.082 9.337-5.067 2.91-1.967 5.648-4.225 8.136-6.713 2.488-2.488 4.746-5.225 6.713-8.136 1.985-2.939 3.69-6.08 5.068-9.337 2.866-6.776 4.319-13.975 4.319-21.396 0-7.422-1.453-14.62-4.32-21.397-1.377-3.257-3.082-6.398-5.067-9.337-1.967-2.91-4.225-5.648-6.713-8.136-2.488-2.488-5.225-4.746-8.136-6.713-2.939-1.985-6.08-3.69-9.337-5.068C70.59 2.453 63.39 1 55.97 1m0-1c30.91 0 55.969 25.058 55.969 55.97 0 30.91-25.058 55.969-55.97 55.969C25.06 111.939 0 86.881 0 55.969 0 25.06 25.058 0 55.97 0z"/>
                                        </g>
                                    </g>
                                </g>
                            </g>
                        </g>
                    </g>
                </g>
            </g>
        </g>
    </g>
    <g id="Group_131" transform="translate(24.906 23.273)">
        <path id="Path_414" fill="#cc9f9f" d="M1035.472 312.788v.006c-.015.283-.029.565-.042.848-.042.928-.068 1.86-.065 2.791 0 .454-.016 1-.039 1.535-.013.419-.03.831-.039 1.188v.01c-1.045-1.068-2.1-2.341-3.23-3.327a4.242 4.242 0 0 0-1.747-1.084 1.026 1.026 0 0 0-.6 0 4.234 4.234 0 0 0-1.747 1.084c-1.13.986-2.185 2.259-3.229 3.327v-.01c-.007-.214-.013-.448-.023-.691-.026-.678-.058-1.435-.055-2.032 0-.931-.023-1.863-.065-2.791-.013-.282-.026-.565-.042-.848v-.006a4.735 4.735 0 0 0 .695-.782.8.8 0 0 0 .049-.068c.03-.046.058-.087.085-.133.078-.12.156-.24.226-.364a2.085 2.085 0 0 0 .118-.182c.114-.185.22-.37.327-.555.211-.376.41-.756.594-1.146a10.5 10.5 0 0 0 .4-.977 12.478 12.478 0 0 0 .575-3c.019-.217.042-.429.065-.643.12-1.061.282-2.116.308-3.207.078-3.081.015-6.161-.013-9.242a.388.388 0 0 1 .023-.15c.091-.263.451-.152.75-.1a1.47 1.47 0 0 0 .152.023c.366.029.74.136 1.111.143s.742-.114 1.11-.143c.107-.01.234-.039.36-.062.24-.049.474-.068.542.136a.4.4 0 0 1 .022.15c-.03 3.08-.091 6.161-.014 9.242.026 1.09.189 2.145.309 3.207.023.214.046.425.065.643a12.484 12.484 0 0 0 .575 3 10.536 10.536 0 0 0 .4.977c.185.389.383.769.594 1.146.107.185.214.37.327.555.046.074.091.149.139.224.068.107.137.214.2.322.026.046.055.088.085.133a.784.784 0 0 0 .048.068 4.757 4.757 0 0 0 .696.785z" transform="translate(-998.508 -292.176)"/>
        <path id="Path_415" d="M1035.472 312.788v.006c-.015.283-.029.565-.042.848-.042.928-.068 1.86-.065 2.791 0 .454-.016 1-.039 1.535-.013.419-.03.831-.039 1.188v.01c-1.045-1.068-2.1-2.341-3.23-3.327a4.242 4.242 0 0 0-1.747-1.084 1.026 1.026 0 0 0-.6 0 4.234 4.234 0 0 0-1.747 1.084c-1.13.986-2.185 2.259-3.229 3.327v-.01c-.007-.214-.013-.448-.023-.691-.026-.678-.058-1.435-.055-2.032 0-.931-.023-1.863-.065-2.791-.013-.282-.026-.565-.042-.848v-.006a4.735 4.735 0 0 0 .695-.782.8.8 0 0 0 .049-.068c.03-.046.058-.087.085-.133.078-.12.156-.24.226-.364a2.085 2.085 0 0 0 .118-.182c.114-.185.22-.37.327-.555.211-.376.41-.756.594-1.146a10.5 10.5 0 0 0 .4-.977 12.478 12.478 0 0 0 .575-3c.019-.217.042-.429.065-.643.12-1.061.282-2.116.308-3.207.078-3.081.015-6.161-.013-9.242a.388.388 0 0 1 .023-.15c.091-.263.451-.152.75-.1a1.47 1.47 0 0 0 .152.023c.366.029.74.136 1.111.143s.742-.114 1.11-.143c.107-.01.234-.039.36-.062.24-.049.474-.068.542.136a.4.4 0 0 1 .022.15c-.03 3.08-.091 6.161-.014 9.242.026 1.09.189 2.145.309 3.207.023.214.046.425.065.643a12.484 12.484 0 0 0 .575 3 10.536 10.536 0 0 0 .4.977c.185.389.383.769.594 1.146.107.185.214.37.327.555.046.074.091.149.139.224.068.107.137.214.2.322.026.046.055.088.085.133a.784.784 0 0 0 .048.068 4.757 4.757 0 0 0 .696.785z" class="cls-3" transform="translate(-998.508 -292.176)"/>
        <path id="Path_416" d="M1035.472 312.788v.006c-.015.283-.029.565-.042.848-.042.928-.068 1.86-.065 2.791 0 .454-.016 1-.039 1.535-.013.419-.03.831-.039 1.188v.01c-1.045-1.068-2.1-2.341-3.23-3.327a4.242 4.242 0 0 0-1.747-1.084 1.026 1.026 0 0 0-.6 0 4.234 4.234 0 0 0-1.747 1.084c-1.13.986-2.185 2.259-3.229 3.327v-.01c-.007-.214-.013-.448-.023-.691-.026-.678-.058-1.435-.055-2.032 0-.931-.023-1.863-.065-2.791-.013-.282-.026-.565-.042-.848v-.006a4.735 4.735 0 0 0 .695-.782.8.8 0 0 0 .049-.068c.03-.046.058-.087.085-.133.078-.12.156-.24.226-.364a2.085 2.085 0 0 0 .118-.182c.114-.185.22-.37.327-.555.211-.376.41-.756.594-1.146a10.5 10.5 0 0 0 .4-.977 12.478 12.478 0 0 0 .575-3c.019-.217.042-.429.065-.643.12-1.061.282-2.116.308-3.207.078-3.081.015-6.161-.013-9.242a.388.388 0 0 1 .023-.15c.091-.263.451-.152.75-.1a1.47 1.47 0 0 0 .152.023c.366.029.74.136 1.111.143s.742-.114 1.11-.143c.107-.01.234-.039.36-.062.24-.049.474-.068.542.136a.4.4 0 0 1 .022.15c-.03 3.08-.091 6.161-.014 9.242.026 1.09.189 2.145.309 3.207.023.214.046.425.065.643a12.484 12.484 0 0 0 .575 3 10.536 10.536 0 0 0 .4.977c.185.389.383.769.594 1.146.107.185.214.37.327.555.046.074.091.149.139.224.068.107.137.214.2.322.026.046.055.088.085.133a.784.784 0 0 0 .048.068 4.757 4.757 0 0 0 .696.785z" class="cls-3" transform="translate(-998.508 -292.176)"/>
        <path id="Path_417" d="M1083.558 383.62a.56.56 0 0 1 .006.059c0-.013-.006-.032-.013-.059a1.466 1.466 0 0 0-.052-.224 2.031 2.031 0 0 0-.126-.334 2.971 2.971 0 0 0-.234-.4 4.226 4.226 0 0 0-.8-.831 9.21 9.21 0 0 0-1.1-.74 6.305 6.305 0 0 0-1.2-.539c-.2-.068-.4-.137-.587-.214a2.091 2.091 0 0 1-.318-.162c.035.065.075.13.107.195a10.11 10.11 0 0 1 .448.928c.123.282.217.532.289.74s.123.373.162.484c.022.084.042.14.048.163l-.062-.156c-.048-.11-.1-.272-.195-.471s-.2-.441-.344-.711a10 10 0 0 0-.51-.883c-.136-.221-.3-.451-.468-.682a2.55 2.55 0 0 1-.3-.321 1.348 1.348 0 0 1-.143-.221c-.022-.039-.033-.062-.036-.068-.2-.234-.4-.471-.627-.7-.12-.127-.253-.25-.382-.373.03.133.058.276.087.435a5.958 5.958 0 0 1 .1 1.3 3.873 3.873 0 0 1-.1.737 2.744 2.744 0 0 1-.09.305.159.159 0 0 1-.02.146l-.03.042c-.006.01-.026.033-.045.055-.023.058-.046.117-.072.169a7.766 7.766 0 0 1-.8 1.236 11.234 11.234 0 0 0-.714 1.036 1.413 1.413 0 0 0-.25.834.592.592 0 0 0 .1.26.558.558 0 0 1-.117-.257 1.453 1.453 0 0 1 .2-.873 11.741 11.741 0 0 1 .656-1.091 9.535 9.535 0 0 0 .545-.9.145.145 0 0 0-.02.016c-.168.136-.373.285-.594.441a6.349 6.349 0 0 1-.721.451c-.492.286-.983.577-1.333.824a3.659 3.659 0 0 0-.409.318 1.276 1.276 0 0 0-.14.137 1.5 1.5 0 0 1 .13-.149 3.817 3.817 0 0 1 .386-.344c.334-.273.8-.6 1.282-.922a6.7 6.7 0 0 0 .672-.49c.205-.169.394-.331.549-.474a4.966 4.966 0 0 0 .353-.357.771.771 0 0 0 .072-.094.4.4 0 0 1 .026-.042s0-.007.006-.01a.229.229 0 0 1 .022-.023 3.877 3.877 0 0 0 .075-1.51v-.006a5.705 5.705 0 0 0-.13-.679c-.084-.351-.179-.639-.247-.841-.04-.113-.068-.2-.085-.25a.066.066 0 0 0-.019-.016 12.209 12.209 0 0 0-1.185-.847c-.2-.127-.438-.257-.636-.37s-.422-.208-.646-.3c-.445-.185-.9-.351-1.351-.552a4.653 4.653 0 0 1-1.269-.785 3.75 3.75 0 0 1-.506-.62c-.029-.042-.059-.088-.084-.13l-.046.37c-.124.977-.237 1.9-.27 2.791a20.376 20.376 0 0 0 .055 2.506 17.242 17.242 0 0 0 .3 2.1 6.068 6.068 0 0 0 .532 1.536 3.584 3.584 0 0 0 .616.85c.084.087.156.146.205.188.016.013.032.026.042.036-.013-.007-.026-.016-.046-.029a2.614 2.614 0 0 1-.224-.172 3.556 3.556 0 0 1-.7-.812 6.319 6.319 0 0 1-.685-1.529 17.2 17.2 0 0 1-.487-2.113c-.037-.214-.072-.432-.1-.659v-.006-.006-.006-.007-.007-.007a17.882 17.882 0 0 1-.177-1.863c-.05-.916-.017-1.889.022-2.87a28.42 28.42 0 0 0 .006-2.974 9.724 9.724 0 0 0-.2-1.454c-.046-.24-.114-.451-.173-.665s0 0 0-.007l-.129-.373c-.011-.023-.023-.058-.036-.088a8.871 8.871 0 0 1-.107 2.376c-.059.3-.126.584-.218.892-.074.23-.162.49-.263.74v.009a.161.161 0 0 1 0 .023.491.491 0 0 1-.039.143.658.658 0 0 1-.1.165c-.214.493-.454.974-.714 1.441-.325.581-.663 1.146-.984 1.7a.165.165 0 0 1 0 .162s-.015.029-.048.085a1.7 1.7 0 0 0-.133.234c-.055.1-.111.224-.175.37s-.117.321-.171.51a4.552 4.552 0 0 0-.15 1.34 4.426 4.426 0 0 0 .324 1.516 6.245 6.245 0 0 0 .361.714c.131.231.266.458.4.679a5.833 5.833 0 0 1 .594 1.262 3.572 3.572 0 0 1 .146.974 3.008 3.008 0 0 1-.015.341c0-.052.007-.169 0-.341a3.364 3.364 0 0 0-.179-.961 5.981 5.981 0 0 0-.633-1.224c-.136-.214-.279-.435-.421-.662a6.645 6.645 0 0 1-.394-.714 4.609 4.609 0 0 1-.4-1.571 5.061 5.061 0 0 1 .046-1.078 9.621 9.621 0 0 0-.462 1.25 7.42 7.42 0 0 0-.269 1.415 5.517 5.517 0 0 0 .029 1.217 4.267 4.267 0 0 0 .231.915 3.775 3.775 0 0 0 .26.552c.052.094.087.153.1.179l-.114-.169a4.3 4.3 0 0 1-.3-.539 4.479 4.479 0 0 1-.3-.919 5.574 5.574 0 0 1-.114-1.247 7.919 7.919 0 0 1 .179-1.477 10.31 10.31 0 0 1 .432-1.441 5.781 5.781 0 0 1-.636.315c-.247.107-.526.182-.782.272a1.22 1.22 0 0 0-.619.461 2.059 2.059 0 0 0-.3.636 3.979 3.979 0 0 0-.109.494c-.02.123-.033.191-.033.191l.017-.191a4.346 4.346 0 0 1 .078-.506 2.142 2.142 0 0 1 .26-.682 1.405 1.405 0 0 1 .272-.325 1.522 1.522 0 0 1 .37-.227c.266-.117.523-.2.753-.328a4.837 4.837 0 0 0 .451-.253l.152-.1c.133-.091.237-.169.324-.237.409-.964.925-1.922 1.383-2.9.072-.149.139-.3.208-.448l-.03.01a5.032 5.032 0 0 1-.873.224c-.425.075-.86.107-1.292.159a5.538 5.538 0 0 0-1.23.266 2.642 2.642 0 0 0-.519.253 2.609 2.609 0 0 0-.409.315 1.878 1.878 0 0 0-.441.643 1.584 1.584 0 0 0-.066.211.353.353 0 0 1-.016.059.419.419 0 0 1 .01-.059 1.19 1.19 0 0 1 .045-.221 1.948 1.948 0 0 1 .393-.7 2.617 2.617 0 0 1 .4-.37 2.815 2.815 0 0 1 .52-.318c.022-.01.045-.016.064-.026l-.032-.009a1.985 1.985 0 0 1-1.367-1.2 1.336 1.336 0 0 1-.078-.292.817.817 0 0 1-.016-.1c0 .016.016.049.028.1a1.691 1.691 0 0 0 .111.273 1.877 1.877 0 0 0 .581.656 1.772 1.772 0 0 0 .792.3 1.34 1.34 0 0 0 .269.01l.11-.01h.022a.165.165 0 0 1 .124.075c.211-.065.432-.12.649-.165s.431-.091.642-.133.419-.088.607-.139a4.1 4.1 0 0 0 .988-.39 2.037 2.037 0 0 0 .334-.227c.007 0 .01-.009.016-.013.043-.12.085-.237.124-.354.091-.27.162-.529.234-.822.055-.256.106-.536.136-.8a8.067 8.067 0 0 0-.2-2.9 8.449 8.449 0 0 0-.374-1.094 8.594 8.594 0 0 0-.392-.789c-.024-.039-.046-.074-.066-.11-.036-.055-.064-.107-.094-.156-.049-.081-.1-.156-.143-.214a.366.366 0 0 0-.038-.058l-.081-.12a.274.274 0 0 1-.022-.036.669.669 0 0 1-.042-.094c-.448-.422-.923-.821-1.4-1.211-.084-.068-.168-.136-.253-.2-.666-.533-1.338-1.052-1.973-1.584a21.187 21.187 0 0 1-1.8-1.714c-.3-.311-.594-.626-.89-.945.01-.451.013-.9.016-1.353a48.571 48.571 0 0 1 .23-5.054v-.039a2.5 2.5 0 0 1 .129.24 5.87 5.87 0 0 1 .247.565c.139.354.276.711.406 1.072.153.409.3.821.432 1.233.045.136.091.27.133.406a6.944 6.944 0 0 0 1.02 2.12 15.434 15.434 0 0 0 1.383 1.61 3.621 3.621 0 0 0 .792.1 4.942 4.942 0 0 0 1.012-.1l.081-.019a3.436 3.436 0 0 0 .96-.357 2.185 2.185 0 0 0 .444-.341c.026-.026.074-.078.12-.13a1.082 1.082 0 0 0 .075-.094 2.441 2.441 0 0 0 .152-.237 3.064 3.064 0 0 0 .341-1.194 5.127 5.127 0 0 0 .016-.542 3.694 3.694 0 0 0-.237-.413 3.832 3.832 0 0 0-1.253-1.172c-.01-.007-.016-.013-.026-.013a.146.146 0 0 0-.032-.016.047.047 0 0 0-.016-.01 3.346 3.346 0 0 0-.562-.276 1.792 1.792 0 0 0-.208-.075 2.18 2.18 0 0 0-.805-.1 1.672 1.672 0 0 0-.561.136 1.578 1.578 0 0 0-.195.1 1.831 1.831 0 0 1 .189-.117 1.746 1.746 0 0 1 .564-.175 2.267 2.267 0 0 1 .834.052 3 3 0 0 1 .53.175c-.046-.049-.1-.1-.166-.162a11.091 11.091 0 0 1-.934-.886 2.142 2.142 0 0 1-.364-.594 5.4 5.4 0 0 1-.2-.568c-.075-.254-.119-.445-.137-.526.023.078.075.269.163.516.059.166.133.357.224.552a2.21 2.21 0 0 0 .376.562 11.786 11.786 0 0 0 .964.84 2.9 2.9 0 0 1 .311.305 1.432 1.432 0 0 1 .1.117c.01.006.023.01.032.016a3.891 3.891 0 0 1 1.376 1.126c-.006-.058-.012-.12-.02-.178-.058-.438-.146-.877-.243-1.292a15.484 15.484 0 0 0-.711-2.233 15.31 15.31 0 0 0-.71-1.509c-.169-.308-.282-.5-.308-.542.029.039.158.217.35.516s.438.708.7 1.214a.459.459 0 0 0 .039-.033c.029-.036.049-.071.087-.117a1.618 1.618 0 0 0 .091-.211 1.576 1.576 0 0 0 .068-.279 2.78 2.78 0 0 0 .036-.328 5.153 5.153 0 0 0-.023-.734 7.374 7.374 0 0 0-.273-1.364 4.9 4.9 0 0 0-.208-.6 5.551 5.551 0 0 1 .257.585 7.523 7.523 0 0 1 .383 1.357 5.672 5.672 0 0 1 .087.756 3.145 3.145 0 0 1-.013.357 1.707 1.707 0 0 1-.052.325 1.689 1.689 0 0 1-.094.276 1.894 1.894 0 0 1-.142.211c-.043.039-.072.068-.094.091a15.474 15.474 0 0 1 .84 2.065c.018-.036.03-.071.047-.11a5.729 5.729 0 0 1 1.077-1.519 5.922 5.922 0 0 0 .615-.75 2.749 2.749 0 0 0 .372-.75 1.588 1.588 0 0 0 .068-.587 1.037 1.037 0 0 0-.023-.169c0-.019-.006-.036-.006-.042a.235.235 0 0 1 .01.042 1.53 1.53 0 0 1 .036.166 1.669 1.669 0 0 1-.033.6 4.143 4.143 0 0 1-.912 1.6 5.564 5.564 0 0 0-.948 1.509 1.86 1.86 0 0 0-.124.542v.052c.074.27.149.542.207.828a6.429 6.429 0 0 1 .15 1.425 3.784 3.784 0 0 1-.153 1.048 2.731 2.731 0 0 1 .477-.133 2.305 2.305 0 0 1 .87.007.039.039 0 0 0 .013-.01s.019-.006.058-.023l.129-.055a3.3 3.3 0 0 0 .48-.3 4.245 4.245 0 0 0 .607-.552c.048-.055.1-.113.143-.172l.058-.088.063-.1a1.743 1.743 0 0 0 .162-.422 1.439 1.439 0 0 0-.064-.9 1.255 1.255 0 0 0-.543-.6 1.21 1.21 0 0 0-.574-.159 1.066 1.066 0 0 0-.233.026.912.912 0 0 1 .23-.055 1.278 1.278 0 0 1 .627.091 1.334 1.334 0 0 1 .37.221 1.385 1.385 0 0 1 .322.373 1.774 1.774 0 0 1 .146.35 4.506 4.506 0 0 1 .406-.633 2.688 2.688 0 0 1 .588-.584 1.426 1.426 0 0 1 .233-.137c.046-.019.075-.032.088-.035l-.082.049a1.4 1.4 0 0 0-.207.162 2.657 2.657 0 0 0-.487.636 4.989 4.989 0 0 0-.331.724c-.072.2-.114.347-.114.347a.038.038 0 0 1-.007.019.16.16 0 0 1-.016.026c0 .045 0 .088-.006.13a2.019 2.019 0 0 1-.136.552 1.219 1.219 0 0 1-.052.12l-.068.127c-.046.078-.094.153-.144.221a4.8 4.8 0 0 1-.616.695c-.1.084-.186.159-.27.227.078.036.152.078.227.12.2.123.393.25.582.377a2.5 2.5 0 0 0 .49-.006 7.057 7.057 0 0 0 .856-.153c.316-.072.65-.159 1-.221a3.961 3.961 0 0 1 1.912.1 1.814 1.814 0 0 1 .548.312 1.271 1.271 0 0 1 .129.117l.01.013a.044.044 0 0 0-.013-.01.993.993 0 0 0-.136-.11 1.808 1.808 0 0 0-.555-.269 3.884 3.884 0 0 0-1.86.022c-.334.075-.662.182-.976.273a7.523 7.523 0 0 1-.881.2c-.032.006-.065.01-.1.013.442.3.884.591 1.3.87a8.26 8.26 0 0 0 1.364.782 3.141 3.141 0 0 0 1.074.26 2.147 2.147 0 0 0 .312-.01l.113-.01-.11.02a2.749 2.749 0 0 1-.315.042 3.172 3.172 0 0 1-1.126-.162 6.457 6.457 0 0 1-.76-.3c-.23-.107-.471-.231-.711-.361l-1.606-.866c-.279-.146-.546-.315-.8-.442a2.615 2.615 0 0 0-.763-.263 1.881 1.881 0 0 0-1.3.286 3.96 3.96 0 0 0-.792.646c-.084.085-.156.166-.208.221-.007.007-.01.013-.013.016l-.007.007c.046.019.091.036.139.058a1.88 1.88 0 0 1 .286.15c.091.061.133.094.214.152.156.117.3.23.445.36.074.072.148.15.227.224a.515.515 0 0 1 .084.058l.094.075c.058.049.143.117.25.2.225.172.552.422.958.7.2.14.423.286.656.425.117.068.24.136.354.191.065.032.127.059.188.088a2.237 2.237 0 0 0 .834-.25c.146-.074.292-.159.442-.224a1.176 1.176 0 0 1 .425-.114.768.768 0 0 1 .3.042.593.593 0 0 1 .1.049.711.711 0 0 0-.1-.036.729.729 0 0 0-.3 0 1.055 1.055 0 0 0-.384.153c-.129.078-.262.178-.4.273a2.441 2.441 0 0 1-.539.279c.52.218 1.094.422 1.659.675a7.48 7.48 0 0 1 .916.477 5.606 5.606 0 0 1 .535.39 1.073 1.073 0 0 0 .12.071 3.324 3.324 0 0 0 .386.179 8.437 8.437 0 0 0 1.273.4 3.371 3.371 0 0 0 .351.059 3.261 3.261 0 0 1 .356.045 2.073 2.073 0 0 1 .614.195 1.133 1.133 0 0 1 .354.282.924.924 0 0 1 .071.1l.018.029a.13.13 0 0 0-.02-.026.824.824 0 0 0-.081-.091 1.055 1.055 0 0 0-.367-.237 2.022 2.022 0 0 0-.6-.127c-.113-.01-.223-.006-.35-.01a2.5 2.5 0 0 1-.376-.036 8.712 8.712 0 0 1-1.133-.256 8.24 8.24 0 0 1 .759.98c.28.418.492.782.637 1.035.126.221.2.36.224.393-.023-.029-.114-.159-.263-.37-.169-.237-.412-.578-.73-.961a7.462 7.462 0 0 0-1.049-1.068c-.045-.035-.094-.074-.143-.11a4.828 4.828 0 0 0-.79-.493 7.219 7.219 0 0 0-.892-.36c-.62-.208-1.269-.36-1.883-.558-.159-.052-.312-.1-.448-.156-.162-.065-.305-.13-.442-.2-.1-.052-.2-.1-.3-.156.025.058.052.113.072.172 0 0 0 .007.006.01.1.253.192.5.275.75l.2.574.108.269.12.279c.091.2.2.4.308.591a.161.161 0 0 1 .088.14c.052.088.1.182.162.266a7.694 7.694 0 0 0 2.012 2.052c.205.143.39.256.546.344s.282.156.366.2c.065.033.107.052.124.062l-.13-.049c-.087-.033-.22-.081-.386-.156s-.364-.165-.588-.289a7.407 7.407 0 0 1-.723-.445 8.19 8.19 0 0 1-1.461-1.318.16.16 0 0 1 0 .039 3.006 3.006 0 0 0 .168 1.435 3.448 3.448 0 0 0 .429.662 4.283 4.283 0 0 1 .4.581 1.184 1.184 0 0 1 .159.474.772.772 0 0 1 .006.14v0a.964.964 0 0 0-.016-.136 1.224 1.224 0 0 0-.189-.451 4.16 4.16 0 0 0-.438-.542 3.409 3.409 0 0 1-.5-.656 3.231 3.231 0 0 1-.295-1.519c0-.133.006-.25.009-.35a7.754 7.754 0 0 1-.564-.815l-.15-.266c-.058-.1-.1-.189-.149-.286l-.269-.565c-.16-.338-.309-.656-.485-.951l-.058-.1a5.274 5.274 0 0 0-.671-.867 5.459 5.459 0 0 0-.763-.665c-.131-.091-.267-.178-.383-.25-.068-.036-.133-.075-.2-.111a1.077 1.077 0 0 0-.136-.058 2.267 2.267 0 0 0-.642-.13 2.189 2.189 0 0 0-.51.029c-.068.013-.137.023-.178.036a.6.6 0 0 1-.084.023c-.013 0-.023.01-.035.013l-.069.022c.224.211.451.425.682.646a21.475 21.475 0 0 1 2.146 2.331 10.419 10.419 0 0 1 1.645 2.951c.042.146.088.26.13.428l.1.38a8.681 8.681 0 0 1 .149.857 10.988 10.988 0 0 1 .068 1.66c0 .094-.01.188-.013.282v.052a5.553 5.553 0 0 0 .455 1.584 3.72 3.72 0 0 0 .383.668.579.579 0 0 1 .15.007h.006l.344.078c.21.042.526.1.9.146a9.979 9.979 0 0 0 1.3.062 4.867 4.867 0 0 0 1.438-.227 12.609 12.609 0 0 0 1.384-.633 4.016 4.016 0 0 1 1.318-.422 2.114 2.114 0 0 1 .967.094 1.7 1.7 0 0 1 .247.117c.039.022.064.039.073.045l-.081-.036a1.594 1.594 0 0 0-.253-.085 2 2 0 0 0-.925.023 3.779 3.779 0 0 0-1.187.549c-.14.088-.283.185-.429.282a.016.016 0 0 1-.013.007 6.87 6.87 0 0 1-.905.539 5.534 5.534 0 0 1-1.575.429 9.92 9.92 0 0 1-1.327.084l.081.042a.014.014 0 0 1 .01 0c.3.149.61.3.931.458.224.113.455.237.679.38a.036.036 0 0 1 .016.013c.015 0 .029.01.051.016.062.026.151.056.254.091.214.071.536.165.926.253a10.066 10.066 0 0 0 1.35.211 6.085 6.085 0 0 0 .769.026c.257-.006.527-.032.792-.065.538-.068 1.08-.166 1.6-.214a5.458 5.458 0 0 1 1.418.032 3.088 3.088 0 0 1 .948.315 2.144 2.144 0 0 1 .3.188 2.3 2.3 0 0 0-.313-.162 3.106 3.106 0 0 0-.947-.234 5.094 5.094 0 0 0-1.376.075c-.108.019-.215.039-.322.061.035.02.072.039.107.062a1.444 1.444 0 0 1 .315.273 3.578 3.578 0 0 1 .26.357 4.944 4.944 0 0 0 .564.731c.218.23.449.448.669.652a2.992 2.992 0 0 0 .646.477 1.059 1.059 0 0 0 .551.127.854.854 0 0 0 .156-.026.648.648 0 0 1-.156.039 1.07 1.07 0 0 1-.568-.1 2.988 2.988 0 0 1-.688-.451c-.231-.195-.474-.4-.708-.623a5.078 5.078 0 0 1-.62-.717 1.832 1.832 0 0 0-.54-.549 1.048 1.048 0 0 0-.444-.153c-.26.062-.526.123-.795.179-.082.016-.166.032-.248.046h-.013c-.188.035-.374.065-.565.084a7.748 7.748 0 0 1-.814.026 10.929 10.929 0 0 1-1.3-.1c.026.023.058.049.084.075l.007.006c.152.127.3.26.451.4l.02.02a.234.234 0 0 1 .087.091 12.277 12.277 0 0 1 .9.964c.208.247.393.494.572.74a.186.186 0 0 1 .065.075.639.639 0 0 1 .028.058l.16.227.058.094a2.955 2.955 0 0 0 .441.419 2.27 2.27 0 0 0 .445.269c.172.081.36.156.558.237a6.19 6.19 0 0 1 1.211.61 8.544 8.544 0 0 1 1.083.8 4.311 4.311 0 0 1 .779.883 2.68 2.68 0 0 1 .215.415 2.42 2.42 0 0 1 .159.571z" class="cls-3" transform="translate(-1024.62 -333.62)"/>
        <path id="Path_418" d="M956.506 364.04c.181 3.434-.509 7.846-2.9 10.293-2.922 2.99-7.489 3.385-11.543 4.411a32.671 32.671 0 0 0-7.755 3.071c-1.234.678-2.953 1.367-3.869.3a2.651 2.651 0 0 1-.484-1.068 15.171 15.171 0 0 1-.451-4.558 29.325 29.325 0 0 1 .731-5.18 87.642 87.642 0 0 1 2.13-8.891c2.24-6.719 4.667-13.438 8.345-19.525 1.555-2.577 3.434-5.119 6.129-6.46a7.583 7.583 0 0 1 5.875-.412l.049.02c1.918.733 2.269 1.993 2.859 3.807a11.068 11.068 0 0 1 .731 3.454 47.819 47.819 0 0 0 .249 6.447c.051.4.016.808.032 1.214.156 4.074-.552 8.332-.182 12.357.025.233.041.473.054.72z" class="cls-4" transform="translate(-929.49 -323.709)"/>
        <path id="Path_419" d="M966.17 359.262c-.523.558-1.055 1.126-1.627 1.668-.275.266-.561.526-.86.772-.458.383-.944.766-1.411 1.136-.273.217-.546.431-.818.652-.551.445-.964.8-1.334 1.146a.635.635 0 0 1-.032.065.326.326 0 0 1-.032.055c-.007.01-.053.072-.127.182l-.043.065c-.029.042-.062.088-.091.14l-.159.259c-.126.224-.256.487-.373.756a7.566 7.566 0 0 0-.551 3.82c.026.221.068.471.133.769s.142.552.224.786c.029.084.059.169.087.257v.007a2.062 2.062 0 0 0 .226.149 3.9 3.9 0 0 0 .92.36c.155.045.323.081.5.117l.094.019.643.133c.178.039.354.081.516.127a.511.511 0 0 1 .169-.042h.042l.139.01h.068a.947.947 0 0 0 .127-.01 1.465 1.465 0 0 0 .656-.25 1.574 1.574 0 0 0 .474-.532 1.5 1.5 0 0 0 .087-.214c.007-.029.016-.058.024-.081a.314.314 0 0 1 .226-.244.216.216 0 0 1 .091-.016.116.116 0 0 1 .032 0 .327.327 0 0 1 .292.325.751.751 0 0 1-.016.133 1.531 1.531 0 0 1-.1.38 2.278 2.278 0 0 1-.61.883h-.007a2.322 2.322 0 0 1-.351.26l.052.039a2.151 2.151 0 0 1 .185.156 2.66 2.66 0 0 1 .256.257 2.3 2.3 0 0 1 .461.821 1.777 1.777 0 0 1 .059.3.2.2 0 0 1 .009.078.323.323 0 0 1-.25.315.3.3 0 0 1-.075.01.326.326 0 0 1-.289-.178.481.481 0 0 1-.038-.111 1.076 1.076 0 0 0-.058-.191 1.492 1.492 0 0 0-.322-.481c-.013-.013-.027-.029-.042-.042a2.117 2.117 0 0 0-.354-.273 2.278 2.278 0 0 0-.458-.224 5.236 5.236 0 0 0-1.159-.25c-.132-.017-.269-.029-.4-.046-.3-.029-.6-.062-.905-.117-.088-.013-.172-.029-.253-.045.143.3.292.594.439.893.282.568.57 1.155.824 1.74.068.052.146.107.241.172a4.49 4.49 0 0 0 .565.331 3.678 3.678 0 0 0 .393.179c.02.01.042.016.062.026.094.036.188.074.286.117a2.006 2.006 0 0 1 .454.282 1.727 1.727 0 0 1 .334.4 2.448 2.448 0 0 1 .3.782 5.148 5.148 0 0 1 .081.542l.019.2a.325.325 0 0 1-.279.351.221.221 0 0 1-.045 0 .327.327 0 0 1-.319-.263l-.035-.2a3.779 3.779 0 0 0-.1-.454 1.661 1.661 0 0 0-.247-.536.96.96 0 0 0-.2-.211 1.146 1.146 0 0 0-.277-.14c-.073-.026-.165-.055-.256-.084s-.191-.062-.288-.1c-.066-.023-.131-.046-.195-.075.022.078.045.156.064.234.049.172.091.341.127.507a8.358 8.358 0 0 1 .184 1.539 5.948 5.948 0 0 1-.12 1.318 4.78 4.78 0 0 1-.315.98 4.578 4.578 0 0 1-.332.6c-.058.088-.1.149-.117.172a.322.322 0 0 1-.263.136.345.345 0 0 1-.168-.045.326.326 0 0 1-.12-.425c.007-.016.1-.188.1-.188a3.329 3.329 0 0 0 .243-.516 4.038 4.038 0 0 0 .211-.834 5.091 5.091 0 0 0 .026-1.149 6.563 6.563 0 0 0-.14-.9 4.736 4.736 0 0 1-.328.987 7.586 7.586 0 0 1-.412.75l-.425.666a5.648 5.648 0 0 0-.6 1.152 2.954 2.954 0 0 0-.162.87 2.85 2.85 0 0 0 0 .308.328.328 0 0 1-.3.344h-.029a.322.322 0 0 1-.321-.285 2.888 2.888 0 0 1-.02-.38 3.994 3.994 0 0 1 .159-1.068 6.176 6.176 0 0 1 .627-1.334c.13-.218.263-.445.393-.675a6.254 6.254 0 0 0 .344-.676c.036-.087.068-.178.1-.269a4.056 4.056 0 0 0 .2-1.133 4.286 4.286 0 0 0-.139-1.25c-.049-.166-.1-.328-.159-.474s-.108-.244-.156-.328a1.567 1.567 0 0 0-.107-.191l-.078-.13a.472.472 0 0 1-.058-.266c-.094-.162-.189-.321-.283-.484q-.321-.55-.639-1.114c-.266-.48-.507-.961-.714-1.431a.915.915 0 0 1-.123-.217.651.651 0 0 1-.058-.214c-.1-.256-.189-.516-.254-.717-.091-.311-.162-.6-.228-.922 0 .055-.006.11-.009.165a28.218 28.218 0 0 0 0 2.876v.062c.039 1 .071 1.977.022 2.9a21.157 21.157 0 0 1-.281 2.6 18.359 18.359 0 0 1-.5 2.152c-.055.175-.114.344-.179.51a5.932 5.932 0 0 1-.545 1.1 3.83 3.83 0 0 1-.77.886 2.471 2.471 0 0 1-.246.188c-.023.016-.04.026-.046.032a.313.313 0 0 1-.214.087.328.328 0 0 1-.224-.568.86.86 0 0 1 .091-.075 2.3 2.3 0 0 0 .175-.162 3.364 3.364 0 0 0 .565-.779l.039-.074a5.953 5.953 0 0 0 .461-1.376 16.684 16.684 0 0 0 .292-2.065 19.467 19.467 0 0 0 .055-2.464c-.026-.727-.106-1.474-.214-2.337-.046.049-.091.1-.14.143a4.082 4.082 0 0 1-.769.555.324.324 0 1 1-.572.286l-.019.009c-.282.127-.568.24-.85.351l-.513.2c-.257.11-.447.2-.616.289l-.163.094c-.15.084-.311.175-.451.263a12.58 12.58 0 0 0-1.1.783l-.055.162c-.072.2-.16.481-.241.812a4.146 4.146 0 0 0-.075 1.964.7.7 0 0 1 .046.078l.042.046c.039.045.13.143.321.325.15.136.334.3.536.461a6.106 6.106 0 0 0 .643.467c.561.377 1 .691 1.307.941a3.919 3.919 0 0 1 .419.377 1.535 1.535 0 0 1 .155.182.353.353 0 0 1 .059.175.313.313 0 0 1-.126.269.321.321 0 0 1-.2.068.315.315 0 0 1-.208-.081.232.232 0 0 1-.039-.036.9.9 0 0 0-.1-.1 3.447 3.447 0 0 0-.386-.3c-.354-.25-.86-.552-1.309-.808l-.087-.049a7.652 7.652 0 0 1 .409.708 1.732 1.732 0 0 1 .228 1.078.739.739 0 0 1-.026.1.8.8 0 0 1-.162.308.326.326 0 0 1-.247.114.336.336 0 0 1-.2-.068.288.288 0 0 1-.059-.065.316.316 0 0 1 0-.38.316.316 0 0 0 .039-.12 1.138 1.138 0 0 0-.205-.617 11.11 11.11 0 0 0-.7-1.009l-.022-.032a7.54 7.54 0 0 1-.808-1.26 1.376 1.376 0 0 1-.062-.139.336.336 0 0 1-.028-.039l-.022-.032a.5.5 0 0 1-.094-.312 2.544 2.544 0 0 1-.075-.263 4.209 4.209 0 0 1-.107-.792 5.8 5.8 0 0 1 .027-.786c-.088.1-.169.2-.244.286-.01.013-.019.033-.032.052a1.5 1.5 0 0 1-.168.26 2.9 2.9 0 0 1-.309.338c-.165.224-.312.438-.434.636a9.4 9.4 0 0 0-.5.86c-.14.263-.247.5-.338.695-.052.117-.094.218-.127.3-.026.062-.046.117-.068.162l-.059.156a.331.331 0 0 1-.3.195.334.334 0 0 1-.111-.019.326.326 0 0 1-.2-.4.158.158 0 0 1 .013-.036c.007-.026.02-.068.033-.12s.032-.1.049-.143a3.372 3.372 0 0 1 .126-.376c.081-.237.182-.5.292-.75.052-.117.1-.234.153-.344-.032.013-.068.023-.1.036a6.084 6.084 0 0 0-1.143.51 9.514 9.514 0 0 0-1.064.714 3.928 3.928 0 0 0-.738.766 2.5 2.5 0 0 0-.2.347 1.819 1.819 0 0 0-.11.286 1.4 1.4 0 0 0-.043.175c0 .013-.02.094-.02.1a.322.322 0 0 1-.314.247.157.157 0 0 1-.04 0 .323.323 0 0 1-.285-.321c0-.016.006-.072.006-.084a2.609 2.609 0 0 1 .055-.286 2.087 2.087 0 0 1 .133-.393 2.937 2.937 0 0 1 .23-.448 4.612 4.612 0 0 1 .844-.961 8.418 8.418 0 0 1 1.127-.831 6.4 6.4 0 0 1 1.27-.643l.087-.036c.155-.062.3-.123.444-.188a2.07 2.07 0 0 0 .387-.234 3.089 3.089 0 0 0 .377-.354l.042-.072.156-.221a.191.191 0 0 0 .019-.039.454.454 0 0 1 .12-.156c.156-.214.344-.468.562-.724a11.137 11.137 0 0 1 .861-.929c-.125.007-.245.01-.364.013h-.163c-.26 0-.477-.006-.685-.026a8.116 8.116 0 0 1-.86-.14c-.253-.052-.5-.11-.749-.169a.877.877 0 0 0-.26.1 1.715 1.715 0 0 0-.441.458 5.449 5.449 0 0 1-.658.763c-.231.221-.465.419-.691.61l-.03.026a3.376 3.376 0 0 1-.769.5 1.449 1.449 0 0 1-.595.133 1.07 1.07 0 0 1-.149-.01.9.9 0 0 1-.243-.065.324.324 0 0 1 .133-.62.331.331 0 0 1 .094.013.821.821 0 0 0 .094.017h.009a.789.789 0 0 0 .363-.094 2.685 2.685 0 0 0 .571-.425c.215-.2.442-.415.653-.639a4.482 4.482 0 0 0 .525-.678c.072-.107.142-.214.221-.315a5.144 5.144 0 0 0-.574-.036c-.124 0-.241.007-.354.016a2.876 2.876 0 0 0-.85.211 1.325 1.325 0 0 0-.267.14.337.337 0 0 1-.445-.068.325.325 0 0 1 .046-.445 2.317 2.317 0 0 1 .366-.237 3.463 3.463 0 0 1 1.052-.35 5.186 5.186 0 0 1 .847-.065c.21 0 .432.01.652.029.325.033.659.081.984.13.207.029.415.062.626.088.3.036.544.055.759.062h.169c.172 0 .357-.01.562-.029a9.38 9.38 0 0 0 1.308-.2 8.945 8.945 0 0 0 .892-.244l.045-.016c.074-.023.14-.046.185-.065a.129.129 0 0 1 .032-.013c.217-.136.438-.256.617-.347-.042-.007-.084-.01-.123-.017a5.827 5.827 0 0 1-1.669-.454 7.686 7.686 0 0 1-1.025-.614c-.124-.081-.241-.162-.357-.234a3.4 3.4 0 0 0-1.088-.506 1.7 1.7 0 0 0-.454-.058 1.448 1.448 0 0 0-.325.032.939.939 0 0 0-.188.065c-.065.026-.107.045-.12.048a.357.357 0 0 1-.1.017.324.324 0 0 1-.179-.594.593.593 0 0 1 .09-.055 1.614 1.614 0 0 1 .292-.14 2.271 2.271 0 0 1 .8-.133 2.984 2.984 0 0 1 .328.019 4.317 4.317 0 0 1 1.422.451c.133.062.269.133.406.2a7.089 7.089 0 0 0 .935.416 4.578 4.578 0 0 0 1.347.211h.172a10.244 10.244 0 0 0 1.08-.062c.28-.036.569-.081.874-.143l.315-.072a.209.209 0 0 1 .042-.009.112.112 0 0 1 .033-.007 3.781 3.781 0 0 0 .263-.48 5.327 5.327 0 0 0 .425-1.487.087.087 0 0 0 0-.026l-.013-.266a11.3 11.3 0 0 1 .09-1.7 8.286 8.286 0 0 1 .154-.883l.1-.393c.028-.107.055-.2.084-.286l.049-.152a10.613 10.613 0 0 1 1.7-3.058 21.558 21.558 0 0 1 2.178-2.367l.224-.214h-.182a1.939 1.939 0 0 0-.546.11.781.781 0 0 0-.094.039l-.071.039c-.042.026-.088.049-.133.075-.09.055-.22.139-.348.227a5.272 5.272 0 0 0-.711.623 4.761 4.761 0 0 0-.633.815 8.744 8.744 0 0 0-.519 1.006l-.3.62c-.045.087-.087.169-.142.263l-.146.263a7.48 7.48 0 0 1-.52.763l.006.237a3.548 3.548 0 0 1-.33 1.678 3.815 3.815 0 0 1-.545.72 4.211 4.211 0 0 0-.4.5.927.927 0 0 0-.143.331c-.009.042-.009.062-.013.078v.039a.334.334 0 0 1-.328.331.318.318 0 0 1-.325-.315v-.049a1.214 1.214 0 0 1 .01-.188 1.5 1.5 0 0 1 .2-.588 4.838 4.838 0 0 1 .429-.616 3.271 3.271 0 0 0 .39-.6 1.809 1.809 0 0 0 .136-.536 8.13 8.13 0 0 1-.951.779 7.682 7.682 0 0 1-.756.464 6.718 6.718 0 0 1-.611.3c-.162.072-.3.123-.389.156l-.137.052a.313.313 0 0 1-.12.023.326.326 0 0 1-.168-.6c.016-.006.046-.023.088-.042l.058-.029c.081-.042.2-.1.35-.188.176-.1.347-.211.522-.331a7.493 7.493 0 0 0 .63-.491 7.3 7.3 0 0 0 1.3-1.473c.043-.065.078-.127.114-.189l.01-.013a.472.472 0 0 1 .149-.25c.107-.188.192-.35.259-.5l.117-.276.1-.26s.237-.675.256-.737a.068.068 0 0 0-.016.006c-.146.055-.3.111-.467.163-.292.094-.591.178-.89.263-.328.091-.669.185-.99.3a6.632 6.632 0 0 0-.854.344 4.623 4.623 0 0 0-.735.457 6.876 6.876 0 0 0-1.142 1.133c-.315.38-.555.718-.718.942l-.11.159-.159.221a.32.32 0 0 1-.257.127.328.328 0 0 1-.184-.058.322.322 0 0 1-.094-.432l.22-.389c.133-.227.354-.61.649-1.052.063-.094.121-.182.182-.263l-.236.039a2.7 2.7 0 0 1-.426.039h-.117c-.071 0-.136 0-.2.007a1.637 1.637 0 0 0-.512.1.763.763 0 0 0-.257.165.239.239 0 0 0-.049.052.043.043 0 0 1-.012.013.32.32 0 0 1-.27.146.348.348 0 0 1-.149-.036.327.327 0 0 1-.14-.438s.013-.026.017-.029a1.473 1.473 0 0 1 .1-.149 1.453 1.453 0 0 1 .46-.373 2.383 2.383 0 0 1 .712-.227c.123-.023.269-.039.382-.048.085-.007.172-.026.26-.042l.055-.01a8.309 8.309 0 0 0 1.21-.383 2.625 2.625 0 0 0 .351-.159l.09-.052a5.406 5.406 0 0 1 .552-.4 7.684 7.684 0 0 1 .954-.5c.344-.156.692-.292 1.026-.422-.036-.022-.068-.049-.1-.071a2.533 2.533 0 0 0-.24-.159.719.719 0 0 0-.266-.11.533.533 0 0 0-.091-.01.758.758 0 0 0-.077.007l-.035.013a.319.319 0 0 1-.131.029.326.326 0 0 1-.284-.162.318.318 0 0 1 .081-.419.927.927 0 0 1 .162-.088 1.13 1.13 0 0 1 .39-.068h.059a1.508 1.508 0 0 1 .544.143c.1.046.211.1.318.159l.136.072a1.958 1.958 0 0 0 .63.208l.1-.046c.111-.055.227-.12.338-.181.195-.12.4-.253.633-.412.422-.289.763-.549.945-.688l.24-.2.1-.078a.58.58 0 0 1 .088-.065l.2-.2c.145-.133.292-.25.473-.386l.068-.048c.048-.036.091-.065.159-.114l.065-.039a3.474 3.474 0 0 0-.643-.51 1.635 1.635 0 0 0-.857-.263 1.3 1.3 0 0 0-.227.02 2.394 2.394 0 0 0-.672.23c-.136.068-.276.149-.416.23s-.253.143-.383.211c-.539.292-1.09.587-1.6.863a8.712 8.712 0 0 1-1.529.685 3.648 3.648 0 0 1-1.088.179h-.152a3.245 3.245 0 0 1-.366-.049l-.091-.017a.325.325 0 0 1 .052-.646l.142.01a1.138 1.138 0 0 0 .189.01h.088a2.722 2.722 0 0 0 .954-.234 8.024 8.024 0 0 0 1.308-.753l.656-.438c-.074-.023-.155-.042-.24-.068l-.256-.075c-.23-.068-.468-.139-.7-.191a4.58 4.58 0 0 0-1-.12 2.37 2.37 0 0 0-.691.091 1.416 1.416 0 0 0-.461.221.594.594 0 0 0-.091.072.285.285 0 0 1-.036.029.321.321 0 0 1-.233.1.314.314 0 0 1-.2-.071.32.32 0 0 1-.068-.429.6.6 0 0 1 .055-.062.112.112 0 0 1 .033-.036 1.431 1.431 0 0 1 .152-.136 2.168 2.168 0 0 1 .63-.354 3.467 3.467 0 0 1 1.194-.185 5.4 5.4 0 0 1 .879.072c.263.048.51.107.747.162l.269.062a5.947 5.947 0 0 0 .815.146c.1.01.189.016.266.016a.788.788 0 0 0 .084 0c.12-.081.237-.159.36-.234a5.131 5.131 0 0 1-.59-.675 2.6 2.6 0 0 1-.159-.25l-.074-.137a.163.163 0 0 1-.02-.042c-.019-.039-.036-.075-.055-.127a2.351 2.351 0 0 1-.149-.623.41.41 0 0 1-.007-.078.24.24 0 0 1-.016-.055c-.013-.042-.052-.159-.1-.315a5.082 5.082 0 0 0-.309-.672 2.33 2.33 0 0 0-.418-.552 1.487 1.487 0 0 0-.169-.133l-.088-.052a.328.328 0 0 1-.114-.4.32.32 0 0 1 .3-.191.376.376 0 0 1 .081.009c.02.007.058.02.117.046a1.514 1.514 0 0 1 .312.179 3.012 3.012 0 0 1 .659.653c.039.049.078.1.117.156a1.75 1.75 0 0 1 .747-.575 1.713 1.713 0 0 1 .614-.123 1.524 1.524 0 0 1 .494.091.326.326 0 0 1-.131.624.366.366 0 0 1-.084-.01.967.967 0 0 0-.156-.016.914.914 0 0 0-.41.117.939.939 0 0 0-.4.438 1.162 1.162 0 0 0-.048.7 1.519 1.519 0 0 0 .13.341l.045.072.062.094c.029.035.071.087.117.139a3.956 3.956 0 0 0 .558.507 3.247 3.247 0 0 0 .432.273c.039.016.065.029.1.039a2.921 2.921 0 0 1 .413-.032 2.4 2.4 0 0 1 .461.042 4.3 4.3 0 0 1-.045-.591 6.729 6.729 0 0 1 .156-1.5c.054-.269.123-.526.2-.8v-.006a1.576 1.576 0 0 0-.1-.425 5.322 5.322 0 0 0-.9-1.419 4.527 4.527 0 0 1-.98-1.737 2.011 2.011 0 0 1-.036-.717c.009-.071.026-.133.036-.179a.515.515 0 0 1 .042-.133.321.321 0 0 1 .288-.175.282.282 0 0 1 .075.01.326.326 0 0 1 .25.315.765.765 0 0 1-.009.081l-.007.046a.416.416 0 0 0-.013.1 1.291 1.291 0 0 0 .054.481 2.449 2.449 0 0 0 .328.659 6.1 6.1 0 0 0 .585.714 7.641 7.641 0 0 1 .827 1.039c.156-.412.328-.815.51-1.194a1.914 1.914 0 0 1-.126-.2.317.317 0 0 1-.026-.055l-.023-.058a1.39 1.39 0 0 1-.084-.269 1.828 1.828 0 0 1-.059-.364 2.193 2.193 0 0 1-.012-.266v-.1a5.824 5.824 0 0 1 .094-.828 7.523 7.523 0 0 1 .4-1.412 5 5 0 0 1 .272-.62.32.32 0 0 1 .285-.172.313.313 0 0 1 .143.033.325.325 0 0 1 .152.425 5.7 5.7 0 0 0-.191.555 7 7 0 0 0-.259 1.308 4.5 4.5 0 0 0-.024.688l.007.075a1.386 1.386 0 0 0 .016.179c.126-.221.259-.442.4-.662.214-.334.347-.516.364-.536a.321.321 0 0 1 .259-.13.338.338 0 0 1 .182.055.325.325 0 0 1 .094.438c-.026.042-.136.23-.3.529a14.7 14.7 0 0 0-.694 1.477 15.2 15.2 0 0 0-.7 2.184c-.036.156-.068.309-.1.455a4.391 4.391 0 0 1 .717-.458.648.648 0 0 1 .068-.078 3.119 3.119 0 0 1 .34-.335c.085-.074.188-.156.3-.243a6.509 6.509 0 0 0 .643-.571 1.994 1.994 0 0 0 .321-.481c.072-.159.143-.334.211-.519.072-.2.117-.367.143-.458l.013-.042a.326.326 0 0 1 .312-.234.313.313 0 0 1 .078.01.323.323 0 0 1 .24.38c-.02.1-.068.3-.143.552a5 5 0 0 1-.211.6 2.54 2.54 0 0 1-.419.688c-.081.091-.162.179-.247.263a2.338 2.338 0 0 1 .308.019 2.021 2.021 0 0 1 .676.211 2.176 2.176 0 0 1 .23.143.325.325 0 0 1-.2.585.313.313 0 0 1-.181-.055c-.007 0-.059-.036-.15-.078a1.306 1.306 0 0 0-.448-.107c-.042 0-.081-.006-.123-.006a1.971 1.971 0 0 0-.565.091 3.281 3.281 0 0 0-.743.344c-.016.006-.032.016-.049.023a3.518 3.518 0 0 0-1.13 1.061 2.66 2.66 0 0 0-.185.312 3.539 3.539 0 0 0 .016.435 2.7 2.7 0 0 0 .3 1.068 1.826 1.826 0 0 0 .127.195.15.15 0 0 1 .016.029c.026.036.091.1.13.143l.025.029a1.723 1.723 0 0 0 .371.279 3.22 3.22 0 0 0 .948.341 4.533 4.533 0 0 0 .9.091h.042a3.28 3.28 0 0 0 .63-.071 15.758 15.758 0 0 0 1.289-1.506 6.708 6.708 0 0 0 .97-2.029c.144-.451.3-.909.461-1.37s.338-.906.517-1.36a5.958 5.958 0 0 1 .4-.854.317.317 0 0 1 .235-.149 57.744 57.744 0 0 0 .307 7.24z" class="cls-5" transform="translate(-939.046 -332.759)"/>
        <path id="Path_420" d="M967.021 359.655c-.3.318-.591.633-.89.945a21.289 21.289 0 0 1-1.795 1.714c-.718.6-1.477 1.181-2.227 1.785-.328.266-.656.539-.97.818-.146.129-.289.259-.432.393a.655.655 0 0 1-.042.094.319.319 0 0 1-.022.036l-.123.182c-.039.058-.094.133-.143.214s-.1.165-.159.266a8.427 8.427 0 0 0-.393.789 8.6 8.6 0 0 0-.374 1.094 8.062 8.062 0 0 0-.2 2.9c.03.263.081.542.136.8.072.293.143.552.234.822.039.117.081.234.123.354.006 0 .01.01.017.013a1.987 1.987 0 0 0 .334.227 4.074 4.074 0 0 0 .986.39c.189.052.4.094.607.139s.429.088.643.133.438.1.649.165a.163.163 0 0 1 .123-.075h.022l.111.01a1.339 1.339 0 0 0 .269-.01 1.774 1.774 0 0 0 .792-.3 1.877 1.877 0 0 0 .581-.656 1.545 1.545 0 0 0 .11-.273c.013-.052.026-.084.03-.1 0 .016-.007.049-.016.1a1.366 1.366 0 0 1-.078.292 1.977 1.977 0 0 1-1.367 1.2l-.032.009c.019.01.042.016.065.026a2.838 2.838 0 0 1 .519.318 2.583 2.583 0 0 1 .4.37 1.958 1.958 0 0 1 .392.7 1.145 1.145 0 0 1 .046.221.031.031 0 1 1-.007 0 1.493 1.493 0 0 0-.064-.211 1.9 1.9 0 0 0-.442-.643 2.639 2.639 0 0 0-.409-.315 2.687 2.687 0 0 0-.52-.253 5.543 5.543 0 0 0-1.23-.266c-.431-.052-.866-.085-1.292-.159a5.031 5.031 0 0 1-.873-.224l-.03-.01c.069.149.137.3.208.448.458.974.974 1.932 1.383 2.9.088.068.191.146.325.237l.152.1a4.806 4.806 0 0 0 .451.253c.23.123.487.211.753.328a1.523 1.523 0 0 1 .37.227 1.4 1.4 0 0 1 .272.325 2.113 2.113 0 0 1 .26.682 4.465 4.465 0 0 1 .078.506l.016.191s-.013-.068-.033-.191a4.152 4.152 0 0 0-.11-.494 2.086 2.086 0 0 0-.3-.636 1.22 1.22 0 0 0-.62-.461c-.257-.091-.536-.165-.782-.272a5.83 5.83 0 0 1-.636-.315 10.328 10.328 0 0 1 .432 1.441 7.947 7.947 0 0 1 .178 1.477 5.627 5.627 0 0 1-.113 1.247 4.507 4.507 0 0 1-.3.919 4.3 4.3 0 0 1-.3.539c-.058.087-.1.146-.114.169.013-.026.049-.084.1-.179a3.786 3.786 0 0 0 .26-.552 4.254 4.254 0 0 0 .231-.915 5.54 5.54 0 0 0 .029-1.217 7.467 7.467 0 0 0-.269-1.415 9.724 9.724 0 0 0-.461-1.25 5.1 5.1 0 0 1 .046 1.078 4.607 4.607 0 0 1-.4 1.571 6.809 6.809 0 0 1-.392.714c-.143.227-.286.448-.422.662a5.921 5.921 0 0 0-.633 1.224 3.325 3.325 0 0 0-.179.961c-.007.172 0 .289 0 .341a2.927 2.927 0 0 1-.016-.341 3.589 3.589 0 0 1 .156-.981 5.805 5.805 0 0 1 .594-1.262l.4-.679a6.183 6.183 0 0 0 .36-.714 4.435 4.435 0 0 0 .325-1.516 4.616 4.616 0 0 0-.15-1.34c-.055-.188-.114-.36-.172-.51s-.12-.273-.175-.37a1.906 1.906 0 0 0-.133-.234c-.033-.055-.049-.085-.049-.085a.168.168 0 0 1 0-.162c-.321-.558-.659-1.123-.984-1.7-.26-.467-.5-.948-.714-1.441a.623.623 0 0 1-.1-.165.512.512 0 0 1-.039-.143.155.155 0 0 1 0-.023v-.009c-.1-.25-.188-.51-.263-.74-.09-.308-.159-.594-.218-.892a8.876 8.876 0 0 1-.107-2.376c-.013.029-.026.065-.036.088l-.129.373v.007c-.059.214-.127.425-.171.665a9.646 9.646 0 0 0-.205 1.454 28.487 28.487 0 0 0 .006 2.974c.039.98.071 1.954.023 2.87a18.315 18.315 0 0 1-.179 1.863v.039c-.03.228-.065.445-.1.659a17.242 17.242 0 0 1-.487 2.113 6.315 6.315 0 0 1-.685 1.529 3.568 3.568 0 0 1-.7.812 2.51 2.51 0 0 1-.224.172.489.489 0 0 1-.045.029.479.479 0 0 1 .042-.036c.048-.042.12-.1.2-.188a3.557 3.557 0 0 0 .616-.85 6.092 6.092 0 0 0 .532-1.536 17.154 17.154 0 0 0 .3-2.1 20.276 20.276 0 0 0 .056-2.506c-.032-.889-.146-1.814-.27-2.791-.013-.12-.029-.247-.045-.37-.026.042-.055.088-.084.13a3.8 3.8 0 0 1-.506.62 4.653 4.653 0 0 1-1.269.785c-.448.2-.906.367-1.351.552-.224.094-.441.192-.646.3s-.437.243-.636.37a12.041 12.041 0 0 0-1.185.847.1.1 0 0 0-.02.016c-.016.052-.045.137-.083.25-.068.2-.163.49-.247.841a6.072 6.072 0 0 0-.13.679v.006a3.876 3.876 0 0 0 .074 1.51.116.116 0 0 1 .022.023s0 .006.007.01a.326.326 0 0 1 .026.042.8.8 0 0 0 .071.094 4.929 4.929 0 0 0 .354.357c.156.143.344.305.548.474a6.854 6.854 0 0 0 .672.49c.477.318.948.649 1.282.922a3.756 3.756 0 0 1 .386.344 1.507 1.507 0 0 1 .131.149 1.349 1.349 0 0 0-.14-.137 3.738 3.738 0 0 0-.409-.318c-.351-.247-.841-.539-1.334-.824a6.409 6.409 0 0 1-.72-.451c-.221-.156-.425-.305-.594-.441a.089.089 0 0 0-.019-.016 9.853 9.853 0 0 0 .545.9 11.269 11.269 0 0 1 .656 1.091 1.448 1.448 0 0 1 .2.873.564.564 0 0 1-.117.257.607.607 0 0 0 .1-.26 1.414 1.414 0 0 0-.25-.834 11.016 11.016 0 0 0-.714-1.036 7.78 7.78 0 0 1-.8-1.236c-.026-.052-.049-.111-.071-.169-.02-.022-.039-.045-.046-.055l-.029-.042a.158.158 0 0 1-.019-.146 2.627 2.627 0 0 1-.091-.305 3.921 3.921 0 0 1-.1-.737 5.967 5.967 0 0 1 .1-1.3c.029-.159.059-.3.088-.435-.129.123-.263.247-.383.373-.227.23-.432.467-.627.7 0 .006-.013.029-.035.068a1.427 1.427 0 0 1-.143.221 2.624 2.624 0 0 1-.3.321c-.172.231-.331.461-.468.682a9.862 9.862 0 0 0-.509.883c-.143.269-.253.509-.344.711s-.146.36-.195.471l-.062.156c.007-.023.026-.078.049-.163.039-.11.081-.279.162-.484s.166-.458.289-.74a10.063 10.063 0 0 1 .447-.928c.033-.065.072-.13.107-.195a2.092 2.092 0 0 1-.317.162c-.185.078-.386.146-.588.214a6.349 6.349 0 0 0-1.2.539 9.292 9.292 0 0 0-1.1.74 4.275 4.275 0 0 0-.8.831 2.93 2.93 0 0 0-.234.4 2.129 2.129 0 0 0-.127.334 1.4 1.4 0 0 0-.052.224c-.007.026-.01.046-.013.059a.587.587 0 0 1 .006-.059 1.985 1.985 0 0 1 .045-.227 1.809 1.809 0 0 1 .114-.344 2.578 2.578 0 0 1 .214-.415 4.343 4.343 0 0 1 .779-.883 8.707 8.707 0 0 1 1.084-.8 6.216 6.216 0 0 1 1.21-.61c.2-.081.386-.156.559-.237a2.231 2.231 0 0 0 .444-.269 2.972 2.972 0 0 0 .442-.419l.059-.094.159-.227c.017-.036.03-.058.03-.058a.176.176 0 0 1 .065-.075c.178-.247.364-.493.571-.74a12.558 12.558 0 0 1 .9-.964.23.23 0 0 1 .088-.091l.02-.02c.149-.136.3-.269.451-.4l.006-.006c.026-.026.059-.052.084-.075a10.938 10.938 0 0 1-1.3.1 7.768 7.768 0 0 1-.815-.026c-.191-.019-.376-.049-.565-.084h-.013c-.081-.013-.166-.029-.247-.046-.269-.055-.536-.117-.8-.179a1.057 1.057 0 0 0-.445.153 1.847 1.847 0 0 0-.539.549 5.056 5.056 0 0 1-.62.717c-.234.224-.477.429-.707.623a3.031 3.031 0 0 1-.688.451 1.069 1.069 0 0 1-.568.1.658.658 0 0 1-.157-.039.89.89 0 0 0 .157.026 1.056 1.056 0 0 0 .551-.127 2.993 2.993 0 0 0 .646-.477c.22-.2.451-.422.669-.652a4.942 4.942 0 0 0 .565-.731 3.708 3.708 0 0 1 .259-.357 1.434 1.434 0 0 1 .304-.266c.036-.023.072-.042.107-.062-.107-.022-.215-.042-.322-.061a5.089 5.089 0 0 0-1.376-.075 3.114 3.114 0 0 0-.948.234 2.3 2.3 0 0 0-.312.162 2.1 2.1 0 0 1 .3-.188 3.09 3.09 0 0 1 .948-.315 5.459 5.459 0 0 1 1.419-.032c.516.049 1.058.146 1.6.214.266.032.536.058.792.065a6.094 6.094 0 0 0 .77-.026 10.086 10.086 0 0 0 1.35-.211c.389-.087.711-.181.925-.253.1-.036.191-.065.253-.091.022-.006.036-.013.052-.016a.029.029 0 0 1 .016-.013c.224-.143.454-.266.679-.38.321-.162.633-.309.932-.458a.012.012 0 0 1 .01 0l.081-.042a9.938 9.938 0 0 1-1.328-.084 5.546 5.546 0 0 1-1.574-.429 6.871 6.871 0 0 1-.906-.539.015.015 0 0 1-.013-.007c-.146-.1-.289-.195-.428-.282a3.782 3.782 0 0 0-1.189-.549 2 2 0 0 0-.925-.023 1.628 1.628 0 0 0-.253.085l-.081.036c.009-.007.036-.023.075-.045a1.66 1.66 0 0 1 .247-.117 2.115 2.115 0 0 1 .968-.094 4.01 4.01 0 0 1 1.317.422 12.667 12.667 0 0 0 1.383.633 4.882 4.882 0 0 0 1.438.227 9.971 9.971 0 0 0 1.3-.062c.376-.045.691-.1.9-.146l.344-.078h.006a.577.577 0 0 1 .149-.007 3.746 3.746 0 0 0 .383-.668 5.574 5.574 0 0 0 .454-1.584v-.052c0-.094-.009-.188-.013-.282a10.907 10.907 0 0 1 .088-1.649 8.611 8.611 0 0 1 .149-.857l.1-.38c.042-.169.088-.282.13-.428a10.441 10.441 0 0 1 1.646-2.951 21.437 21.437 0 0 1 2.146-2.331c.23-.22.458-.434.681-.646l-.067-.022c-.013 0-.023-.01-.036-.013a.573.573 0 0 1-.084-.023c-.043-.013-.111-.023-.179-.036a2.194 2.194 0 0 0-.509-.029 2.266 2.266 0 0 0-.643.13 1.15 1.15 0 0 0-.137.058c-.065.036-.13.075-.2.111-.117.071-.253.159-.383.25a5.462 5.462 0 0 0-.763.665 5.3 5.3 0 0 0-.672.867l-.058.1c-.175.3-.325.613-.484.951l-.269.565c-.048.1-.091.185-.149.286l-.149.266a7.87 7.87 0 0 1-.565.815c0 .1.006.217.009.35a3.224 3.224 0 0 1-.3 1.519 3.487 3.487 0 0 1-.5.656 4.169 4.169 0 0 0-.439.542 1.236 1.236 0 0 0-.188.451.936.936 0 0 0-.017.136v.049-.049a.784.784 0 0 1 .006-.14 1.188 1.188 0 0 1 .159-.474 4.258 4.258 0 0 1 .4-.581 3.494 3.494 0 0 0 .429-.662 3.008 3.008 0 0 0 .169-1.435.135.135 0 0 1 0-.039 8.2 8.2 0 0 1-1.46 1.318 7.5 7.5 0 0 1-.724.445c-.224.124-.422.218-.588.289s-.3.123-.386.156l-.13.049c.017-.01.059-.029.123-.062.085-.042.211-.107.367-.2s.34-.2.545-.344a7.682 7.682 0 0 0 2.012-2.052c.059-.084.111-.178.163-.266a.16.16 0 0 1 .087-.14c.111-.191.218-.389.309-.591l.12-.279.107-.269.2-.574c.084-.247.175-.5.276-.75 0 0 0-.006.006-.01.02-.059.046-.114.072-.172l-.3.156c-.136.068-.279.133-.442.2-.136.052-.288.1-.447.156-.614.2-1.263.351-1.883.558a7.286 7.286 0 0 0-.892.36 4.829 4.829 0 0 0-.789.493c-.049.036-.1.075-.143.11a7.5 7.5 0 0 0-1.049 1.068c-.318.383-.561.724-.73.961-.15.211-.241.341-.263.37.02-.033.1-.172.224-.393.146-.253.357-.617.636-1.035a8.3 8.3 0 0 1 .759-.98 8.681 8.681 0 0 1-1.133.256 2.51 2.51 0 0 1-.377.036c-.127 0-.237 0-.351.01a2.023 2.023 0 0 0-.6.127 1.044 1.044 0 0 0-.366.237.784.784 0 0 0-.082.091.085.085 0 0 0-.019.026c0-.007.009-.016.016-.029a.965.965 0 0 1 .072-.1 1.114 1.114 0 0 1 .354-.282 2.076 2.076 0 0 1 .614-.195 3.268 3.268 0 0 1 .357-.045 3.449 3.449 0 0 0 .351-.059 8.412 8.412 0 0 0 1.272-.4 3.311 3.311 0 0 0 .386-.179 1.156 1.156 0 0 0 .121-.071 5.54 5.54 0 0 1 .535-.39 7.486 7.486 0 0 1 .916-.477c.565-.253 1.139-.457 1.658-.675a2.483 2.483 0 0 1-.539-.279c-.139-.094-.272-.195-.4-.273a1.058 1.058 0 0 0-.383-.153.734.734 0 0 0-.3 0 .776.776 0 0 0-.1.036.646.646 0 0 1 .1-.049.765.765 0 0 1 .3-.042 1.177 1.177 0 0 1 .425.114c.15.065.3.149.442.224a2.24 2.24 0 0 0 .834.25c.062-.029.123-.055.189-.088.113-.055.237-.123.354-.191.234-.14.454-.286.656-.425.405-.276.733-.526.957-.7l.25-.2.094-.075a.483.483 0 0 1 .085-.058c.078-.074.152-.152.227-.224.146-.13.289-.243.445-.36.081-.058.123-.091.214-.152a1.852 1.852 0 0 1 .286-.15c.049-.022.094-.039.139-.058l-.006-.007-.013-.016c-.052-.055-.123-.136-.207-.221a3.963 3.963 0 0 0-.793-.646 1.879 1.879 0 0 0-1.3-.286 2.631 2.631 0 0 0-.763.263c-.256.127-.522.3-.8.442-.545.3-1.094.591-1.606.866-.241.13-.481.253-.712.361a6.37 6.37 0 0 1-.759.3 3.172 3.172 0 0 1-1.126.162 2.7 2.7 0 0 1-.315-.042l-.11-.02.114.01a2.15 2.15 0 0 0 .312.01 3.149 3.149 0 0 0 1.074-.26 8.262 8.262 0 0 0 1.363-.782l1.3-.87c-.032 0-.065-.007-.1-.013a7.488 7.488 0 0 1-.88-.2c-.315-.091-.642-.2-.977-.273a3.884 3.884 0 0 0-1.86-.022 1.814 1.814 0 0 0-.555.269 1.055 1.055 0 0 0-.136.11.041.041 0 0 0-.013.01.143.143 0 0 1 .01-.013 1.267 1.267 0 0 1 .129-.117 1.81 1.81 0 0 1 .549-.312 3.958 3.958 0 0 1 1.912-.1c.348.062.682.149 1 .221a7.079 7.079 0 0 0 .857.153 2.51 2.51 0 0 0 .491.006c.188-.127.376-.253.58-.377.075-.042.15-.084.227-.12-.084-.068-.175-.143-.269-.227a4.792 4.792 0 0 1-.617-.695c-.049-.068-.1-.143-.143-.221l-.068-.127a1 1 0 0 1-.052-.12 1.977 1.977 0 0 1-.137-.552c-.007-.042 0-.084-.007-.13 0-.007-.013-.016-.016-.026a.052.052 0 0 1-.006-.019s-.043-.143-.114-.347a5.106 5.106 0 0 0-.331-.724 2.661 2.661 0 0 0-.487-.636 1.336 1.336 0 0 0-.208-.162l-.081-.049c.013 0 .042.016.087.035a1.369 1.369 0 0 1 .234.137 2.694 2.694 0 0 1 .587.584 4.433 4.433 0 0 1 .406.633 1.783 1.783 0 0 1 .146-.35 1.385 1.385 0 0 1 .321-.373 1.339 1.339 0 0 1 .37-.221 1.278 1.278 0 0 1 .626-.091.922.922 0 0 1 .23.055 1.063 1.063 0 0 0-.234-.026 1.214 1.214 0 0 0-.574.159 1.251 1.251 0 0 0-.542.6 1.432 1.432 0 0 0-.065.9 1.686 1.686 0 0 0 .162.422c.016.029.042.072.061.1l.059.088c.046.059.094.117.143.172a4.252 4.252 0 0 0 .607.552 3.332 3.332 0 0 0 .48.3c.052.023.088.039.13.055l.059.023a.036.036 0 0 0 .013.01 2.307 2.307 0 0 1 .87-.007 2.715 2.715 0 0 1 .477.133 3.789 3.789 0 0 1-.153-1.048 6.393 6.393 0 0 1 .15-1.425c.058-.285.133-.558.207-.828v-.052a1.825 1.825 0 0 0-.123-.542 5.548 5.548 0 0 0-.947-1.509 4.154 4.154 0 0 1-.912-1.6 1.677 1.677 0 0 1-.032-.6 1.352 1.352 0 0 1 .036-.166.2.2 0 0 1 .01-.042c0 .006 0 .023-.006.042a1.106 1.106 0 0 0-.022.169 1.584 1.584 0 0 0 .068.587 2.734 2.734 0 0 0 .373.75 5.922 5.922 0 0 0 .613.75 5.74 5.74 0 0 1 1.078 1.519l.046.11a15.521 15.521 0 0 1 .84-2.065c-.022-.023-.052-.052-.094-.091a1.889 1.889 0 0 1-.143-.211 1.714 1.714 0 0 1-.094-.276 1.6 1.6 0 0 1-.052-.325 3.06 3.06 0 0 1-.013-.357 5.615 5.615 0 0 1 .088-.756 7.466 7.466 0 0 1 .383-1.357 5.476 5.476 0 0 1 .256-.585 5.06 5.06 0 0 0-.208.6 7.316 7.316 0 0 0-.272 1.364 5.135 5.135 0 0 0-.023.734 2.59 2.59 0 0 0 .035.328 1.554 1.554 0 0 0 .16.49c.039.046.058.081.087.117a.372.372 0 0 0 .04.033c.263-.507.513-.919.7-1.214s.321-.477.35-.516c-.026.042-.139.234-.308.542a15.212 15.212 0 0 0-.712 1.509 15.625 15.625 0 0 0-.71 2.233c-.1.415-.185.854-.243 1.292l-.02.178a3.909 3.909 0 0 1 1.377-1.126c.009-.007.023-.01.032-.016s.036-.049.1-.117a2.759 2.759 0 0 1 .312-.305 11.847 11.847 0 0 0 .964-.84 2.2 2.2 0 0 0 .377-.562c.091-.2.165-.386.224-.552.088-.247.14-.438.162-.516-.016.081-.062.273-.137.526a5.4 5.4 0 0 1-.2.568 2.151 2.151 0 0 1-.364.594 11.128 11.128 0 0 1-.935.886c-.065.058-.12.113-.166.162a3 3 0 0 1 .53-.175 2.263 2.263 0 0 1 .834-.052 1.759 1.759 0 0 1 .565.175 1.82 1.82 0 0 1 .188.117 1.637 1.637 0 0 0-.194-.1 1.68 1.68 0 0 0-.562-.136 2.179 2.179 0 0 0-.805.1 1.747 1.747 0 0 0-.207.075 3.293 3.293 0 0 0-.561.276.039.039 0 0 0-.016.01.153.153 0 0 0-.033.016c-.01 0-.016.006-.026.013a3.825 3.825 0 0 0-1.253 1.172 3.519 3.519 0 0 0-.237.413 4.969 4.969 0 0 0 .016.542 3.07 3.07 0 0 0 .341 1.194 2.441 2.441 0 0 0 .152.237 1.084 1.084 0 0 0 .075.094c.045.052.094.1.12.13a2.18 2.18 0 0 0 .445.341 3.435 3.435 0 0 0 .961.357l.082.019a4.938 4.938 0 0 0 1.013.1 3.637 3.637 0 0 0 .792-.1 15.5 15.5 0 0 0 1.383-1.61 6.961 6.961 0 0 0 1.02-2.12c.042-.136.088-.27.133-.406.136-.412.279-.825.432-1.233q.195-.541.406-1.072a5.782 5.782 0 0 1 .247-.565 2.3 2.3 0 0 1 .129-.24v.039a54.625 54.625 0 0 1 .234 5.609c-.005.249.001.515.004.781z" class="cls-3" transform="translate(-939.908 -333.62)"/>
        <path id="Path_421" d="M956.506 365.184c.181 3.434-.509 7.846-2.9 10.293-2.922 2.99-7.489 3.385-11.543 4.411a32.671 32.671 0 0 0-7.755 3.07c-1.234.678-2.953 1.367-3.869.3a2.651 2.651 0 0 1-.484-1.068 15.17 15.17 0 0 1-.451-4.558 8.828 8.828 0 0 0 1.851.786 10.966 10.966 0 0 0 5.632-.646q2.327-.74 4.58-1.688c.224-.094.449-.188.669-.289.438-.188.877-.39 1.311-.594.178-.084.357-.169.532-.256.488-.234.968-.474 1.442-.724.4-.208.786-.419 1.175-.636.367-.2.733-.412 1.1-.627a22.392 22.392 0 0 0 2.636-1.766 11.21 11.21 0 0 0 1.649-1.584c.042-.052.088-.1.13-.159l.165-.214c.121-.162.237-.328.344-.5a10.32 10.32 0 0 0 1.113-2.318c.09-.266.176-.539.247-.815.042-.149.081-.3.114-.454a16.729 16.729 0 0 0 .318-1.711 41.518 41.518 0 0 0 .308-4.515q.083-2.95.169-5.9l.136-4.726c.017-.6.032-1.2.036-1.811a15.627 15.627 0 0 0-1.305-7.32c-.344-.672-.772-1.3-1.091-1.986 1.918.733 2.269 1.993 2.859 3.807a17.041 17.041 0 0 1 .689 3.136 67.76 67.76 0 0 1 .3 7.232c.005.247.013.5.022.747.156 4.074-.552 8.333-.182 12.357.024.242.04.48.053.726z" class="cls-6" transform="translate(-929.49 -324.853)"/>
        <path id="Path_422" d="M1004.841 373.618a.158.158 0 0 0-.032.016.2.2 0 0 1 .032-.016z" class="cls-7" transform="translate(-984.174 -351.309)"/>
        <path id="Path_423" d="M1060.461 364.04c-.181 3.434.51 7.846 2.9 10.293 2.921 2.99 7.488 3.385 11.543 4.411a32.654 32.654 0 0 1 7.753 3.071c1.234.678 2.954 1.367 3.87.3a2.635 2.635 0 0 0 .483-1.068 15.1 15.1 0 0 0 .451-4.558 29.257 29.257 0 0 0-.73-5.18 87.643 87.643 0 0 0-2.13-8.891c-2.24-6.719-4.667-13.438-8.345-19.525-1.554-2.577-3.434-5.119-6.127-6.46a7.584 7.584 0 0 0-5.875-.412l-.049.02c-1.918.733-2.269 1.993-2.86 3.807a9.174 9.174 0 0 0-.73 3.454 26.825 26.825 0 0 1-.25 6.447 9.667 9.667 0 0 0-.033 1.214c-.156 4.074.552 8.332.182 12.357-.023.233-.039.473-.053.72z" class="cls-4" transform="translate(-1024.473 -323.709)"/>
        <path id="Path_424" d="M1060.475 359.262c.523.558 1.055 1.126 1.626 1.668.276.266.561.526.86.772.458.383.945.766 1.412 1.136.272.217.545.431.818.652.551.445.963.8 1.333 1.146a.634.634 0 0 0 .032.065.5.5 0 0 0 .033.055c.007.01.052.072.126.182l.043.065c.029.042.061.088.091.14l.158.259a7.938 7.938 0 0 1 .374.756 7.547 7.547 0 0 1 .552 3.82c-.025.221-.068.471-.133.769s-.143.552-.223.786c-.03.084-.059.169-.088.257v.007a2.241 2.241 0 0 1-.228.149 3.908 3.908 0 0 1-.918.36c-.157.045-.325.081-.5.117l-.094.019-.643.133c-.179.039-.355.081-.516.127a.515.515 0 0 0-.169-.042h-.042l-.139.01h-.069a.95.95 0 0 1-.127-.01 1.463 1.463 0 0 1-.656-.25 1.581 1.581 0 0 1-.474-.532 1.527 1.527 0 0 1-.087-.214l-.023-.081a.319.319 0 0 0-.227-.244.214.214 0 0 0-.091-.016.131.131 0 0 0-.033 0 .327.327 0 0 0-.292.325.706.706 0 0 0 .017.133 1.539 1.539 0 0 0 .1.38 2.279 2.279 0 0 0 .61.883h.007a2.312 2.312 0 0 0 .352.26c-.017.013-.033.026-.053.039a2.113 2.113 0 0 0-.185.156 2.854 2.854 0 0 0-.256.257 2.323 2.323 0 0 0-.462.821 1.887 1.887 0 0 0-.059.3.279.279 0 0 0-.009.078.322.322 0 0 0 .25.315.3.3 0 0 0 .074.01.325.325 0 0 0 .29-.178.493.493 0 0 0 .038-.111 1.118 1.118 0 0 1 .058-.191 1.5 1.5 0 0 1 .322-.481.593.593 0 0 1 .042-.042 2.151 2.151 0 0 1 .354-.273 2.3 2.3 0 0 1 .458-.224 5.243 5.243 0 0 1 1.158-.25c.133-.017.271-.029.4-.046.3-.029.6-.062.905-.117.088-.013.172-.029.253-.045-.143.3-.292.594-.439.893-.283.568-.571 1.155-.824 1.74-.068.052-.147.107-.24.172a4.675 4.675 0 0 1-.565.331 3.643 3.643 0 0 1-.393.179c-.019.01-.042.016-.062.026-.094.036-.188.074-.286.117a2.021 2.021 0 0 0-.455.282 1.7 1.7 0 0 0-.333.4 2.44 2.44 0 0 0-.3.782 4.759 4.759 0 0 0-.081.542l-.02.2a.326.326 0 0 0 .279.351.228.228 0 0 0 .046 0 .327.327 0 0 0 .318-.263l.035-.2a3.71 3.71 0 0 1 .1-.454 1.654 1.654 0 0 1 .247-.536.943.943 0 0 1 .2-.211 1.158 1.158 0 0 1 .276-.14c.075-.026.165-.055.257-.084s.191-.062.288-.1c.065-.023.13-.046.195-.075-.022.078-.045.156-.065.234-.049.172-.091.341-.126.507a8.267 8.267 0 0 0-.185 1.539 6 6 0 0 0 .12 1.318 4.78 4.78 0 0 0 .315.98 4.615 4.615 0 0 0 .331.6c.059.088.1.149.117.172a.323.323 0 0 0 .263.136.351.351 0 0 0 .169-.045.327.327 0 0 0 .119-.425c-.006-.016-.1-.188-.1-.188a3.435 3.435 0 0 1-.242-.516 4.018 4.018 0 0 1-.212-.834 5.069 5.069 0 0 1-.025-1.149 6.578 6.578 0 0 1 .139-.9 4.8 4.8 0 0 0 .328.987 7.73 7.73 0 0 0 .412.75c.094.149.426.666.426.666a5.66 5.66 0 0 1 .6 1.152 2.962 2.962 0 0 1 .162.87 2.817 2.817 0 0 1 0 .308.329.329 0 0 0 .3.344h.029a.322.322 0 0 0 .321-.285 3.027 3.027 0 0 0 .019-.38 4 4 0 0 0-.158-1.068 6.207 6.207 0 0 0-.627-1.334c-.129-.218-.262-.445-.392-.675a6.119 6.119 0 0 1-.344-.676c-.036-.087-.067-.178-.1-.269a4.069 4.069 0 0 1-.2-1.133 4.3 4.3 0 0 1 .14-1.25c.048-.166.1-.328.158-.474s.108-.244.156-.328a1.717 1.717 0 0 1 .107-.191l.078-.13a.472.472 0 0 0 .059-.266l.282-.484c.214-.367.428-.737.64-1.114.265-.48.506-.961.714-1.431a.9.9 0 0 0 .123-.217.7.7 0 0 0 .059-.214c.1-.256.188-.516.253-.717.091-.311.162-.6.228-.922 0 .055.006.11.009.165a28.4 28.4 0 0 1 0 2.876v.062c-.039 1-.072 1.977-.022 2.9a21.182 21.182 0 0 0 .282 2.6 18.308 18.308 0 0 0 .5 2.152c.055.175.113.344.179.51a5.9 5.9 0 0 0 .545 1.1 3.848 3.848 0 0 0 .77.886 2.269 2.269 0 0 0 .247.188.551.551 0 0 1 .045.032.314.314 0 0 0 .214.087.327.327 0 0 0 .224-.568.718.718 0 0 0-.091-.075c-.058-.052-.113-.1-.176-.162a3.355 3.355 0 0 1-.564-.779c-.012-.026-.026-.049-.04-.074a5.953 5.953 0 0 1-.461-1.376 16.8 16.8 0 0 1-.292-2.065 19.512 19.512 0 0 1-.055-2.464c.026-.727.108-1.474.215-2.337.045.049.091.1.14.143a4.1 4.1 0 0 0 .769.555.324.324 0 1 0 .572.286l.02.009c.282.127.568.24.85.351l.513.2c.257.11.448.2.617.289l.163.094c.149.084.311.175.451.263a12.423 12.423 0 0 1 1.1.783l.055.162c.071.2.159.481.241.812a4.143 4.143 0 0 1 .074 1.964.758.758 0 0 0-.046.078l-.042.046c-.039.045-.13.143-.322.325-.149.136-.334.3-.536.461a6.12 6.12 0 0 1-.643.467c-.561.377-1 .691-1.308.941a3.924 3.924 0 0 0-.418.377 1.517 1.517 0 0 0-.156.182.348.348 0 0 0-.059.175.312.312 0 0 0 .126.269.314.314 0 0 0 .406-.013.2.2 0 0 0 .039-.036 1.024 1.024 0 0 1 .1-.1 3.464 3.464 0 0 1 .386-.3c.354-.25.86-.552 1.309-.808l.087-.049a7.532 7.532 0 0 0-.408.708 1.726 1.726 0 0 0-.227 1.078.689.689 0 0 0 .025.1.8.8 0 0 0 .163.308.327.327 0 0 0 .247.114.335.335 0 0 0 .2-.068.3.3 0 0 0 .059-.065.317.317 0 0 0 0-.38.3.3 0 0 1-.04-.12 1.14 1.14 0 0 1 .205-.617 11.283 11.283 0 0 1 .7-1.009l.023-.032a7.578 7.578 0 0 0 .808-1.26 1.209 1.209 0 0 0 .062-.139.294.294 0 0 0 .029-.039l.023-.032a.5.5 0 0 0 .094-.312 2.374 2.374 0 0 0 .075-.263 4.179 4.179 0 0 0 .107-.792 5.816 5.816 0 0 0-.027-.786c.089.1.169.2.244.286l.033.052a1.432 1.432 0 0 0 .169.26 2.748 2.748 0 0 0 .309.338c.166.224.311.438.435.636a9.729 9.729 0 0 1 .5.86c.139.263.246.5.337.695.052.117.094.218.127.3.025.062.045.117.068.162l.058.156a.325.325 0 0 0 .408.175.326.326 0 0 0 .2-.4.194.194 0 0 0-.012-.036c-.007-.026-.02-.068-.033-.12l-.048-.143a3.453 3.453 0 0 0-.127-.376c-.082-.237-.181-.5-.293-.75-.051-.117-.1-.234-.152-.344.033.013.069.023.1.036a6.087 6.087 0 0 1 1.142.51 9.516 9.516 0 0 1 1.065.714 3.972 3.972 0 0 1 .736.766 2.5 2.5 0 0 1 .205.347 1.726 1.726 0 0 1 .109.286 1.608 1.608 0 0 1 .043.175c0 .013.019.094.019.1a.322.322 0 0 0 .314.247.149.149 0 0 0 .039 0 .323.323 0 0 0 .286-.321c0-.016-.006-.072-.006-.084a2.58 2.58 0 0 0-.055-.286 2.064 2.064 0 0 0-.133-.393 2.8 2.8 0 0 0-.23-.448 4.573 4.573 0 0 0-.844-.961 8.432 8.432 0 0 0-1.126-.831 6.446 6.446 0 0 0-1.269-.643l-.088-.036c-.157-.062-.305-.123-.445-.188a2.1 2.1 0 0 1-.386-.234 3.154 3.154 0 0 1-.377-.354l-.042-.072-.156-.221a.377.377 0 0 1-.019-.039.437.437 0 0 0-.12-.156c-.156-.214-.344-.468-.562-.724a11.336 11.336 0 0 0-.86-.929c.123.007.243.01.363.013h.163c.259 0 .477-.006.685-.026a8.193 8.193 0 0 0 .86-.14c.252-.052.5-.11.749-.169a.867.867 0 0 1 .26.1 1.7 1.7 0 0 1 .442.458 5.431 5.431 0 0 0 .658.763c.232.221.465.419.692.61l.029.026a3.366 3.366 0 0 0 .769.5 1.45 1.45 0 0 0 .594.133 1.074 1.074 0 0 0 .15-.01.9.9 0 0 0 .243-.065.324.324 0 0 0-.133-.62.333.333 0 0 0-.094.013.8.8 0 0 1-.094.017h-.009a.791.791 0 0 1-.364-.094 2.685 2.685 0 0 1-.571-.425c-.215-.2-.442-.415-.652-.639a4.407 4.407 0 0 1-.527-.678c-.071-.107-.143-.214-.221-.315a5.139 5.139 0 0 1 .574-.036c.125 0 .241.007.354.016a2.868 2.868 0 0 1 .85.211 1.325 1.325 0 0 1 .268.14.332.332 0 0 0 .188.055.329.329 0 0 0 .256-.123.324.324 0 0 0-.045-.445 2.351 2.351 0 0 0-.367-.237 3.453 3.453 0 0 0-1.051-.35 5.2 5.2 0 0 0-.848-.065c-.211 0-.432.01-.652.029-.325.033-.66.081-.984.13-.208.029-.416.062-.626.088-.3.036-.545.055-.76.062h-.168c-.172 0-.357-.01-.562-.029a9.346 9.346 0 0 1-1.307-.2 8.931 8.931 0 0 1-.893-.244l-.045-.016c-.074-.023-.14-.046-.185-.065a.147.147 0 0 0-.033-.013c-.217-.136-.437-.256-.617-.347.042-.007.085-.01.123-.017a5.811 5.811 0 0 0 1.669-.454 7.632 7.632 0 0 0 1.025-.614c.124-.081.241-.162.357-.234a3.411 3.411 0 0 1 1.088-.506 1.712 1.712 0 0 1 .455-.058 1.443 1.443 0 0 1 .324.032.941.941 0 0 1 .188.065c.065.026.108.045.12.048a.357.357 0 0 0 .1.017.324.324 0 0 0 .179-.594.6.6 0 0 0-.091-.055 1.622 1.622 0 0 0-.292-.14 2.267 2.267 0 0 0-.795-.133 3 3 0 0 0-.328.019 4.316 4.316 0 0 0-1.422.451c-.133.062-.269.133-.405.2a7.154 7.154 0 0 1-.935.416 4.584 4.584 0 0 1-1.347.211h-.172a10.273 10.273 0 0 1-1.081-.062c-.28-.036-.568-.081-.873-.143l-.315-.072a.2.2 0 0 0-.042-.009.111.111 0 0 0-.032-.007 3.862 3.862 0 0 1-.264-.48 5.31 5.31 0 0 1-.424-1.487.093.093 0 0 1 0-.026l.012-.266a11.061 11.061 0 0 0-.09-1.7c-.03-.285-.092-.594-.152-.883l-.1-.393c-.028-.107-.055-.2-.084-.286l-.048-.152a10.665 10.665 0 0 0-1.7-3.058 21.642 21.642 0 0 0-2.178-2.367l-.224-.214h.182a1.94 1.94 0 0 1 .545.11.656.656 0 0 1 .094.039l.072.039c.042.026.087.049.132.075.092.055.222.139.348.227a5.225 5.225 0 0 1 .711.623 4.757 4.757 0 0 1 .633.815 8.942 8.942 0 0 1 .52 1.006l.294.62c.046.087.088.169.143.263l.146.263a7.27 7.27 0 0 0 .519.763l-.006.237a3.558 3.558 0 0 0 .331 1.678 3.808 3.808 0 0 0 .544.72 4.131 4.131 0 0 1 .4.5.93.93 0 0 1 .142.331c.01.042.01.062.013.078v.039a.334.334 0 0 0 .327.331.318.318 0 0 0 .325-.315v-.049a1.214 1.214 0 0 0-.01-.188 1.5 1.5 0 0 0-.2-.588 4.742 4.742 0 0 0-.429-.616 3.237 3.237 0 0 1-.389-.6 1.805 1.805 0 0 1-.136-.536 8.042 8.042 0 0 0 .951.779 7.6 7.6 0 0 0 .756.464 6.614 6.614 0 0 0 .61.3c.163.072.3.123.39.156l.136.052a.317.317 0 0 0 .12.023.326.326 0 0 0 .168-.6c-.016-.006-.045-.023-.087-.042l-.059-.029c-.081-.042-.2-.1-.351-.188-.175-.1-.347-.211-.522-.331a7.433 7.433 0 0 1-.63-.491 7.3 7.3 0 0 1-1.3-1.473c-.042-.065-.077-.127-.113-.189l-.01-.013a.476.476 0 0 0-.15-.25c-.107-.188-.191-.35-.259-.5l-.117-.276-.1-.26s-.236-.675-.256-.737a.07.07 0 0 1 .016.006c.145.055.3.111.467.163.292.094.591.178.89.263.327.091.669.185.989.3a6.689 6.689 0 0 1 .854.344 4.649 4.649 0 0 1 .734.457 6.879 6.879 0 0 1 1.142 1.133c.315.38.556.718.718.942l.11.159.159.221a.318.318 0 0 0 .257.127.326.326 0 0 0 .184-.058.322.322 0 0 0 .094-.432l-.221-.389c-.133-.227-.353-.61-.648-1.052-.062-.094-.12-.182-.181-.263l.236.039a2.713 2.713 0 0 0 .426.039h.117c.072 0 .136 0 .2.007a1.634 1.634 0 0 1 .512.1.761.761 0 0 1 .257.165.219.219 0 0 1 .049.052s.007.01.013.013a.32.32 0 0 0 .269.146.354.354 0 0 0 .15-.036.327.327 0 0 0 .139-.438l-.015-.029a1.663 1.663 0 0 0-.1-.149 1.454 1.454 0 0 0-.46-.373 2.384 2.384 0 0 0-.711-.227c-.124-.023-.27-.039-.384-.048-.084-.007-.171-.026-.259-.042l-.055-.01a8.267 8.267 0 0 1-1.21-.383 2.614 2.614 0 0 1-.351-.159l-.092-.052a5.126 5.126 0 0 0-.552-.4 7.614 7.614 0 0 0-.953-.5c-.344-.156-.692-.292-1.025-.422.035-.022.068-.049.1-.071a2.6 2.6 0 0 1 .24-.159.72.72 0 0 1 .267-.11.532.532 0 0 1 .091-.01.746.746 0 0 1 .078.007l.036.013a.311.311 0 0 0 .129.029.326.326 0 0 0 .286-.162.319.319 0 0 0-.081-.419.92.92 0 0 0-.162-.088 1.134 1.134 0 0 0-.39-.068h-.058a1.516 1.516 0 0 0-.546.143c-.1.046-.211.1-.318.159l-.136.072a1.958 1.958 0 0 1-.63.208c-.032-.016-.065-.029-.1-.046-.11-.055-.227-.12-.337-.181-.195-.12-.4-.253-.633-.412-.421-.289-.762-.549-.944-.688l-.241-.2-.1-.078a.55.55 0 0 0-.089-.065l-.2-.2c-.146-.133-.292-.25-.474-.386l-.068-.048c-.048-.036-.091-.065-.159-.114l-.065-.039a3.457 3.457 0 0 1 .643-.51 1.636 1.636 0 0 1 .857-.263 1.3 1.3 0 0 1 .228.02 2.4 2.4 0 0 1 .672.23c.136.068.276.149.416.23s.253.143.383.211c.538.292 1.09.587 1.6.863a8.746 8.746 0 0 0 1.529.685 3.655 3.655 0 0 0 1.087.179h.153a3.185 3.185 0 0 0 .366-.049l.091-.017a.325.325 0 0 0-.052-.646l-.142.01a1.138 1.138 0 0 1-.188.01h-.088a2.722 2.722 0 0 1-.954-.234 7.973 7.973 0 0 1-1.308-.753l-.656-.438c.074-.023.155-.042.24-.068l.256-.075c.231-.068.468-.139.7-.191a4.58 4.58 0 0 1 1-.12 2.378 2.378 0 0 1 .692.091 1.419 1.419 0 0 1 .46.221.545.545 0 0 1 .09.072.316.316 0 0 0 .037.029.323.323 0 0 0 .234.1.323.323 0 0 0 .272-.5.5.5 0 0 0-.055-.062.1.1 0 0 0-.032-.036 1.521 1.521 0 0 0-.152-.136 2.189 2.189 0 0 0-.63-.354 3.47 3.47 0 0 0-1.194-.185 5.394 5.394 0 0 0-.88.072c-.263.048-.51.107-.747.162l-.269.062a5.96 5.96 0 0 1-.815.146c-.1.01-.188.016-.266.016a.789.789 0 0 1-.084 0c-.121-.081-.237-.159-.36-.234a5.121 5.121 0 0 0 .59-.675 2.7 2.7 0 0 0 .159-.25l.074-.137a.16.16 0 0 0 .02-.042c.019-.039.035-.075.055-.127a2.356 2.356 0 0 0 .149-.623.406.406 0 0 0 .006-.078.245.245 0 0 0 .017-.055c.013-.042.052-.159.1-.315a5.2 5.2 0 0 1 .309-.672 2.357 2.357 0 0 1 .419-.552 1.566 1.566 0 0 1 .169-.133l.088-.052a.328.328 0 0 0 .114-.4.319.319 0 0 0-.3-.191.381.381 0 0 0-.081.009c-.019.007-.058.02-.116.046a1.5 1.5 0 0 0-.312.179 3.022 3.022 0 0 0-.659.653c-.039.049-.078.1-.117.156a1.738 1.738 0 0 0-.292-.305 1.759 1.759 0 0 0-.455-.269 1.719 1.719 0 0 0-.614-.123 1.373 1.373 0 0 0-.175.013 1.335 1.335 0 0 0-.319.078.326.326 0 0 0 .13.624.369.369 0 0 0 .084-.01.958.958 0 0 1 .156-.016.918.918 0 0 1 .409.117.939.939 0 0 1 .4.438 1.162 1.162 0 0 1 .049.7 1.532 1.532 0 0 1-.131.341l-.045.072-.061.094-.117.139a4.024 4.024 0 0 1-.558.507 3.235 3.235 0 0 1-.432.273c-.039.016-.066.029-.1.039a2.918 2.918 0 0 0-.412-.032 2.406 2.406 0 0 0-.461.042 4.413 4.413 0 0 0 .046-.591 6.825 6.825 0 0 0-.156-1.5c-.055-.269-.123-.526-.2-.8v-.006a1.606 1.606 0 0 1 .1-.425 5.291 5.291 0 0 1 .9-1.419 4.519 4.519 0 0 0 .98-1.737 2.011 2.011 0 0 0 .036-.717c-.01-.071-.026-.133-.036-.179a.506.506 0 0 0-.042-.133.321.321 0 0 0-.289-.175.272.272 0 0 0-.074.01.326.326 0 0 0-.25.315.706.706 0 0 0 .009.081l.007.046a.394.394 0 0 1 .012.1 1.273 1.273 0 0 1-.054.481 2.42 2.42 0 0 1-.328.659 6.087 6.087 0 0 1-.584.714 7.748 7.748 0 0 0-.828 1.039c-.155-.412-.328-.815-.509-1.194a2.259 2.259 0 0 0 .127-.2.423.423 0 0 0 .026-.055l.022-.058a1.419 1.419 0 0 0 .085-.269 1.866 1.866 0 0 0 .058-.364 2.072 2.072 0 0 0 .013-.266v-.1a6.047 6.047 0 0 0-.094-.828 7.53 7.53 0 0 0-.4-1.412 4.978 4.978 0 0 0-.272-.62.321.321 0 0 0-.286-.172.315.315 0 0 0-.143.033.325.325 0 0 0-.153.425 5.246 5.246 0 0 1 .191.555 6.9 6.9 0 0 1 .259 1.308 4.383 4.383 0 0 1 .023.688l-.006.075a1.5 1.5 0 0 1-.017.179c-.126-.221-.259-.442-.4-.662-.214-.334-.347-.516-.364-.536a.323.323 0 0 0-.259-.13.343.343 0 0 0-.183.055.326.326 0 0 0-.094.438c.026.042.136.23.3.529a14.75 14.75 0 0 1 .694 1.477 15.235 15.235 0 0 1 .7 2.184c.036.156.068.309.1.455a4.424 4.424 0 0 0-.718-.458.67.67 0 0 0-.067-.078 3.094 3.094 0 0 0-.341-.335c-.085-.074-.189-.156-.3-.243a6.559 6.559 0 0 1-.642-.571 2.006 2.006 0 0 1-.322-.481c-.071-.159-.143-.334-.211-.519-.071-.2-.117-.367-.143-.458l-.013-.042a.327.327 0 0 0-.312-.234.325.325 0 0 0-.318.389c.019.1.068.3.143.552a4.994 4.994 0 0 0 .21.6 2.556 2.556 0 0 0 .419.688q.121.136.246.263a2.355 2.355 0 0 0-.308.019 2.01 2.01 0 0 0-.675.211 2.264 2.264 0 0 0-.23.143.325.325 0 0 0 .2.585.317.317 0 0 0 .182-.055 1.491 1.491 0 0 1 .149-.078 1.308 1.308 0 0 1 .448-.107c.042 0 .082-.006.123-.006a1.96 1.96 0 0 1 .565.091 3.279 3.279 0 0 1 .744.344c.015.006.032.016.048.023a3.513 3.513 0 0 1 1.129 1.061 2.636 2.636 0 0 1 .186.312 3.689 3.689 0 0 1-.017.435 2.7 2.7 0 0 1-.3 1.068 1.869 1.869 0 0 1-.127.195.136.136 0 0 0-.015.029c-.026.036-.092.1-.13.143l-.026.029a1.687 1.687 0 0 1-.37.279 3.222 3.222 0 0 1-.948.341 4.543 4.543 0 0 1-.9.091h-.042a3.272 3.272 0 0 1-.629-.071 15.522 15.522 0 0 1-1.288-1.506 6.691 6.691 0 0 1-.971-2.029c-.143-.451-.3-.909-.461-1.37s-.337-.906-.515-1.36a6.015 6.015 0 0 0-.4-.854.315.315 0 0 0-.234-.149 42.924 42.924 0 0 1-.316 7.241z" class="cls-5" transform="translate(-1024.594 -332.759)"/>
        <path id="Path_425" d="M1083.558 383.62a.56.56 0 0 1 .006.059c0-.013-.006-.032-.013-.059a1.466 1.466 0 0 0-.052-.224 2.031 2.031 0 0 0-.126-.334 2.971 2.971 0 0 0-.234-.4 4.226 4.226 0 0 0-.8-.831 9.21 9.21 0 0 0-1.1-.74 6.305 6.305 0 0 0-1.2-.539c-.2-.068-.4-.137-.587-.214a2.091 2.091 0 0 1-.318-.162c.035.065.075.13.107.195a10.11 10.11 0 0 1 .448.928c.123.282.217.532.289.74s.123.373.162.484c.022.084.042.14.048.163l-.062-.156c-.048-.11-.1-.272-.195-.471s-.2-.441-.344-.711a10 10 0 0 0-.51-.883c-.136-.221-.3-.451-.468-.682a2.55 2.55 0 0 1-.3-.321 1.348 1.348 0 0 1-.143-.221c-.022-.039-.033-.062-.036-.068-.2-.234-.4-.471-.627-.7-.12-.127-.253-.25-.382-.373.03.133.058.276.087.435a5.958 5.958 0 0 1 .1 1.3 3.873 3.873 0 0 1-.1.737 2.744 2.744 0 0 1-.09.305.159.159 0 0 1-.02.146l-.03.042c-.006.01-.026.033-.045.055-.023.058-.046.117-.072.169a7.766 7.766 0 0 1-.8 1.236 11.234 11.234 0 0 0-.714 1.036 1.413 1.413 0 0 0-.25.834.592.592 0 0 0 .1.26.558.558 0 0 1-.117-.257 1.453 1.453 0 0 1 .2-.873 11.741 11.741 0 0 1 .656-1.091 9.535 9.535 0 0 0 .545-.9.145.145 0 0 0-.02.016c-.168.136-.373.285-.594.441a6.349 6.349 0 0 1-.721.451c-.492.286-.983.577-1.333.824a3.659 3.659 0 0 0-.409.318 1.276 1.276 0 0 0-.14.137 1.5 1.5 0 0 1 .13-.149 3.817 3.817 0 0 1 .386-.344c.334-.273.8-.6 1.282-.922a6.7 6.7 0 0 0 .672-.49c.205-.169.394-.331.549-.474a4.966 4.966 0 0 0 .353-.357.771.771 0 0 0 .072-.094.4.4 0 0 1 .026-.042s0-.007.006-.01a.229.229 0 0 1 .022-.023 3.877 3.877 0 0 0 .075-1.51v-.006a5.705 5.705 0 0 0-.13-.679c-.084-.351-.179-.639-.247-.841-.04-.113-.068-.2-.085-.25a.066.066 0 0 0-.019-.016 12.209 12.209 0 0 0-1.185-.847c-.2-.127-.438-.257-.636-.37s-.422-.208-.646-.3c-.445-.185-.9-.351-1.351-.552a4.653 4.653 0 0 1-1.269-.785 3.75 3.75 0 0 1-.506-.62c-.029-.042-.059-.088-.084-.13l-.046.37c-.124.977-.237 1.9-.27 2.791a20.376 20.376 0 0 0 .055 2.506 17.242 17.242 0 0 0 .3 2.1 6.068 6.068 0 0 0 .532 1.536 3.584 3.584 0 0 0 .616.85c.084.087.156.146.205.188.016.013.032.026.042.036-.013-.007-.026-.016-.046-.029a2.614 2.614 0 0 1-.224-.172 3.556 3.556 0 0 1-.7-.812 6.319 6.319 0 0 1-.685-1.529 17.2 17.2 0 0 1-.487-2.113c-.037-.214-.072-.432-.1-.659v-.006-.006-.006-.007-.007-.007a17.882 17.882 0 0 1-.177-1.863c-.05-.916-.017-1.889.022-2.87a28.42 28.42 0 0 0 .006-2.974 9.724 9.724 0 0 0-.2-1.454c-.046-.24-.114-.451-.173-.665s0 0 0-.007l-.129-.373c-.011-.023-.023-.058-.036-.088a8.871 8.871 0 0 1-.107 2.376c-.059.3-.126.584-.218.892-.074.23-.162.49-.263.74v.009a.161.161 0 0 1 0 .023.491.491 0 0 1-.039.143.658.658 0 0 1-.1.165c-.214.493-.454.974-.714 1.441-.325.581-.663 1.146-.984 1.7a.165.165 0 0 1 0 .162s-.015.029-.048.085a1.7 1.7 0 0 0-.133.234c-.055.1-.111.224-.175.37s-.117.321-.171.51a4.552 4.552 0 0 0-.15 1.34 4.426 4.426 0 0 0 .324 1.516 6.245 6.245 0 0 0 .361.714c.131.231.266.458.4.679a5.833 5.833 0 0 1 .594 1.262 3.572 3.572 0 0 1 .146.974 3.008 3.008 0 0 1-.015.341c0-.052.007-.169 0-.341a3.364 3.364 0 0 0-.179-.961 5.981 5.981 0 0 0-.633-1.224c-.136-.214-.279-.435-.421-.662a6.645 6.645 0 0 1-.394-.714 4.609 4.609 0 0 1-.4-1.571 5.061 5.061 0 0 1 .046-1.078 9.621 9.621 0 0 0-.462 1.25 7.42 7.42 0 0 0-.269 1.415 5.517 5.517 0 0 0 .029 1.217 4.267 4.267 0 0 0 .231.915 3.775 3.775 0 0 0 .26.552c.052.094.087.153.1.179l-.114-.169a4.3 4.3 0 0 1-.3-.539 4.479 4.479 0 0 1-.3-.919 5.574 5.574 0 0 1-.114-1.247 7.919 7.919 0 0 1 .179-1.477 10.31 10.31 0 0 1 .432-1.441 5.781 5.781 0 0 1-.636.315c-.247.107-.526.182-.782.272a1.22 1.22 0 0 0-.619.461 2.059 2.059 0 0 0-.3.636 3.979 3.979 0 0 0-.109.494c-.02.123-.033.191-.033.191l.017-.191a4.346 4.346 0 0 1 .078-.506 2.142 2.142 0 0 1 .26-.682 1.405 1.405 0 0 1 .272-.325 1.522 1.522 0 0 1 .37-.227c.266-.117.523-.2.753-.328a4.837 4.837 0 0 0 .451-.253l.152-.1c.133-.091.237-.169.324-.237.409-.964.925-1.922 1.383-2.9.072-.149.139-.3.208-.448l-.03.01a5.032 5.032 0 0 1-.873.224c-.425.075-.86.107-1.292.159a5.538 5.538 0 0 0-1.23.266 2.642 2.642 0 0 0-.519.253 2.609 2.609 0 0 0-.409.315 1.878 1.878 0 0 0-.441.643 1.584 1.584 0 0 0-.066.211.353.353 0 0 1-.016.059.419.419 0 0 1 .01-.059 1.19 1.19 0 0 1 .045-.221 1.948 1.948 0 0 1 .393-.7 2.617 2.617 0 0 1 .4-.37 2.815 2.815 0 0 1 .52-.318c.022-.01.045-.016.064-.026l-.032-.009a1.985 1.985 0 0 1-1.367-1.2 1.336 1.336 0 0 1-.078-.292.817.817 0 0 1-.016-.1c0 .016.016.049.028.1a1.691 1.691 0 0 0 .111.273 1.877 1.877 0 0 0 .581.656 1.772 1.772 0 0 0 .792.3 1.34 1.34 0 0 0 .269.01l.11-.01h.022a.165.165 0 0 1 .124.075c.211-.065.432-.12.649-.165s.431-.091.642-.133.419-.088.607-.139a4.1 4.1 0 0 0 .988-.39 2.037 2.037 0 0 0 .334-.227c.007 0 .01-.009.016-.013.043-.12.085-.237.124-.354.091-.27.162-.529.234-.822.055-.256.106-.536.136-.8a8.067 8.067 0 0 0-.2-2.9 8.449 8.449 0 0 0-.374-1.094 8.594 8.594 0 0 0-.392-.789c-.024-.039-.046-.074-.066-.11-.036-.055-.064-.107-.094-.156-.049-.081-.1-.156-.143-.214a.366.366 0 0 0-.038-.058l-.081-.12a.274.274 0 0 1-.022-.036.669.669 0 0 1-.042-.094c-.448-.422-.923-.821-1.4-1.211-.084-.068-.168-.136-.253-.2-.666-.533-1.338-1.052-1.973-1.584a21.187 21.187 0 0 1-1.8-1.714c-.3-.311-.594-.626-.89-.945.01-.451.013-.9.016-1.353a48.571 48.571 0 0 1 .23-5.054v-.039a2.5 2.5 0 0 1 .129.24 5.87 5.87 0 0 1 .247.565c.139.354.276.711.406 1.072.153.409.3.821.432 1.233.045.136.091.27.133.406a6.944 6.944 0 0 0 1.02 2.12 15.434 15.434 0 0 0 1.383 1.61 3.621 3.621 0 0 0 .792.1 4.942 4.942 0 0 0 1.012-.1l.081-.019a3.436 3.436 0 0 0 .96-.357 2.185 2.185 0 0 0 .444-.341c.026-.026.074-.078.12-.13a1.082 1.082 0 0 0 .075-.094 2.441 2.441 0 0 0 .152-.237 3.064 3.064 0 0 0 .341-1.194 5.127 5.127 0 0 0 .016-.542 3.694 3.694 0 0 0-.237-.413 3.832 3.832 0 0 0-1.253-1.172c-.01-.007-.016-.013-.026-.013a.146.146 0 0 0-.032-.016.047.047 0 0 0-.016-.01 3.346 3.346 0 0 0-.562-.276 1.792 1.792 0 0 0-.208-.075 2.18 2.18 0 0 0-.805-.1 1.672 1.672 0 0 0-.561.136 1.578 1.578 0 0 0-.195.1 1.831 1.831 0 0 1 .189-.117 1.746 1.746 0 0 1 .564-.175 2.267 2.267 0 0 1 .834.052 3 3 0 0 1 .53.175c-.046-.049-.1-.1-.166-.162a11.091 11.091 0 0 1-.934-.886 2.142 2.142 0 0 1-.364-.594 5.4 5.4 0 0 1-.2-.568c-.075-.254-.119-.445-.137-.526.023.078.075.269.163.516.059.166.133.357.224.552a2.21 2.21 0 0 0 .376.562 11.786 11.786 0 0 0 .964.84 2.9 2.9 0 0 1 .311.305 1.432 1.432 0 0 1 .1.117c.01.006.023.01.032.016a3.891 3.891 0 0 1 1.376 1.126c-.006-.058-.012-.12-.02-.178-.058-.438-.146-.877-.243-1.292a15.484 15.484 0 0 0-.711-2.233 15.31 15.31 0 0 0-.71-1.509c-.169-.308-.282-.5-.308-.542.029.039.158.217.35.516s.438.708.7 1.214a.459.459 0 0 0 .039-.033c.029-.036.049-.071.087-.117a1.618 1.618 0 0 0 .091-.211 1.576 1.576 0 0 0 .068-.279 2.78 2.78 0 0 0 .036-.328 5.153 5.153 0 0 0-.023-.734 7.374 7.374 0 0 0-.273-1.364 4.9 4.9 0 0 0-.208-.6 5.551 5.551 0 0 1 .257.585 7.523 7.523 0 0 1 .383 1.357 5.672 5.672 0 0 1 .087.756 3.145 3.145 0 0 1-.013.357 1.707 1.707 0 0 1-.052.325 1.689 1.689 0 0 1-.094.276 1.894 1.894 0 0 1-.142.211c-.043.039-.072.068-.094.091a15.474 15.474 0 0 1 .84 2.065c.018-.036.03-.071.047-.11a5.729 5.729 0 0 1 1.077-1.519 5.922 5.922 0 0 0 .615-.75 2.749 2.749 0 0 0 .372-.75 1.588 1.588 0 0 0 .068-.587 1.037 1.037 0 0 0-.023-.169c0-.019-.006-.036-.006-.042a.235.235 0 0 1 .01.042 1.53 1.53 0 0 1 .036.166 1.669 1.669 0 0 1-.033.6 4.143 4.143 0 0 1-.912 1.6 5.564 5.564 0 0 0-.948 1.509 1.86 1.86 0 0 0-.124.542v.052c.074.27.149.542.207.828a6.429 6.429 0 0 1 .15 1.425 3.784 3.784 0 0 1-.153 1.048 2.731 2.731 0 0 1 .477-.133 2.305 2.305 0 0 1 .87.007.039.039 0 0 0 .013-.01s.019-.006.058-.023l.129-.055a3.3 3.3 0 0 0 .48-.3 4.245 4.245 0 0 0 .607-.552c.048-.055.1-.113.143-.172l.058-.088.063-.1a1.743 1.743 0 0 0 .162-.422 1.439 1.439 0 0 0-.064-.9 1.255 1.255 0 0 0-.543-.6 1.21 1.21 0 0 0-.574-.159 1.066 1.066 0 0 0-.233.026.912.912 0 0 1 .23-.055 1.278 1.278 0 0 1 .627.091 1.334 1.334 0 0 1 .37.221 1.385 1.385 0 0 1 .322.373 1.774 1.774 0 0 1 .146.35 4.506 4.506 0 0 1 .406-.633 2.688 2.688 0 0 1 .588-.584 1.426 1.426 0 0 1 .233-.137c.046-.019.075-.032.088-.035l-.082.049a1.4 1.4 0 0 0-.207.162 2.657 2.657 0 0 0-.487.636 4.989 4.989 0 0 0-.331.724c-.072.2-.114.347-.114.347a.038.038 0 0 1-.007.019.16.16 0 0 1-.016.026c0 .045 0 .088-.006.13a2.019 2.019 0 0 1-.136.552 1.219 1.219 0 0 1-.052.12l-.068.127c-.046.078-.094.153-.144.221a4.8 4.8 0 0 1-.616.695c-.1.084-.186.159-.27.227.078.036.152.078.227.12.2.123.393.25.582.377a2.5 2.5 0 0 0 .49-.006 7.057 7.057 0 0 0 .856-.153c.316-.072.65-.159 1-.221a3.961 3.961 0 0 1 1.912.1 1.814 1.814 0 0 1 .548.312 1.271 1.271 0 0 1 .129.117l.01.013a.044.044 0 0 0-.013-.01.993.993 0 0 0-.136-.11 1.808 1.808 0 0 0-.555-.269 3.884 3.884 0 0 0-1.86.022c-.334.075-.662.182-.976.273a7.523 7.523 0 0 1-.881.2c-.032.006-.065.01-.1.013.442.3.884.591 1.3.87a8.26 8.26 0 0 0 1.364.782 3.141 3.141 0 0 0 1.074.26 2.147 2.147 0 0 0 .312-.01l.113-.01-.11.02a2.749 2.749 0 0 1-.315.042 3.172 3.172 0 0 1-1.126-.162 6.457 6.457 0 0 1-.76-.3c-.23-.107-.471-.231-.711-.361l-1.606-.866c-.279-.146-.546-.315-.8-.442a2.615 2.615 0 0 0-.763-.263 1.881 1.881 0 0 0-1.3.286 3.96 3.96 0 0 0-.792.646c-.084.085-.156.166-.208.221-.007.007-.01.013-.013.016l-.007.007c.046.019.091.036.139.058a1.88 1.88 0 0 1 .286.15c.091.061.133.094.214.152.156.117.3.23.445.36.074.072.148.15.227.224a.515.515 0 0 1 .084.058l.094.075c.058.049.143.117.25.2.225.172.552.422.958.7.2.14.423.286.656.425.117.068.24.136.354.191.065.032.127.059.188.088a2.237 2.237 0 0 0 .834-.25c.146-.074.292-.159.442-.224a1.176 1.176 0 0 1 .425-.114.768.768 0 0 1 .3.042.593.593 0 0 1 .1.049.711.711 0 0 0-.1-.036.729.729 0 0 0-.3 0 1.055 1.055 0 0 0-.384.153c-.129.078-.262.178-.4.273a2.441 2.441 0 0 1-.539.279c.52.218 1.094.422 1.659.675a7.48 7.48 0 0 1 .916.477 5.606 5.606 0 0 1 .535.39 1.073 1.073 0 0 0 .12.071 3.324 3.324 0 0 0 .386.179 8.437 8.437 0 0 0 1.273.4 3.371 3.371 0 0 0 .351.059 3.261 3.261 0 0 1 .356.045 2.073 2.073 0 0 1 .614.195 1.133 1.133 0 0 1 .354.282.924.924 0 0 1 .071.1l.018.029a.13.13 0 0 0-.02-.026.824.824 0 0 0-.081-.091 1.055 1.055 0 0 0-.367-.237 2.022 2.022 0 0 0-.6-.127c-.113-.01-.223-.006-.35-.01a2.5 2.5 0 0 1-.376-.036 8.712 8.712 0 0 1-1.133-.256 8.24 8.24 0 0 1 .759.98c.28.418.492.782.637 1.035.126.221.2.36.224.393-.023-.029-.114-.159-.263-.37-.169-.237-.412-.578-.73-.961a7.462 7.462 0 0 0-1.049-1.068c-.045-.035-.094-.074-.143-.11a4.828 4.828 0 0 0-.79-.493 7.219 7.219 0 0 0-.892-.36c-.62-.208-1.269-.36-1.883-.558-.159-.052-.312-.1-.448-.156-.162-.065-.305-.13-.442-.2-.1-.052-.2-.1-.3-.156.025.058.052.113.072.172 0 0 0 .007.006.01.1.253.192.5.275.75l.2.574.108.269.12.279c.091.2.2.4.308.591a.161.161 0 0 1 .088.14c.052.088.1.182.162.266a7.694 7.694 0 0 0 2.012 2.052c.205.143.39.256.546.344s.282.156.366.2c.065.033.107.052.124.062l-.13-.049c-.087-.033-.22-.081-.386-.156s-.364-.165-.588-.289a7.407 7.407 0 0 1-.723-.445 8.19 8.19 0 0 1-1.461-1.318.16.16 0 0 1 0 .039 3.006 3.006 0 0 0 .168 1.435 3.448 3.448 0 0 0 .429.662 4.283 4.283 0 0 1 .4.581 1.184 1.184 0 0 1 .159.474.772.772 0 0 1 .006.14v0a.964.964 0 0 0-.016-.136 1.224 1.224 0 0 0-.189-.451 4.16 4.16 0 0 0-.438-.542 3.409 3.409 0 0 1-.5-.656 3.231 3.231 0 0 1-.295-1.519c0-.133.006-.25.009-.35a7.754 7.754 0 0 1-.564-.815l-.15-.266c-.058-.1-.1-.189-.149-.286l-.269-.565c-.16-.338-.309-.656-.485-.951l-.058-.1a5.274 5.274 0 0 0-.671-.867 5.459 5.459 0 0 0-.763-.665c-.131-.091-.267-.178-.383-.25-.068-.036-.133-.075-.2-.111a1.077 1.077 0 0 0-.136-.058 2.267 2.267 0 0 0-.642-.13 2.189 2.189 0 0 0-.51.029c-.068.013-.137.023-.178.036a.6.6 0 0 1-.084.023c-.013 0-.023.01-.035.013l-.069.022c.224.211.451.425.682.646a21.475 21.475 0 0 1 2.146 2.331 10.419 10.419 0 0 1 1.645 2.951c.042.146.088.26.13.428l.1.38a8.681 8.681 0 0 1 .149.857 10.988 10.988 0 0 1 .068 1.66c0 .094-.01.188-.013.282v.052a5.553 5.553 0 0 0 .455 1.584 3.72 3.72 0 0 0 .383.668.579.579 0 0 1 .15.007h.006l.344.078c.21.042.526.1.9.146a9.979 9.979 0 0 0 1.3.062 4.867 4.867 0 0 0 1.438-.227 12.609 12.609 0 0 0 1.384-.633 4.016 4.016 0 0 1 1.318-.422 2.114 2.114 0 0 1 .967.094 1.7 1.7 0 0 1 .247.117c.039.022.064.039.073.045l-.081-.036a1.594 1.594 0 0 0-.253-.085 2 2 0 0 0-.925.023 3.779 3.779 0 0 0-1.187.549c-.14.088-.283.185-.429.282a.016.016 0 0 1-.013.007 6.87 6.87 0 0 1-.905.539 5.534 5.534 0 0 1-1.575.429 9.92 9.92 0 0 1-1.327.084l.081.042a.014.014 0 0 1 .01 0c.3.149.61.3.931.458.224.113.455.237.679.38a.036.036 0 0 1 .016.013c.015 0 .029.01.051.016.062.026.151.056.254.091.214.071.536.165.926.253a10.066 10.066 0 0 0 1.35.211 6.085 6.085 0 0 0 .769.026c.257-.006.527-.032.792-.065.538-.068 1.08-.166 1.6-.214a5.458 5.458 0 0 1 1.418.032 3.088 3.088 0 0 1 .948.315 2.144 2.144 0 0 1 .3.188 2.3 2.3 0 0 0-.313-.162 3.106 3.106 0 0 0-.947-.234 5.094 5.094 0 0 0-1.376.075c-.108.019-.215.039-.322.061.035.02.072.039.107.062a1.444 1.444 0 0 1 .315.273 3.578 3.578 0 0 1 .26.357 4.944 4.944 0 0 0 .564.731c.218.23.449.448.669.652a2.992 2.992 0 0 0 .646.477 1.059 1.059 0 0 0 .551.127.854.854 0 0 0 .156-.026.648.648 0 0 1-.156.039 1.07 1.07 0 0 1-.568-.1 2.988 2.988 0 0 1-.688-.451c-.231-.195-.474-.4-.708-.623a5.078 5.078 0 0 1-.62-.717 1.832 1.832 0 0 0-.54-.549 1.048 1.048 0 0 0-.444-.153c-.26.062-.526.123-.795.179-.082.016-.166.032-.248.046h-.013c-.188.035-.374.065-.565.084a7.748 7.748 0 0 1-.814.026 10.929 10.929 0 0 1-1.3-.1c.026.023.058.049.084.075l.007.006c.152.127.3.26.451.4l.02.02a.234.234 0 0 1 .087.091 12.277 12.277 0 0 1 .9.964c.208.247.393.494.572.74a.186.186 0 0 1 .065.075.639.639 0 0 1 .028.058l.16.227.058.094a2.955 2.955 0 0 0 .441.419 2.27 2.27 0 0 0 .445.269c.172.081.36.156.558.237a6.19 6.19 0 0 1 1.211.61 8.544 8.544 0 0 1 1.083.8 4.311 4.311 0 0 1 .779.883 2.68 2.68 0 0 1 .215.415 2.42 2.42 0 0 1 .159.571z" class="cls-3" transform="translate(-1024.62 -333.62)"/>
        <path id="Path_426" d="M1060.461 365.184c-.181 3.434.51 7.846 2.9 10.293 2.921 2.99 7.488 3.385 11.543 4.411a32.654 32.654 0 0 1 7.753 3.07c1.234.678 2.954 1.367 3.87.3a2.635 2.635 0 0 0 .483-1.068 15.1 15.1 0 0 0 .451-4.558 8.8 8.8 0 0 1-1.85.786 10.966 10.966 0 0 1-5.632-.646q-2.327-.74-4.58-1.688c-.223-.094-.447-.188-.668-.289-.439-.188-.877-.39-1.311-.594-.179-.084-.358-.169-.533-.256-.487-.234-.968-.474-1.442-.724-.4-.208-.785-.419-1.174-.636-.366-.2-.733-.412-1.1-.627a22.522 22.522 0 0 1-2.635-1.766 11.187 11.187 0 0 1-1.648-1.584c-.042-.052-.087-.1-.13-.159l-.165-.214c-.121-.162-.238-.328-.345-.5a10.323 10.323 0 0 1-1.113-2.318c-.091-.266-.176-.539-.247-.815-.042-.149-.082-.3-.113-.454a16.372 16.372 0 0 1-.318-1.711 41.365 41.365 0 0 1-.308-4.515q-.083-2.95-.169-5.9l-.136-4.726c-.016-.6-.033-1.2-.036-1.811a15.618 15.618 0 0 1 1.3-7.32c.344-.672.773-1.3 1.09-1.986-1.918.733-2.269 1.993-2.86 3.807a17.039 17.039 0 0 0-.688 3.136 68.9 68.9 0 0 0-.3 7.232c-.007.247-.013.5-.023.747-.156 4.074.552 8.333.182 12.357-.018.242-.034.48-.048.726z" class="cls-6" transform="translate(-1024.473 -324.853)"/>
        <path id="Path_427" d="M1081.139 394.3a.6.6 0 0 0 .083-.023c.042-.013.111-.023.178-.036a2.2 2.2 0 0 1 .51-.029 2.274 2.274 0 0 1 .643.13 1.159 1.159 0 0 1 .136.059c.065.036.13.075.2.111.116.071.253.159.382.25a5.463 5.463 0 0 1 .763.665 5.291 5.291 0 0 1 .673.867l.058.1-.036-.107a3.891 3.891 0 0 0-1.309-1.987 2.443 2.443 0 0 0-1.353-.444c-.24-.006-1.036.049-.928.444z" class="cls-8" transform="translate(-1039.591 -366.003)"/>
        <path id="Path_428" d="M1093.475 423.848a28.224 28.224 0 0 1-.006 2.974c-.039.98-.071 1.954-.023 2.869a17.811 17.811 0 0 0 .179 1.863c0-.311.009-.623.022-.935a49.1 49.1 0 0 0 .173-6.281 4.832 4.832 0 0 0-.722-2.61c.058.214.127.425.172.665a9.792 9.792 0 0 1 .205 1.455z" class="cls-8" transform="translate(-1048.281 -386.24)"/>
        <path id="Path_429" d="M1098.288 439.553a3.813 3.813 0 0 0 .507.62 4.635 4.635 0 0 0 1.269.785c.447.2.905.367 1.35.552.224.094.442.191.645.3s.439.243.637.37a12.13 12.13 0 0 1 1.184.847.1.1 0 0 1 .02.016c.016.052.045.137.084.25.069.2.163.49.247.841a5.912 5.912 0 0 1 .13.678 2.393 2.393 0 0 0 .033-.253 2.7 2.7 0 0 0-.763-2.055 5.34 5.34 0 0 0-1.438-.935 11.418 11.418 0 0 0-1.263-.575c-.286-.1-.578-.179-.86-.286a6.056 6.056 0 0 1-1.769-1.22.28.28 0 0 0-.013.065z" class="cls-8" transform="translate(-1052.049 -399.137)"/>
        <path id="Path_430" d="M1105.125 439.655a1.835 1.835 0 0 1 .493.227c.039.019.078.036.117.052l-.081-.042a9.977 9.977 0 0 0 1.327-.085 5.543 5.543 0 0 0 1.574-.429 6.906 6.906 0 0 0 .906-.539c-.144.075-.3.182-.367.214a6.893 6.893 0 0 1-.705.263c-.263.078-.532.143-.8.195a11.608 11.608 0 0 1-2.464.144z" class="cls-8" transform="translate(-1057.013 -398.664)"/>
        <path id="Path_431" d="M1116.34 448.54c-.026-.026-.058-.052-.084-.074a11.024 11.024 0 0 0 1.305.1 7.784 7.784 0 0 0 .815-.026c.191-.019.377-.049.565-.084h-.066a9.835 9.835 0 0 1-3.239-.322c.237.14.471.273.704.406z" class="cls-8" transform="translate(-1064.645 -405.417)"/>
        <path id="Path_432" d="M1078.3 442.106a.959.959 0 0 0 .652-.25 1.113 1.113 0 0 0 .172-.331q.47-1.222 1.03-2.412a2.045 2.045 0 0 0 .214-.688c-.068.149-.136.3-.208.448-.458.974-.974 1.931-1.383 2.9-.086.068-.191.146-.324.237z" class="cls-8" transform="translate(-1037.534 -398.363)"/>
        <path id="Path_433" d="M1087.4 387.547l.033-.01a.17.17 0 0 1 .012-.016c.052-.055.124-.136.208-.221a3.983 3.983 0 0 1 .792-.646 1.887 1.887 0 0 1 1.306-.286 2.631 2.631 0 0 1 .763.263c.257.127.522.3.8.442l1.607.867c.241.13.481.253.711.36a4.337 4.337 0 0 0-.822-.548l-.993-.682a6.666 6.666 0 0 0-1.519-.854 2.229 2.229 0 0 0-1.7.026 3.139 3.139 0 0 0-1.198 1.305z" class="cls-8" transform="translate(-1044.143 -360.342)"/>
        <path id="Path_434" d="M1096.661 400.954c-.02-.059-.045-.114-.071-.172l.295.156c.137.068.28.133.441.2.137.052.289.1.448.156.614.2 1.263.351 1.883.558a7.308 7.308 0 0 1 .893.361 4.836 4.836 0 0 1 .789.493c.049.036.1.075.143.11-.066-.071-.16-.146-.192-.175a4.6 4.6 0 0 0-.766-.6 8.865 8.865 0 0 0-2.149-.792 4.89 4.89 0 0 1-2.042-1.009 1.963 1.963 0 0 0 .328.714z" class="cls-8" transform="translate(-1050.629 -370.633)"/>
        <path id="Path_435" d="M1084.27 373.725a3.82 3.82 0 0 1 1.252 1.172 3.6 3.6 0 0 1 .238.412 4.944 4.944 0 0 1-.017.542 3.057 3.057 0 0 1-.34 1.194 2.209 2.209 0 0 1-.153.237.957.957 0 0 1-.074.094.239.239 0 0 0 .042-.023 1.807 1.807 0 0 0 .754-1.49 1.4 1.4 0 0 0-.357-1.09 3.817 3.817 0 0 0-1.345-1.048z" class="cls-8" transform="translate(-1041.871 -351.386)"/>
        <path id="Path_436" d="M1084.044 373.618a.149.149 0 0 1 .032.016.213.213 0 0 0-.032-.016z" class="cls-7" transform="translate(-1041.707 -351.309)"/>
        <path id="Path_437" d="M1065.855 375.04a8.666 8.666 0 0 0 1.532 3.451 2.262 2.262 0 0 0 1.136.964 2.38 2.38 0 0 0 1.752-.3l-.081.019a4.955 4.955 0 0 1-1.013.1 3.618 3.618 0 0 1-.792-.1 15.44 15.44 0 0 1-1.383-1.61 6.933 6.933 0 0 1-1.019-2.12c-.041-.135-.087-.268-.132-.404z" class="cls-7" transform="translate(-1028.501 -352.341)"/>
        <g id="Group_129" opacity="0.05" transform="translate(26.929 .947)">
            <g id="Group_128" transform="translate(2.544)">
                <path id="Path_438" d="M1037.084 295.668s.072.017.191.055c.059.021.133.043.212.064s.163.048.262.07c.193.046.413.092.647.125.116.016.237.028.36.038s.246.017.37.013.248-.006.37-.011.242-.019.358-.038.228-.04.336-.056.212-.042.3-.073c.189-.052.35-.108.464-.151s.186-.068.186-.068-.035.063-.106.17a1.229 1.229 0 0 1-.149.178 1.419 1.419 0 0 1-.225.2 2.23 2.23 0 0 1-.3.2 2.568 2.568 0 0 1-.372.158 2.449 2.449 0 0 1-.421.1 2.782 2.782 0 0 1-.446.034 2.619 2.619 0 0 1-1.535-.491 1.563 1.563 0 0 1-.232-.195 1 1 0 0 1-.154-.168c-.075-.093-.116-.154-.116-.154z" class="cls-10" transform="translate(-1037.084 -295.635)"/>
                <path id="Path_439" d="M1037.084 301.853s.072.016.191.055c.059.021.133.044.212.064s.163.048.262.07c.193.047.413.092.647.125.116.017.237.028.36.038s.246.017.37.013l.37-.01c.122-.004.242-.019.358-.038s.228-.04.336-.056.212-.042.3-.073c.189-.053.35-.108.464-.152s.186-.068.186-.068-.035.063-.106.17a1.229 1.229 0 0 1-.149.178 1.426 1.426 0 0 1-.225.2 2.221 2.221 0 0 1-.3.2 2.558 2.558 0 0 1-.372.158 2.4 2.4 0 0 1-.421.1 2.758 2.758 0 0 1-.446.034 2.619 2.619 0 0 1-1.535-.491 1.509 1.509 0 0 1-.232-.195.981.981 0 0 1-.154-.168c-.075-.093-.116-.154-.116-.154z" class="cls-10" transform="translate(-1037.084 -300.126)"/>
                <path id="Path_440" d="M1037.084 308.036s.072.017.191.056c.059.021.133.043.212.064s.163.047.262.069c.193.047.413.092.647.125.116.016.237.028.36.038s.246.016.37.013.248-.006.37-.011.242-.019.358-.038.228-.04.336-.056.212-.042.3-.073c.189-.052.35-.108.464-.151s.186-.068.186-.068-.035.063-.106.17a1.235 1.235 0 0 1-.149.178 1.432 1.432 0 0 1-.225.2 2.216 2.216 0 0 1-.3.2 2.585 2.585 0 0 1-.372.158 2.421 2.421 0 0 1-.421.1 2.744 2.744 0 0 1-.446.034 2.621 2.621 0 0 1-1.535-.491 1.544 1.544 0 0 1-.232-.2.976.976 0 0 1-.154-.168c-.075-.085-.116-.149-.116-.149z" class="cls-10" transform="translate(-1037.084 -304.616)"/>
                <path id="Path_441" d="M1037.084 314.221s.072.017.191.055c.059.021.133.044.212.064s.163.048.262.07c.193.047.413.093.647.125.116.016.237.028.36.038s.246.016.37.013.248-.006.37-.011.242-.019.358-.038.228-.04.336-.057.212-.041.3-.073c.189-.052.35-.108.464-.151l.186-.069s-.035.063-.106.17a1.235 1.235 0 0 1-.149.178 1.451 1.451 0 0 1-.225.2 2.261 2.261 0 0 1-.3.2 2.545 2.545 0 0 1-.372.158 2.427 2.427 0 0 1-.421.1 2.731 2.731 0 0 1-.446.034 2.618 2.618 0 0 1-1.535-.491 1.543 1.543 0 0 1-.232-.195.981.981 0 0 1-.154-.168c-.075-.091-.116-.152-.116-.152z" class="cls-10" transform="translate(-1037.084 -309.106)"/>
            </g>
            <path id="Path_442" d="M1037.084 321.056s.072.017.191.055c.059.022.133.044.212.064s.163.048.262.07c.193.046.413.092.647.125.116.016.237.028.36.038s.246.017.37.013.248-.006.37-.011.242-.019.358-.038.228-.04.336-.056.212-.042.3-.073c.189-.052.35-.108.464-.151s.186-.068.186-.068-.035.063-.106.17a1.229 1.229 0 0 1-.149.178 1.442 1.442 0 0 1-.225.2 2.275 2.275 0 0 1-.3.2 2.626 2.626 0 0 1-.372.158 2.421 2.421 0 0 1-.421.1 2.8 2.8 0 0 1-.446.034 2.618 2.618 0 0 1-1.535-.491 1.522 1.522 0 0 1-.232-.195 1 1 0 0 1-.154-.168c-.075-.092-.116-.154-.116-.154z" class="cls-10" transform="translate(-1034.54 -314.069)"/>
            <path id="Path_443" d="M1037.084 327.241s.072.017.191.055c.059.021.133.043.212.064s.163.048.262.07c.193.047.413.092.647.125.116.016.237.028.36.038s.246.016.37.013.248-.006.37-.011.242-.019.358-.038.228-.04.336-.056.212-.042.3-.073c.189-.052.35-.108.464-.151s.186-.068.186-.068-.035.063-.106.17a1.226 1.226 0 0 1-.149.178 1.428 1.428 0 0 1-.225.2 2.227 2.227 0 0 1-.3.2 2.538 2.538 0 0 1-.372.158 2.4 2.4 0 0 1-.421.1 2.751 2.751 0 0 1-.446.034 2.618 2.618 0 0 1-1.535-.491 1.537 1.537 0 0 1-.232-.2.976.976 0 0 1-.154-.168c-.075-.09-.116-.149-.116-.149z" class="cls-10" transform="translate(-1034.54 -318.559)"/>
            <path id="Path_444" d="M1036.627 333.425s.076.017.2.055c.063.022.141.044.225.064s.173.048.278.069c.205.047.439.093.688.125.124.016.252.028.381.038s.262.017.394.013l.393-.01c.131-.004.256-.019.38-.038s.241-.04.357-.056.225-.042.322-.073c.2-.052.371-.108.492-.151s.2-.068.2-.068-.036.063-.113.17a1.193 1.193 0 0 1-.157.178 1.5 1.5 0 0 1-.238.2 2.362 2.362 0 0 1-.321.2 2.746 2.746 0 0 1-.394.158 2.692 2.692 0 0 1-.447.1 3.1 3.1 0 0 1-.474.034 2.894 2.894 0 0 1-1.63-.491 1.675 1.675 0 0 1-.247-.195 1.052 1.052 0 0 1-.163-.168c-.083-.092-.126-.154-.126-.154z" class="cls-10" transform="translate(-1034.208 -323.05)"/>
            <path id="Path_445" d="M1035.942 339.609s.083.017.22.055c.067.021.152.044.242.064s.188.047.3.069c.222.047.476.093.745.125.134.017.273.028.413.038s.283.016.427.013.285-.006.425-.011.278-.019.411-.038.262-.04.387-.056.244-.042.349-.073c.217-.052.4-.108.534-.151l.214-.068s-.04.063-.123.17a1.221 1.221 0 0 1-.17.178 1.555 1.555 0 0 1-.259.2 2.5 2.5 0 0 1-.346.2 3.324 3.324 0 0 1-.912.263 3.625 3.625 0 0 1-.513.034 3.33 3.33 0 0 1-1.766-.491 1.825 1.825 0 0 1-.267-.195 1.113 1.113 0 0 1-.177-.168c-.088-.096-.134-.158-.134-.158z" class="cls-10" transform="translate(-1033.71 -327.54)"/>
            <path id="Path_446" d="M1035.087 346.052s.09.017.241.055c.073.022.167.043.266.064s.206.048.329.069c.243.047.521.092.816.125.148.016.3.028.454.038s.309.016.466.013l.466-.01c.154-.004.3-.019.452-.039s.285-.04.423-.056.267-.042.382-.073c.239-.052.441-.108.585-.151s.234-.068.234-.068a2.046 2.046 0 0 1-.134.17 1.24 1.24 0 0 1-.187.178 1.653 1.653 0 0 1-.283.2 2.849 2.849 0 0 1-.379.2 3.893 3.893 0 0 1-1 .262 4.358 4.358 0 0 1-.561.035 3.91 3.91 0 0 1-1.935-.491 2 2 0 0 1-.293-.195 1.151 1.151 0 0 1-.194-.168c-.097-.096-.148-.158-.148-.158z" class="cls-10" transform="translate(-1033.09 -332.218)"/>
            <path id="Path_447" d="M1033.717 352.237s.1.017.28.055c.086.021.193.043.309.064s.239.048.383.069c.282.047.6.093.947.125.17.016.347.028.526.039s.36.016.543.013.361-.006.541-.011.354-.019.523-.038.333-.04.493-.057.309-.042.444-.073c.275-.052.511-.108.678-.151l.272-.069s-.05.063-.155.17a1.412 1.412 0 0 1-.217.178 2.051 2.051 0 0 1-.328.2 3.551 3.551 0 0 1-.441.2 4.813 4.813 0 0 1-.543.158 4.992 4.992 0 0 1-.617.1 5.786 5.786 0 0 1-.652.034 5.122 5.122 0 0 1-2.247-.491 2.377 2.377 0 0 1-.34-.195 1.312 1.312 0 0 1-.225-.168c-.115-.089-.174-.152-.174-.152z" class="cls-10" transform="translate(-1032.096 -336.708)"/>
            <path id="Path_448" d="M1031.353 357.606s.128.021.341.07c.1.027.237.055.377.081s.291.06.466.088c.344.059.736.117 1.154.158.208.021.424.035.641.049s.439.021.661.016l.659-.013c.218-.005.431-.024.638-.048s.406-.051.6-.071c.184-.037.377-.053.54-.092.336-.066.623-.136.827-.19s.332-.086.332-.086-.061.08-.189.214a1.839 1.839 0 0 1-.264.225 2.516 2.516 0 0 1-.4.255 4.271 4.271 0 0 1-.537.251 5.742 5.742 0 0 1-.664.2 5.865 5.865 0 0 1-.75.131 6.829 6.829 0 0 1-.8.043 6.063 6.063 0 0 1-2.738-.619 2.924 2.924 0 0 1-.414-.245 1.637 1.637 0 0 1-.274-.211c-.134-.128-.206-.206-.206-.206z" class="cls-10" transform="translate(-1030.378 -340.6)"/>
            <path id="Path_449" d="M1027.8 363.96s.162.02.43.065c.133.026.3.052.476.075s.368.056.589.082c.435.055.931.109 1.458.148.264.019.536.033.811.045s.555.019.834.015.557-.007.832-.013.545-.023.806-.045.512-.048.758-.066c.234-.035.477-.049.684-.087.424-.061.786-.127 1.044-.178s.419-.081.419-.081a3.1 3.1 0 0 1-.239.2 2.2 2.2 0 0 1-.333.21 3.414 3.414 0 0 1-.507.239 6.494 6.494 0 0 1-.679.234c-.259.063-.534.141-.838.187s-.619.095-.948.123-.667.043-1.005.04a9.927 9.927 0 0 1-3.458-.578 4.118 4.118 0 0 1-.524-.229 2.094 2.094 0 0 1-.346-.2c-.177-.113-.264-.186-.264-.186z" class="cls-10" transform="translate(-1027.796 -345.216)"/>
        </g>
        <g id="Group_130" transform="translate(8.709 21.596)">
            <path id="Path_450" d="M998.2 394.3a.574.574 0 0 1-.084-.023c-.042-.013-.111-.023-.178-.036a2.193 2.193 0 0 0-.51-.029 2.274 2.274 0 0 0-.642.13 1.137 1.137 0 0 0-.137.059c-.065.036-.13.075-.2.111-.117.071-.253.159-.383.25a5.5 5.5 0 0 0-.763.665 5.332 5.332 0 0 0-.672.867l-.058.1.036-.107a3.885 3.885 0 0 1 1.308-1.987 2.442 2.442 0 0 1 1.354-.444c.236-.006 1.029.049.929.444z" class="cls-8" transform="translate(-985.449 -387.599)"/>
            <path id="Path_451" d="M993.43 423.848a28.456 28.456 0 0 0 .007 2.974c.038.98.071 1.954.022 2.869a17.98 17.98 0 0 1-.178 1.863c0-.311-.01-.623-.023-.935a48.809 48.809 0 0 1-.171-6.281 4.82 4.82 0 0 1 .72-2.61c-.058.214-.127.425-.172.665a9.857 9.857 0 0 0-.205 1.455z" class="cls-8" transform="translate(-984.329 -407.837)"/>
            <path id="Path_452" d="M974.492 439.553a3.754 3.754 0 0 1-.506.62 4.649 4.649 0 0 1-1.269.785c-.448.2-.906.367-1.35.552-.224.094-.442.191-.646.3s-.438.243-.636.37a12.232 12.232 0 0 0-1.185.847.09.09 0 0 0-.019.016c-.016.052-.045.137-.084.25-.068.2-.162.49-.247.841a5.938 5.938 0 0 0-.13.678 2.272 2.272 0 0 1-.032-.253 2.7 2.7 0 0 1 .763-2.055 5.328 5.328 0 0 1 1.437-.935 11.453 11.453 0 0 1 1.264-.575c.285-.1.577-.179.86-.286a6.082 6.082 0 0 0 1.769-1.22.351.351 0 0 1 .011.065z" class="cls-8" transform="translate(-966.436 -420.733)"/>
            <path id="Path_453" d="M972.36 439.655a1.827 1.827 0 0 0-.493.227c-.039.019-.078.036-.117.052l.081-.042a9.969 9.969 0 0 1-1.327-.085 5.535 5.535 0 0 1-1.574-.429 6.872 6.872 0 0 1-.906-.539c.143.075.3.182.367.214a6.8 6.8 0 0 0 .7.263c.263.078.532.143.8.195a11.611 11.611 0 0 0 2.469.144z" class="cls-8" transform="translate(-966.176 -420.261)"/>
            <path id="Path_454" d="M963.881 448.54c.026-.026.059-.052.084-.074a11 11 0 0 1-1.3.1 7.777 7.777 0 0 1-.815-.026c-.192-.019-.376-.049-.565-.084h.065a9.838 9.838 0 0 0 3.24-.322c-.242.14-.475.273-.709.406z" class="cls-8" transform="translate(-961.281 -427.014)"/>
            <path id="Path_455" d="M1005.2 442.106a.958.958 0 0 1-.652-.25 1.144 1.144 0 0 1-.172-.331q-.467-1.222-1.028-2.412a2.053 2.053 0 0 1-.214-.688c.068.149.136.3.208.448.458.974.974 1.931 1.383 2.9.088.068.192.146.325.237z" class="cls-8" transform="translate(-991.666 -419.959)"/>
            <path id="Path_456" d="M985.063 387.547l-.032-.01-.014-.016c-.052-.055-.123-.136-.207-.221a3.96 3.96 0 0 0-.793-.646 1.88 1.88 0 0 0-1.3-.286 2.639 2.639 0 0 0-.763.263c-.256.127-.522.3-.8.442-.544.3-1.094.59-1.606.867-.241.13-.481.253-.711.36a4.357 4.357 0 0 1 .821-.548l.993-.682a6.666 6.666 0 0 1 1.519-.854 2.229 2.229 0 0 1 1.7.026 3.144 3.144 0 0 1 1.193 1.305z" class="cls-8" transform="translate(-974.023 -381.938)"/>
            <path id="Path_457" d="M978.674 400.954c.02-.059.046-.114.072-.172l-.3.156c-.136.068-.279.133-.441.2-.136.052-.289.1-.448.156-.614.2-1.263.351-1.882.558a7.246 7.246 0 0 0-.893.361 4.812 4.812 0 0 0-.789.493c-.049.036-.1.075-.143.11a2.376 2.376 0 0 1 .192-.175 4.547 4.547 0 0 1 .766-.6 8.867 8.867 0 0 1 2.149-.792 4.9 4.9 0 0 0 2.043-1.016 1.96 1.96 0 0 1-.326.721z" class="cls-8" transform="translate(-970.41 -392.229)"/>
            <path id="Path_458" d="M1000.195 373.725a3.826 3.826 0 0 0-1.253 1.172 3.522 3.522 0 0 0-.238.412 5.068 5.068 0 0 0 .017.542 3.053 3.053 0 0 0 .341 1.194 2.534 2.534 0 0 0 .152.237 1.121 1.121 0 0 0 .075.094.238.238 0 0 1-.042-.023 1.8 1.8 0 0 1-.753-1.49 1.622 1.622 0 0 1 .078-.633 1.64 1.64 0 0 1 .279-.457 3.826 3.826 0 0 1 1.344-1.048z" class="cls-8" transform="translate(-988.298 -372.983)"/>
            <path id="Path_459" d="M1011.407 375.04a8.678 8.678 0 0 1-1.531 3.451 2.268 2.268 0 0 1-1.137.964 2.382 2.382 0 0 1-1.753-.3l.082.019a4.954 4.954 0 0 0 1.013.1 3.632 3.632 0 0 0 .792-.1 15.591 15.591 0 0 0 1.383-1.61 6.969 6.969 0 0 0 1.019-2.12c.041-.135.087-.268.132-.404z" class="cls-8" transform="translate(-994.466 -373.938)"/>
            <path id="Path_460" d="M1022.584 375.211c1.22 1.523 2.383 3.094 3.73 4.486-.665-.533-1.337-1.052-1.974-1.584a21.271 21.271 0 0 1-1.794-1.714v.01c-1.046-1.068-2.1-2.341-3.231-3.327a4.239 4.239 0 0 0-1.746-1.084 1.023 1.023 0 0 0-.6 0 4.241 4.241 0 0 0-1.747 1.084c-1.129.987-2.185 2.259-3.23 3.327v-.01a21.4 21.4 0 0 1-1.795 1.714c-.717.6-1.477 1.181-2.226 1.785-.328.266-.656.539-.971.818a2.855 2.855 0 0 1 .28-.334c.438-.461.918-.88 1.389-1.308a41.946 41.946 0 0 0 3.3-3.366c.312-.344.61-.694.9-1.052q.614-.74 1.191-1.51a5.315 5.315 0 0 1 2.077-1.951 3.242 3.242 0 0 1 2.626.237 7.722 7.722 0 0 1 2.084 1.727c.282.309.559.62.828.941.309.365.611.738.909 1.111z" class="cls-8" transform="translate(-994.474 -371.015)"/>
        </g>
        <path id="Path_461" d="M1084.379 409.217c-.036-.055-.065-.107-.094-.156-.048-.081-.1-.156-.142-.214a.439.439 0 0 0-.039-.058.922.922 0 0 1 .262.376.23.23 0 0 1 .013.052z" class="cls-7" transform="translate(-1041.75 -376.845)"/>
        <path id="Path_462" d="M1031.722 296.816a61.1 61.1 0 0 1-.584 8.845 10.954 10.954 0 0 1-.906 3.422 5.458 5.458 0 0 1-1.824 2.356s-.006.007-.01 0a2.058 2.058 0 0 0 .118-.182c.113-.185.22-.37.327-.555.211-.376.408-.756.594-1.146a10.492 10.492 0 0 0 .4-.977 12.557 12.557 0 0 0 .574-3c.019-.217.042-.429.064-.643.12-1.062.283-2.117.309-3.207.077-3.081.016-6.161-.013-9.242a.378.378 0 0 1 .023-.149c.09-.263.45-.153.749-.1v.006c-.006.039-.009.081-.013.127-.077 1.461.182 2.984.192 4.445z" class="cls-11" transform="translate(-1001.304 -292.177)"/>
        <path id="Path_463" d="M1052.6 311.483a.011.011 0 0 0-.006 0 2.953 2.953 0 0 1-1.274-1.12 6.867 6.867 0 0 1-.763-1.792 21.991 21.991 0 0 1-.827-4.216c-.11-1.107-.133-2.221-.149-3.334q-.045-3.257 0-6.518a10.249 10.249 0 0 0 .062-2.285v-.006c.24-.049.474-.068.543.136a.4.4 0 0 1 .022.15c-.03 3.08-.092 6.161-.014 9.242.027 1.09.189 2.145.308 3.207.024.214.047.425.066.643a12.448 12.448 0 0 0 .574 3 10.511 10.511 0 0 0 .4.977c.184.389.383.769.594 1.146.107.185.214.37.327.555l.137.215z" class="cls-11" transform="translate(-1016.668 -292.176)"/>
    </g>
</svg>
