<svg xmlns="http://www.w3.org/2000/svg" width="22.6" height="28.512" viewBox="0 0 22.6 28.512">
  <defs>
    <style>
      .cls-1, .cls-2 {
        fill: #0c6aaa;
      }

      .cls-1 {
        stroke: #0c6aaa;
        stroke-width: 0.6px;
      }
    </style>
  </defs>
  <g id="badge" transform="translate(-53.854 0.3)">
    <g id="Group_21921" data-name="Group 21921" transform="translate(54.154)">
      <g id="Group_21920" data-name="Group 21920">
        <path id="Path_12326" data-name="Path 12326" class="cls-1" d="M65.154,0a11,11,0,0,0-6.171,20.1v7a.8.8,0,0,0,1.135.734l5.036-2.266,5.036,2.266a.8.8,0,0,0,1.135-.734v-7A11,11,0,0,0,65.154,0Zm4.561,25.853-4.231-1.9a.8.8,0,0,0-.661,0l-4.231,1.9V21.012a10.944,10.944,0,0,0,1.243.477l.072.023.162.048.121.035.132.036.154.04.109.027.178.041.093.02.2.04.08.015.21.037.072.012.218.032.068.009.222.027.066.008.223.021.068.006.221.015.071,0,.224.009.068,0q.145,0,.291,0t.291,0l.068,0,.224-.009.071,0,.221-.015.068-.006.223-.021.066-.008.222-.027.068-.009.218-.032.072-.012.21-.037.08-.015.2-.04.093-.02.178-.041.109-.027.154-.04.132-.036.121-.035.162-.048.072-.023a10.944,10.944,0,0,0,1.243-.477v4.841Zm-1.5-5.977-.1.033-.147.048-.173.052-.122.035q-.115.032-.23.061l-.086.021-.227.052-.057.012q-.147.031-.294.057l-.03.005q-.133.023-.267.042l-.06.009c-.1.013-.19.025-.286.035h-.011q-.15.016-.3.026l-.066,0q-.117.008-.235.012l-.08,0c-.1,0-.2.005-.3.005s-.2,0-.3-.005l-.08,0q-.118,0-.235-.012l-.066,0q-.151-.011-.3-.026h-.011c-.1-.01-.191-.022-.286-.035l-.06-.009q-.134-.019-.267-.042l-.03-.005q-.148-.026-.294-.057l-.057-.012q-.114-.024-.227-.052l-.086-.021q-.115-.029-.23-.061l-.122-.035-.173-.052-.147-.048-.1-.033a9.39,9.39,0,1,1,6.129,0Z" transform="translate(-54.154 0)"/>
      </g>
    </g>
    <g id="Group_21923" data-name="Group 21923" transform="translate(59.56 4.543)">
      <g id="Group_21922" data-name="Group 21922">
        <path id="Path_12327" data-name="Path 12327" class="cls-2" d="M148.687,75.274l1.325-2.491a.706.706,0,0,0-.6-1.037l-2.82-.1L145.1,69.256a.706.706,0,0,0-1.2,0l-1.495,2.393-2.82.1a.706.706,0,0,0-.6,1.037l1.325,2.491-1.325,2.491a.706.706,0,0,0,.6,1.037l2.82.1,1.495,2.393a.706.706,0,0,0,1.2,0l1.495-2.393,2.82-.1a.706.706,0,0,0,.6-1.037Z" transform="translate(-138.907 -68.924)"/>
      </g>
    </g>
  </g>
</svg>
