<svg width="82" height="78" viewBox="0 0 82 78" fill="none" xmlns="http://www.w3.org/2000/svg">
<g filter="url(#filter0_d)">
<path fill-rule="evenodd" clip-rule="evenodd" d="M42.6342 61.9384C41.6401 61.2925 40.3589 61.2925 39.3648 61.9384L32.8831 66.1506C31.1939 67.2483 28.9244 66.4022 28.3659 64.4666L26.4302 57.7569C26.0844 56.5582 25.0328 55.6987 23.7892 55.5982L16.294 54.993C14.1717 54.8217 12.8984 52.5556 13.8558 50.6538L16.7829 44.8392C17.3839 43.6454 17.1227 42.198 16.1423 41.2896L11.2314 36.7396C9.64115 35.2662 10.0906 32.6445 12.0807 31.7849L18.5933 28.9719C19.7874 28.4561 20.513 27.2296 20.3903 25.9347L19.7651 19.3398C19.5699 17.2803 21.4687 15.6459 23.4763 16.1455L31.0168 18.0221C32.184 18.3126 33.4118 17.8779 34.1362 16.9177L38.6046 10.9951C39.8049 9.40426 42.1941 9.40426 43.3943 10.9951L47.8628 16.9177C48.5872 17.8779 49.815 18.3126 50.9821 18.0221L58.5227 16.1455C60.5302 15.6459 62.4291 17.2803 62.2338 19.3398L61.6087 25.9347C61.4859 27.2296 62.2116 28.4561 63.4057 28.9719L69.9183 31.7849C71.9084 32.6445 72.3578 35.2662 70.7676 36.7396L65.8567 41.2896C64.8763 42.198 64.6151 43.6454 65.216 44.8392L68.1432 50.6538C69.1006 52.5556 67.8273 54.8217 65.705 54.993L58.2097 55.5982C56.9662 55.6987 55.9146 56.5582 55.5687 57.7569L53.633 64.4666C53.0746 66.4022 50.8051 67.2483 49.1159 66.1506L42.6342 61.9384Z" fill="white"/>
</g>
<path fill-rule="evenodd" clip-rule="evenodd" d="M46.9732 31.871L38.6108 39.9019L35.4286 36.8487C34.3227 35.7871 32.5302 35.7882 31.425 36.8509C30.3202 37.9135 30.3213 39.635 31.4276 40.6963L36.6111 45.67C37.1637 46.2004 37.8877 46.4654 38.6116 46.4654C39.3359 46.4654 40.0606 46.2 40.6132 45.6692L50.976 35.7171C52.0819 34.6555 52.0819 32.9337 50.9764 31.8714C49.8712 30.8094 48.0787 30.809 46.9732 31.871Z" fill="#44D7B6"/>
<defs>
<filter id="filter0_d" x="6.26953" y="7.802" width="69.4598" height="64.8348" filterUnits="userSpaceOnUse" color-interpolation-filters="sRGB">
<feFlood flood-opacity="0" result="BackgroundImageFix"/>
<feColorMatrix in="SourceAlpha" type="matrix" values="0 0 0 0 0 0 0 0 0 0 0 0 0 0 0 0 0 0 127 0"/>
<feOffset dy="2"/>
<feGaussianBlur stdDeviation="2"/>
<feColorMatrix type="matrix" values="0 0 0 0 0.763427 0 0 0 0 0.830389 0 0 0 0 0.819816 0 0 0 1 0"/>
<feBlend mode="normal" in2="BackgroundImageFix" result="effect1_dropShadow"/>
<feBlend mode="normal" in="SourceGraphic" in2="effect1_dropShadow" result="shape"/>
</filter>
</defs>
</svg>
