<svg width="20" height="21" viewBox="0 0 20 21" fill="none" xmlns="http://www.w3.org/2000/svg">
<path d="M10.0009 20.0041C8.02319 20.0053 6.08962 19.4194 4.44487 18.3207C2.80013 17.222 1.51814 15.6598 0.761156 13.8318C0.0041759 12.0038 -0.193768 9.99221 0.192377 8.05163C0.578521 6.11105 1.5314 4.32869 2.9304 2.93015C4.80561 1.05401 7.34893 0 10.0009 0C12.6528 0 15.1961 1.05401 17.0713 2.93015C18.9465 4.80629 20 7.35088 20 10.0041C20 12.6574 18.9465 15.202 17.0713 17.0781C16.1447 18.0094 15.0427 18.7474 13.829 19.2497C12.6154 19.7519 11.3142 20.0084 10.0009 20.0041ZM10.0009 11.4141L13.5891 15.0041L14.9984 13.5941L11.4102 10.0041L14.9984 6.41415L13.5891 5.00415L10.0009 8.59415L6.41266 5.00415L5.00337 6.41415L8.59157 10.0041L5.00337 13.5941L6.41266 15.0041L10.0009 11.4151V11.4141Z" fill="white"/>
</svg>
