<svg xmlns="http://www.w3.org/2000/svg" width="24.02" height="24.02" viewBox="0 0 24.02 24.02">
    <g>
        <path fill="#88e2d5" d="M420.138.417a1.425 1.425 0 0 0-2.016 0l-1.809 1.809.389.641.619.367 1.686-.736z" transform="translate(-396.535)"/>
        <path fill="#e9f1ff" d="M208.692 86.789l.47-1.183-1.478.175-8.29 8.29v2.016l5.492-4.78z" transform="translate(-189.921 -81.539)"/>
        <path fill="#d5def0" d="M199.394 110.374h2.016l8.29-8.29.175-1.478-1.183.47z" transform="translate(-189.921 -95.827)"/>
        <path fill="#f15a0d" d="M69.932 62.768a4.934 4.934 0 0 1 2.978-1.431l.548-.06.826-5.671h-.824a10.619 10.619 0 0 0-7.56 3.131l1.858 3.283 2.174.748z" transform="translate(-62.77 -52.965)"/>
        <path fill="#fa375a" d="M7.162 125.538l-4.031-4.031A10.619 10.619 0 0 0 0 129.066l2.85.713 2.85-.713a4.956 4.956 0 0 1 1.462-3.528z" transform="translate(0 -115.735)"/>
        <path fill="#e627e1" d="M5.7 280.606H0a10.619 10.619 0 0 0 3.131 7.559l2.57-1.858 1.461-2.174a4.956 4.956 0 0 1-1.462-3.527z" transform="translate(0 -267.275)"/>
        <path fill="#1aa651" d="M69.932 354.852l-4.032 4.031a10.619 10.619 0 0 0 7.559 3.131l.713-2.85-.713-2.85a4.956 4.956 0 0 1-3.527-1.462z" transform="translate(-62.77 -337.994)"/>
        <path fill="#01a0aa" d="M225 356.313v5.7a10.619 10.619 0 0 0 7.558-3.131l-1.145-2.57-2.886-1.461a4.956 4.956 0 0 1-3.527 1.462z" transform="translate(-214.311 -337.994)"/>
        <path fill="#3281ff" d="M306.408 263.265l-5.735.835v.576a4.933 4.933 0 0 1-1.427 2.94l4.031 4.031a10.619 10.619 0 0 0 3.131-7.559z" transform="translate(-285.029 -250.758)"/>
        <path fill="#46b2a5" d="M440.343 8.787l-2.817 2.813.343.643.666.364 1.808-1.808a1.425 1.425 0 0 0 0-2.016z" transform="translate(-416.74 -8.37)"/>
        <path fill="#3994c6" d="M344.115 15.08L342.1 17.1l2.518 2.518 1.9-.47.12-1.545z" transform="translate(-325.846 -14.364)"/>
        <path fill="#1072b2" d="M395.1 70.1l2.518 2.518 2.016-2.016-2.518-2.518z" transform="translate(-376.33 -64.846)"/>
    </g>
</svg>
