<svg xmlns="http://www.w3.org/2000/svg" width="20.816" height="20.83" viewBox="0 0 20.816 20.83">
    <path fill="#fff" d="M24.555 4.91H6.141a1.19 1.19 0 0 0-1.2 1.176v18.448a1.206 1.206 0 0 0 1.205 1.206h18.4a1.206 1.206 0 0 0 1.206-1.206V6.085a1.19 1.19 0 0 0-1.2-1.176zM10.8 6.217a.649.649 0 1 1-.461.19.651.651 0 0 1 .461-.19zm-1.952 0a.651.651 0 1 1-.6.313.651.651 0 0 1 .598-.313zm-1.949 0a.651.651 0 1 1-.6.313.651.651 0 0 1 .601-.313zm17.552 17.566a.654.654 0 0 1-.654.651H6.9a.654.654 0 0 1-.654-.651v-5.858a.654.654 0 0 1 .654-.651h16.9a.654.654 0 0 1 .654.651zm0-8.456a.654.654 0 0 1-.654.651H6.9a.654.654 0 0 1-.654-.654V9.469A.651.651 0 0 1 6.9 8.82h16.9a.651.651 0 0 1 .654.649z" transform="translate(-4.94 -4.91)"/>
</svg>
