<svg xmlns="http://www.w3.org/2000/svg" width="53.988" height="53.977" viewBox="0 0 53.988 53.977">
    <defs>
        <style>
            .cls-5{fill:#e7f0ef}
        </style>
    </defs>
    <g id="live" transform="translate(.012)">
        <path id="Path_68983" fill="#67e5d5" d="M72.981 23.608v-.007-.044a24.446 24.446 0 0 0-48.86 0v.051c-.009.279-.016.559-.016.84a24.384 24.384 0 0 0 1.4 8.169 1.581 1.581 0 0 0 2.981-1.057 21.182 21.182 0 0 1-1.2-6.378h7a40.962 40.962 0 0 0 .744 7.192 1.581 1.581 0 0 0 3.1-.609 37.808 37.808 0 0 1-.685-6.583h9.532v6.888a1.581 1.581 0 1 0 3.163 0v-6.888h9.533a37.851 37.851 0 0 1-.685 6.583 1.581 1.581 0 1 0 3.1.609 41 41 0 0 0 .744-7.193h7a21.207 21.207 0 0 1-1.2 6.378 1.581 1.581 0 0 0 2.968 1.057 24.4 24.4 0 0 0 1.4-8.169c0-.28-.01-.56-.019-.839zm-3.286-1.588h-6.93a39.689 39.689 0 0 0-1.01-7h5.872a21.109 21.109 0 0 1 2.068 6.999zm-4-10.163h-4.86a27.469 27.469 0 0 0-1.921-4.346 21.076 21.076 0 0 0-1.583-2.451 21.416 21.416 0 0 1 8.369 6.797zM46.968 3.389v8.467h-7.317c1.742-4.456 4.362-7.621 7.317-8.467zm3.163 0c2.955.846 5.574 4.013 7.317 8.467H50.13zM39.767 5.06a21.131 21.131 0 0 0-1.583 2.451 27.506 27.506 0 0 0-1.921 4.346H31.4a21.419 21.419 0 0 1 8.367-6.797zm-10.3 9.96h5.872a39.689 39.689 0 0 0-1.01 7H27.4a21.109 21.109 0 0 1 2.07-7.001zm8.034 7a36.046 36.046 0 0 1 1.118-7h8.347v7zm12.627-7h8.347a36.078 36.078 0 0 1 1.118 7H50.13zm0 0" transform="translate(-21.561)"/>
        <path id="Path_68984" fill="#00b5a5" d="M280.432 23.608v-.007-.044A24.446 24.446 0 0 0 256 0v33.651a1.581 1.581 0 0 0 1.581-1.581v-6.888h9.533a37.855 37.855 0 0 1-.685 6.583 1.581 1.581 0 1 0 3.1.609 41 41 0 0 0 .744-7.193h7a21.206 21.206 0 0 1-1.2 6.378 1.581 1.581 0 0 0 2.981 1.057 24.4 24.4 0 0 0 1.4-8.169c-.007-.28-.013-.56-.022-.839zM257.581 3.389c2.955.846 5.574 4.013 7.317 8.467h-7.317zm0 18.63v-7h8.347a36.077 36.077 0 0 1 1.118 7zm10.7-10.163S267.1 8.842 266.36 7.51a21.128 21.128 0 0 0-1.583-2.451 21.419 21.419 0 0 1 8.368 6.8zm1.931 10.163a39.685 39.685 0 0 0-1.01-7h5.872a21.109 21.109 0 0 1 2.066 7zm0 0" transform="translate(-229.012)"/>
        <path id="Path_68985" fill="#ff4949" d="M48.161 289.2H5.816A5.822 5.822 0 0 0 0 295.015v11.857a5.822 5.822 0 0 0 5.816 5.816h42.345a5.822 5.822 0 0 0 5.816-5.816v-11.857a5.822 5.822 0 0 0-5.816-5.815zm0 0" transform="translate(-.012 -258.711)"/>
        <path id="Path_68986" fill="#f30051" d="M277.173 289.2H256v23.488h21.173a5.822 5.822 0 0 0 5.816-5.816v-11.857a5.822 5.822 0 0 0-5.816-5.815zm0 0" transform="translate(-229.012 -258.711)"/>
        <g id="Group_22702" transform="translate(1.405)">
            <g id="Group_22701" transform="translate(11.583 35.516)">
                <path id="Path_68987" d="M116.681 347.342h-3.659v-9.3c0-.689-.633-1.152-1.575-1.152s-1.576.463-1.576 1.152v11.011a1.282 1.282 0 0 0 1.44 1.169h5.37c.658 0 1.135-.605 1.135-1.44s-.467-1.44-1.135-1.44zm0 0" class="cls-5" transform="translate(-113.871 -336.891)"/>
                <path id="Path_68988" d="M189.208 336.891c-.942 0-1.575.463-1.575 1.152v11.011c0 .688.648 1.169 1.575 1.169s1.576-.491 1.576-1.169v-11.012c0-.689-.633-1.151-1.576-1.151zm0 0" class="cls-5" transform="translate(-181.435 -336.891)"/>
                <path id="Path_68989" d="M228.126 336.891a1.1 1.1 0 0 0-1.2.787l-2.119 7.558-2.132-7.55a1.105 1.105 0 0 0-1.2-.794c-.762 0-1.863.495-1.863 1.389a1.185 1.185 0 0 0 .048.284l.007.025 3.269 10.654v.011a1.831 1.831 0 0 0 1.873 1.069 1.8 1.8 0 0 0 1.877-1.081l3.252-10.655.006-.023.009-.033a.937.937 0 0 0 .04-.252c-.004-.895-1.106-1.389-1.867-1.389zm0 0" class="cls-5" transform="translate(-208.037 -336.891)"/>
            </g>
            <path id="Path_68990" d="M327.653 347.342h-4.319v-2.456h2.1a1.231 1.231 0 0 0 1.169-1.321 1.244 1.244 0 0 0-1.169-1.355h-2.1v-2.44h4.319c.678 0 1.17-.613 1.17-1.457a1.271 1.271 0 0 0-1.17-1.423h-6.03a1.281 1.281 0 0 0-1.44 1.169v10.993a1.281 1.281 0 0 0 1.44 1.169h6.03a1.271 1.271 0 0 0 1.17-1.423c0-.843-.492-1.456-1.17-1.456zm0 0" class="cls-5" transform="translate(-285.429 -301.375)"/>
        </g>
    </g>
</svg>
