<!-- Generated by IcoMoon.io -->
<svg version="1.1" xmlns="http://www.w3.org/2000/svg" width="1024" height="1024" viewBox="0 0 1024 1024">
<title></title>
<g id="icomoon-ignore">
</g>
<path fill="#fd5656" d="M512.046 1023.849c-101.259 0.062-200.258-29.922-284.469-86.147-84.211-56.231-149.849-136.175-188.607-229.722s-48.892-196.484-29.122-295.795c19.771-99.308 68.558-190.52 140.187-262.089 96.010-96.010 226.229-149.949 362.009-149.949 135.776 0 265.995 53.939 362.008 149.949 96.008 96.010 149.946 226.228 149.946 362.008s-53.938 266-149.946 362.008c-47.444 47.654-103.869 85.425-166.010 111.125-62.136 25.705-128.755 38.826-195.998 38.611zM512.046 584.261l183.716 183.716 72.156-72.156-183.716-183.716 183.716-183.716-72.156-72.156-183.716 183.716-183.718-183.716-72.156 72.156 183.716 183.716-183.716 183.716 72.156 72.156 183.718-183.716z"></path>
</svg>
